<?xml version="1.0" encoding="UTF-8"?>
<svg id="Layer_2" data-name="Layer 2" xmlns="http://www.w3.org/2000/svg" viewBox="0 0 396.68 216.45">
  <defs>
    <style>
      .cls-1, .cls-2 {
        stroke-width: 0px;
      }

      .cls-2 {
        fill: #fff;
      }
    </style>
  </defs>
  <g id="good_morning_burger_logo" data-name="good morning burger logo">
    <g>
      <path class="cls-1" d="m70.98,78.39c0,1.26,0,2.38-.14,3.36-.28,2.24-.7,4.34-1.4,6.44-.42,1.12-.98,2.1-1.54,3.22-.42.84-.98,1.54-1.54,2.38-1.54,2.52-3.08,5.04-5.32,7-.84.7-1.68,1.68-2.52,2.52-1.26,1.12-2.8,1.96-4.48,2.66-2.8,1.26-5.74,2.1-8.68,2.66-2.66.42-5.46.56-8.4.56-2.66,0-5.6-.14-8.4-.14-5.04,0-8.12.14-12.6.14h-1.82c-.98,0-1.54-.14-2.52-.28-2.38-.42-4.62-.42-6.72-1.12-1.96-.56-2.66-.98-2.94-3.78l-.42-4.62c0-2.8-.14-5.46-.14-8.26.14-2.8.28-5.46.28-8.4C1.68,61.03.56,37.65.56,16.51c0-1.96,0-4.06.28-6.02.14-.98,0-1.96.14-2.94s.56-1.4,1.26-1.4h.28c11.62-.14,18.2-.14,29.82-.42,4.06-.14,7-.42,10.36-.56h.84c3.5,0,8.4.84,11.48,1.82,1.96.56,4.06,1.54,5.46,3.22.98,1.12,2.1,2.1,3.08,3.22,1.26,1.26,2.1,2.66,2.8,4.34,2.1,4.9,2.66,9.1,2.94,14v2.1c0,9.8-2.66,14.28-9.24,19.88-.42.42-1.12.7-1.26,1.4.42.84,1.26,1.12,1.96,1.54,1.96.84,3.36,2.1,4.9,3.36,1.26.98,1.96,2.38,2.52,3.64,1.4,3.5,2.38,7,2.66,10.92.14,1.4.14,2.52.14,3.78Zm-43.68-30.52h2.94c1.4,0,5.18,0,6.58-.28,2.66-.42,3.92-2.24,4.76-4.48.28-1.4.42-3.08.42-4.9,0-1.68-.14-3.5-.14-4.9v-.7c-.14-1.68-2.52-2.8-4.34-2.94-.98-.14-4.62-.28-5.74-.28-.7,0-1.54.14-2.38.14-.56,0-1.4.14-1.96.56-.14,1.12-.28,2.24-.56,3.36-.14.84-.14,1.68-.14,2.52v1.68c.14,2.66.14,5.32.28,7.98,0,.56.14,1.4.28,2.24Zm13.3,27.02c0-.98,0-1.82-.14-2.8-.28-2.1-3.22-3.78-5.32-4.06h-.7c-1.68,0-3.5.56-5.18.84-.7.14-.98.42-.98,1.26,0,.7.14,2.8.14,4.62.14,3.08.14,4.48.14,7.98v2.24c.14.28.42.7.84.7h.14c5.6,0,11.06-.28,11.06-6.58v-4.2Z"/>
      <path class="cls-1" d="m76.16,82.31c.56-1.4,2.38-14,2.66-15.54.28-1.26.56-2.38.84-3.64.7-2.24.98-9.94,1.68-12.04.28-.84.42-1.54.42-2.24.56-3.78,1.4-8.26,2.24-13.16.28-1.68.42-3.5.84-5.32.56-3.5,1.4-7.28,2.1-11.06.98-3.92,1.96-7.14,2.94-11.34.14-.56.56-.7,1.26-.7h2.1c.98-.28,4.34-.42,7.7-.42,3.78,0,7.56.14,8.68.28.84,0,1.54.14,2.1.14,1.82,0,4.06-.14,6.3-.14,3.92,0,7.98.28,10.22,1.68.28.42.28.7.28,1.12.98,4.06.7,5.18,1.96,9.1.42,1.68,1.12,6.02,1.54,7.56.7,3.64,1.4,7.14,2.24,10.78.42,1.96.7,3.92,1.26,5.88,3.36,14.28,5.88,28.7,9.52,42.42.28,1.68.42,2.52.84,4.2v.28c.56,2.52.98,4.2,1.54,6.86,0,.14,1.12,6.3,1.12,6.44.14.14.84,4.62.84,4.76v.28c0,.7-1.26.84-2.8.84-1.4,0-3.22-.14-4.76-.14h-.84c-2.52.14-7.42.14-9.94.14h-10.64c-.84,0-1.4-5.32-2.1-8.96-.7-3.22-1.26-7.28-1.4-8.4-.28-2.1-.56-4.2-.98-6.16-.14-.42-.28-.84-.28-1.26-.56-3.92-.98-6.3-1.82-10.22-.14-.98-.56-1.54-1.54-1.68-.42-.14-6.72-.42-7.28-.42-.7-.14-1.54-.28-2.24-.28-.84,0-1.68.14-2.66.28-.98.14-.98,7.28-1.12,10.08-.14,2.1-.14,4.48-.28,7,0,2.52-.14,5.04-.14,7.42-.14,1.82-.14,3.5-.28,4.9,0,1.68-.14,2.94-.14,4.06-.28,2.66-.56,3.22-2.38,3.36-1.54.14-7,.14-11.62.56-1.4.28-2.8.14-4.06.28h-2.8c-.56.14-1.12.14-1.54.14-2.38,0-3.08-.56-3.08-2.1,0-.7.14-1.54.28-2.66,1.12-7.42,2.8-21.56,3.22-22.96Zm35.84-24.08c-1.4-10.5-2.1-16.38-3.5-26.88-.14-.42,0-.84-.42-.98-.42-.28-1.26-.7-1.96-.7h-.14c-.42,0-.84.14-.84.28-.7,3.64-3.78,24.92-3.92,28.56v.14c0,.42,0,.7.14.98.14.28.42.56.84.56h.14c.98-.14,3.08-.14,4.9-.14h2.94c1.54,0,2.24-.42,1.82-1.82Z"/>
      <path class="cls-1" d="m212.24,79.65c3.08,5.88,7.7,12.6,10.36,17.78.84,1.4,1.54,2.8,2.1,4.2.7,1.4,1.26,2.94,1.96,4.48.14.28.14.42.14.7,0,.42-.14.7-.42,1.12-.28.56-3.08,1.68-5.46,1.68h-.42c-1.68-.14-5.46-.28-7.28-.28-1.26,0-2.1-.14-3.36-.14-1.4,0-2.8.42-3.92.42-.42,0-.7-.14-.98-.28-.7-.7-1.82-3.5-3.5-6.58-.56-1.12-1.26-2.24-1.68-3.22-1.68-3.36-4.06-6.72-5.74-9.94-1.4-2.52-2.8-5.18-4.2-7.7-1.12-1.82-2.24-3.64-3.36-5.6-.7-1.12-6.86-11.48-9.38-13.02,0,.56-.14,2.24-.14,2.52-.14,2.8-.14,4.48-.14,5.74,0,2.66.14,3.22.14,7.7,0,7.14.14,13.44.14,20.86v5.18c0,1.68-.14,3.22-1.68,3.22-5.88,0-10.22-.14-17.08-.14h-2.52c-1.54,0-2.1-.56-2.1-2.38v-4.62c.14-13.86.7-26.74.7-42.98,0-8.54-.14-16.8-.14-25.2v-5.6c0-2.94-.14-5.32-.14-8.68v-9.94c0-.42.14-.7.14-1.12.14-.84.42-.98.98-.98h1.26c.7,0,1.82-.14,2.8-.14,3.22,0,5.32-.14,7.84-.14,1.68,0,3.22.14,5.32.14,4.06.14,8.68.14,13.16.14h11.62c9.24.14,18.76.14,23.38,5.74,2.8,3.64,4.48,6.86,6.02,11.34.56,1.96.7,3.78.7,5.6,0,14.14-7.84,30.8-18.9,33.88-1.54.42-4.62.56-6.3.56-.14,0-.14.14-.14.28,0,1.4,7,9.8,9.24,13.58.42.84.56,1.12.98,1.82Zm-14.14-39.34c.7-1.12.98-7.84.98-8.82,0-1.4-.56-2.66-1.82-3.64-3.5-2.38-8.12-3.36-12.46-3.36-3.08,0-4.34.7-5.04,1.12-.28.14-.28.42-.28.7v.14c0,1.54.14,3.5.14,5.46,0,1.4-.14,8.4-.14,9.8,0,1.12.14,2.24.14,3.22.7.14,2.8.14,4.2.14h1.26c4.62-.42,1.82,0,7.56-1.12,2.1-.42,4.06-1.54,5.46-3.64Z"/>
      <path class="cls-1" d="m247.1,38.91c-1.82,0-2.8.56-5.46.56-1.68.14-1.96.14-3.5.14-.28,0-.7,0-.98-.14l-2.52-.42c-.42,0-.98-.14-1.26-.28-.84-.56-1.26-1.12-1.26-1.96,0-10.22.28-9.24.28-20.3v-5.6c0-1.68.14-2.52.42-4.2,0-1.12.84-1.12,1.54-1.12h5.32c2.38-.14,4.76-.28,7-.28,1.54,0,4.06.14,5.46.14,1.68.14,3.22.14,4.9.14,3.36.14,6.86,0,10.22.28,3.36.42,7.98.28,11.34.42,2.1.28,4.34.28,6.44.28.7,0,1.54.14,1.82.56.84.98.7,1.96.84,3.36.14,1.68.28,3.22.28,4.76s-.14,3.08-.28,4.76v2.8c0,8.96.7,5.32.7,14.56,0,0,0,.28-.14.28-.28.84-1.82,1.12-3.64,1.12-3.22,0-2.52,0-5.46.14-.98,0-1.82.14-2.52.14h-.56c-.56-.14-.98-.14-1.4-.14-1.26,0-1.82.28-1.96.98-.98,2.66-1.12,5.6-1.12,8.54,0,1.4.28,2.52.28,4.06.14.56.14,1.12.14,1.82,0,8.4-.28,13.58-.28,22.54v7.42c0,5.88-.14,11.9-.14,18.06,0,1.4,0,2.66.14,4.06,0,.7,0,1.12.14,1.68,0,.7-.28.98-.84,1.12-1.26.14-2.52.28-3.78.28-1.82,0-3.64-.14-5.46-.14-2.24-.14-3.08-.14-5.46-.42-2.1-.28-5.88-.28-6.3-1.26-.14-.28-.42-1.4-.42-1.82h.14v-14.84c0-5.18-.14-9.52-.28-15.54q-.14-.14-.14-.28s0-.14.14-.28c.14-10.78.28-14.56.28-27.58,0-1.96.28-3.92.28-6.02v-1.12c0-.42-.14-.84-.56-.98-.98-.14-1.82-.28-2.38-.28Z"/>
      <path class="cls-1" d="m311.36,39.89c-2.52,2.38-5.6,3.78-9.1,4.34-.28,0-.7.14-1.12.14-2.66,0-5.46-1.82-6.58-3.92-.7-1.26-.56-2.66-.28-3.92.14-.28.42-.42.56-.56.84-.42,1.54-.84,2.38-.98,1.26-.28,2.1-.98,2.94-1.82.7-.56.7-1.26,0-1.82-.84-.84-1.68-1.54-2.52-2.24-1.54-1.12-2.8-2.52-3.5-4.34-.14-.42-.28-.84-.56-1.26-.56-1.26-.84-2.52-.84-3.78,0-7.28,7.84-12.32,14.98-12.32,4.62.14,8.12,2.8,9.66,8.96.7,2.52,1.12,5.04,1.12,8.54-.28,5.32-2.38,10.78-7.14,14.98Z"/>
      <path class="cls-1" d="m359.1,41.01c-1.12.98-1.68,2.1-1.68,3.5,0,.42,0,.84.14,1.26.42,1.96,1.12,3.64,2.94,4.9,2.38,1.54,4.76,2.94,7.28,4.34,4.34,2.38,8.68,4.9,12.6,8.12,3.36,2.52,6.58,6.44,8.54,11.06,1.26,2.94,1.96,6.16,1.96,9.66,0,.98,0,1.82-.14,2.8-.84,8.54-5.6,16.24-12.46,19.46-2.94,1.26-5.46,1.54-9.1,2.24-4.48.84-9.24,1.12-14.28,1.12-4.76,0-9.52-.14-13.86-.28-3.92-.14-9.66-.28-13.3-1.4-1.54-.42-2.8-.7-3.92-1.54-.56-.42-.84-1.12-.84-1.68-.14-.56-.14-1.12-.14-1.68,0-2.66-.14-5.32-.14-7.98v-7.98c0-1.26-.14-2.38-.14-3.64,0-1.96-.14-3.22-.14-4.2,0-1.68.42-1.82,2.8-2.24.56-.14,2.24-.14,2.8-.14,4.48,0,8.82.14,13.44.14h3.22c1.54,0,3.92-.42,3.92-.42.42-.14.84-.28,1.26-.56,1.68-.98,3.22-2.1,4.62-3.5,1.12-1.12,1.68-2.52,1.68-3.92,0-2.52-2.24-4.76-4.9-6.72-3.22-2.24-7-3.92-9.24-4.76-1.96-.7-4.06-1.26-6.02-2.24-3.08-1.54-6.02-3.64-8.26-6.44-1.54-1.82-2.94-3.92-3.64-6.16-.7-1.96-.98-3.78-1.54-6.16-.14-.84-.14-1.54-.14-2.24,0-.98,0-1.96.28-3.08.28-1.26.56-2.1.84-3.36.14-.42.14-.56.28-.98,3.78-7.56,8.54-12.46,16.1-16.24.56-.28.98-.42,1.54-.7,6.02-2.1,13.44-2.66,21.14-2.66h7.7c4.9,0,11.06.14,15.54.84.84.14,2.66.14,3.22.98.98.98,1.26,1.82,1.54,3.22.14.84,0,1.68.14,2.66v5.88c0,1.96.14,4.06.14,6.02,0,7.56-.14,1.82-.14,9.38,0,.42,0,.98-.14,1.4-.14.98-1.12,1.12-2.24,1.12h-2.8c-1.12,0-3.36.14-5.74.14h-2.1c-1.54-.14-3.36-.14-5.18-.14-1.96,0-3.78,0-5.46.28-4.34.56-5.04-.14-7.98,2.52Z"/>
      <path class="cls-1" d="m30.92,156.74c-.94.83-1.42,1.77-1.42,2.95,0,.35,0,.71.12,1.06.35,1.65.94,3.07,2.48,4.13,2.01,1.3,4.01,2.48,6.14,3.66,3.66,2.01,7.32,4.13,10.62,6.84,2.83,2.12,5.55,5.43,7.2,9.32,1.06,2.48,1.65,5.19,1.65,8.14,0,.83,0,1.53-.12,2.36-.71,7.2-4.72,13.69-10.5,16.4-2.48,1.06-4.6,1.3-7.67,1.89-3.78.71-7.79.94-12.04.94-4.01,0-8.02-.12-11.68-.24-3.3-.12-8.14-.24-11.21-1.18-1.3-.35-2.36-.59-3.3-1.3-.47-.35-.71-.94-.71-1.42-.12-.47-.12-.94-.12-1.42,0-2.24-.12-4.48-.12-6.73v-6.73c0-1.06-.12-2.01-.12-3.07,0-1.65-.12-2.71-.12-3.54,0-1.42.35-1.53,2.36-1.89.47-.12,1.89-.12,2.36-.12,3.78,0,7.43.12,11.33.12h2.71c1.3,0,3.3-.35,3.3-.35.35-.12.71-.24,1.06-.47,1.42-.83,2.71-1.77,3.89-2.95.94-.94,1.42-2.12,1.42-3.3,0-2.12-1.89-4.01-4.13-5.66-2.71-1.89-5.9-3.3-7.79-4.01-1.65-.59-3.42-1.06-5.07-1.89-2.6-1.3-5.07-3.07-6.96-5.43-1.3-1.53-2.48-3.3-3.07-5.19-.59-1.65-.83-3.19-1.3-5.19-.12-.71-.12-1.3-.12-1.89,0-.83,0-1.65.24-2.6.24-1.06.47-1.77.71-2.83.12-.35.12-.47.24-.83,3.19-6.37,7.2-10.5,13.57-13.69.47-.24.83-.35,1.3-.59,5.07-1.77,11.33-2.24,17.82-2.24h6.49c4.13,0,9.32.12,13.1.71.71.12,2.24.12,2.71.83.83.83,1.06,1.53,1.3,2.71.12.71,0,1.42.12,2.24v4.96c0,1.65.12,3.42.12,5.07,0,6.37-.12,1.53-.12,7.91,0,.35,0,.83-.12,1.18-.12.83-.94.94-1.89.94h-2.36c-.94,0-2.83.12-4.84.12h-1.77c-1.3-.12-2.83-.12-4.37-.12-1.65,0-3.19,0-4.6.24-3.66.47-4.25-.12-6.73,2.12Z"/>
      <path class="cls-1" d="m103.48,203.35c0,1.89,0,3.78-.24,5.66-.12,1.18.12,2.24-.35,3.3-.47,1.06-1.3,1.65-2.36,1.65-1.18,0-2.24-.12-3.42-.12-2.95,0-6.02.24-8.97.24h-1.18c-1.42-.12-2.83-.12-4.25-.12s-2.95,0-4.37.12c-1.06.12-2.01.12-3.07.12l-7.2-.35c-.71-.12-1.53-.12-2.24-.24-1.18-.24-1.53-.71-1.53-1.89-.24-3.78-.24-8.61-.24-12.74v-5.9c0-14.99,0-29.5-.71-44.25-.12-5.19-.71-11.33-.71-17.46,0-.24.12-.59.12-.83.12-.71,0-1.3.83-1.53.24-.12.59-.12.83-.12h2.24c.59.12,1.06.12,1.65.12,5.66,0,2.48-.35,8.61-.35.47.12,1.42,0,2.24.12.83.12,1.42,0,2.12.35.71.47.94.71.94,1.3,0,.24,0,.47-.12.83-.12,1.42-.24,2.95-.24,4.48-.24,3.3-.35,6.61-.35,9.91,0,4.6.12,9.2.12,13.81v3.54c-.12,3.78-.35,14.63-.35,18.53,0,1.42,0,2.48.12,2.95.12.83.35,1.77.59,2.71.35,1.06,1.06,1.65,2.24,1.77,1.42.24,2.83.24,4.25.24h2.95c2.6,0,4.01-.24,6.49-.47,1.06,0,2.36-.12,3.3-.12,1.42,0,2.24.35,2.24,1.89v.35c-.12,1.18-.12,2.12-.12,3.07,0,1.77.12,3.42.12,5.66v3.78Z"/>
      <path class="cls-1" d="m130.04,134.68c0,12.86-1.18,20.77-1.18,34.69v.24c0,1.3-.12,2.83-.12,4.13v1.65c0,4.84.12,9.79,3.19,11.8.83.59,2.24,1.18,3.78,1.18,1.42,0,2.83-.47,3.78-1.53.12-.24.35-.35.47-.59,1.77-2.24,3.54-6.61,3.54-12.98v-.59c0-12.98.83-25.02.83-37.41v-6.49c0-.47.59-.47,1.06-.47h.71c8.26.24,9.68.24,17.94,1.18,1.06.12,1.06,1.3,1.06,2.48v1.53c0,4.96-.47,8.61-.47,13.69v1.53c.12.71.12,1.53.12,2.12,0,4.48-.12,9.2-.12,13.69v.83c0,3.07-.24,7.43-.47,10.5-.24,1.77-.12,3.78-.24,5.66-.24,2.83-.24,5.78-.47,8.61-1.77,14.16-6.49,21.24-19.12,24.43-.35,0-.83.24-1.3.35-3.42.83-6.96,1.53-10.74,1.53-1.42,0-2.95-.12-4.48-.35-2.24-.35-4.37-.94-6.25-2.01-5.78-2.83-9.09-8.38-10.97-15.22-2.71-9.68-2.6-21.95-2.83-33.63v-8.73c0-4.25.12-8.61.12-12.74v-2.6c0-4.01-.12-7.67-.12-11.56,0-.59.24-1.06.83-1.18.94-.12,1.77-.24,2.6-.24h15.69c1.06,0,2.24,0,2.71,1.06.12.47.47,1.53.47,2.24v3.19Z"/>
      <path class="cls-1" d="m219.24,189.31c2.6,4.96,6.49,10.62,8.73,14.99.71,1.18,1.3,2.36,1.77,3.54.59,1.18,1.06,2.48,1.65,3.78.12.24.12.35.12.59,0,.35-.12.59-.35.94-.24.47-2.6,1.42-4.6,1.42h-.35c-1.42-.12-4.6-.24-6.14-.24-1.06,0-1.77-.12-2.83-.12-1.18,0-2.36.35-3.3.35-.35,0-.59-.12-.83-.24-.59-.59-1.53-2.95-2.95-5.55-.47-.94-1.06-1.89-1.42-2.71-1.42-2.83-3.42-5.66-4.84-8.38-1.18-2.12-2.36-4.37-3.54-6.49-.94-1.53-1.89-3.07-2.83-4.72-.59-.94-5.78-9.68-7.91-10.97,0,.47-.12,1.89-.12,2.12-.12,2.36-.12,3.78-.12,4.84,0,2.24.12,2.71.12,6.49,0,6.02.12,11.33.12,17.58v4.37c0,1.42-.12,2.71-1.42,2.71-4.96,0-8.61-.12-14.4-.12h-2.12c-1.3,0-1.77-.47-1.77-2.01v-3.89c.12-11.68.59-22.54.59-36.22,0-7.2-.12-14.16-.12-21.24v-4.72c0-2.48-.12-4.48-.12-7.32v-8.38c0-.35.12-.59.12-.94.12-.71.35-.83.83-.83h1.06c.59,0,1.53-.12,2.36-.12,2.71,0,4.48-.12,6.61-.12,1.42,0,2.71.12,4.48.12,3.42.12,7.32.12,11.09.12h9.79c7.79.12,15.81.12,19.71,4.84,2.36,3.07,3.78,5.78,5.07,9.56.47,1.65.59,3.19.59,4.72,0,11.92-6.61,25.96-15.93,28.55-1.3.35-3.89.47-5.31.47-.12,0-.12.12-.12.24,0,1.18,5.9,8.26,7.79,11.45.35.71.47.94.83,1.53Zm-11.92-33.16c.59-.94.83-6.61.83-7.43,0-1.18-.47-2.24-1.53-3.07-2.95-2.01-6.84-2.83-10.5-2.83-2.6,0-3.66.59-4.25.94-.24.12-.24.35-.24.59v.12c0,1.3.12,2.95.12,4.6,0,1.18-.12,7.08-.12,8.26,0,.94.12,1.89.12,2.71.59.12,2.36.12,3.54.12h1.06c3.89-.35,1.53,0,6.37-.94,1.77-.35,3.42-1.3,4.6-3.07Z"/>
      <path class="cls-1" d="m278.95,167.25c-4.13,5.31-12.51,5.07-20.77,6.02h-1.53c-.12.47-.24.83-.24,1.06v.12c-.24,8.26-.35,12.98-.47,21.24v1.53c0,2.71.12,5.9.12,8.73v5.9c0,.24.12,1.18.12,1.3,0,1.06-1.06,1.18-2.12,1.18h-8.97c-1.65,0-3.78-.12-5.43-.12-.59,0-1.18-.12-1.77-.12-.24,0-.47-.12-.59-.24-.71-.35-1.18-.71-1.18-1.53v-.24c0-1.06.12-2.24.12-3.42v-1.3c.12-3.3.12-6.84.12-10.15v-.12c0-1.89-.12-3.78-.12-5.66,0-1.06,0-2.24.12-3.3.12-2.24.12-4.48.24-6.73.12-1.77.24-3.54.24-5.43,0-2.48-.12-4.84-.12-7.32,0-2.12,0-4.25-.12-6.25v-.83c0-1.18.12-2.48.12-3.66v-2.95c0-6.73-.12-12.86-.12-19.59v-3.66c0-1.89.12-4.13,1.06-4.13h.71c2.71-.12,6.61-.12,9.44-.24h.59c2.24,0,4.13-.24,6.25-.24h5.43c1.89,0,3.66,0,5.55.12,3.19.12,6.25.59,9.2,2.01.94.47,2.12.83,3.07,1.3,1.65.71,3.07,1.77,4.13,3.19.35.35.71.83,1.06,1.18,2.71,2.83,3.78,7.32,3.78,12.04,0,.94,0,1.89-.12,2.83-.47,5.43-2.24,10.86-4.6,13.69-1.06,1.3-2.01,2.6-3.19,3.78Zm-12.63-18.17c0-1.65-.83-2.83-2.24-3.89-1.06-.71-2.24-.94-3.54-.94-2.01,0-3.89,0-5.9.12-.47,0-.83.24-.94.71-.59,2.24-.35,5.07-.47,7.32v1.18c0,.71,0,1.53.12,2.36.59.12,1.06.12,1.53.12,1.53-.24,2.95-.35,4.48-.59,1.06-.24,2.24-.47,3.19-.94,2.12-.83,3.54-2.24,3.78-4.72v-.71Z"/>
      <path class="cls-1" d="m318.12,214.21h-1.53c-2.24,0-3.89-.24-6.14-.24h-1.06c-2.12.12-6.25.24-8.02.24-1.42,0-2.83-.12-4.25-.35-1.42-.24-2.71-.59-4.13-.94-.94-.24-1.42-.94-1.53-1.89-.12-.35-.12-.59-.12-.94,0-2.12-.12-4.25-.12-6.25v-14.75c0-4.01,0-8.02-.12-12.04-.24-4.72-.24-9.2-.24-13.57,0-6.61.12-12.98.12-19.94,0-4.6.12-9.68.12-14.4.12-.94.59-1.42,1.53-1.42,3.07,0,7.08.59,9.79.59,4.25.12,8.61.12,12.86.12,5.31,0,11.09-.12,16.17-.35h1.18c1.18,0,2.12.12,2.95.94.35.24.35,1.65.35,2.12v1.18c0,2.36.12,4.37.12,6.25,0,1.65,0,3.3-.24,5.43v4.48c.12,1.18.12,2.36.12,3.66,0,1.18-1.53,1.42-2.83,1.42-.83,0-1.65-.12-2.36-.12-3.89,0-9.32-.59-13.92-.59h-3.54c-.47.12-.83.35-.94.83,0,.12,0,.24-.12.35v4.6c0,.47,0,.83.12,1.3.24,0,4.01-.24,5.9-.24h6.84c1.06,0,2.12,0,3.54.12.83,0,1.42,0,2.24.12.59,0,2.12,0,2.6.24,1.18.35,1.65,2.95,1.65,4.37v1.77c0,4.01-.12,2.24-.12,6.73v.24c0,.47,0,.59-.35.94-.12.12-.83.24-1.06.24-5.78.24-11.45.35-17.58.35-1.06,0-2.01.24-2.95.47-.71.12-.94.47-.94,1.18-.12,2.36-.24,4.72-.24,7.08,0,.71.24.94.94.94,2.12.12,4.25.24,6.37.24h1.53c4.25,0,7.79.59,12.04.94.59.12,1.3,0,1.89.12,1.18.24,1.53.94,1.53,2.12,0,1.53.12,3.07.12,4.6v7.43c.12,3.07.24,7.32.35,10.38v1.3c0,1.3-.12,1.42-1.06,1.77-.35.12-.59.24-.94.24-3.78.35-8.38.47-12.86.47-1.18,0-2.24,0-3.66.12Z"/>
      <path class="cls-1" d="m369.33,214.21h-1.53c-2.24,0-3.89-.24-6.14-.24h-1.06c-2.12.12-6.25.24-8.02.24-1.42,0-2.83-.12-4.25-.35-1.42-.24-2.71-.59-4.13-.94-.94-.24-1.42-.94-1.53-1.89-.12-.35-.12-.59-.12-.94,0-2.12-.12-4.25-.12-6.25v-14.75c0-4.01,0-8.02-.12-12.04-.24-4.72-.24-9.2-.24-13.57,0-6.61.12-12.98.12-19.94,0-4.6.12-9.68.12-14.4.12-.94.59-1.42,1.53-1.42,3.07,0,7.08.59,9.79.59,4.25.12,8.61.12,12.86.12,5.31,0,11.09-.12,16.17-.35h1.18c1.18,0,2.12.12,2.95.94.35.24.35,1.65.35,2.12v1.18c0,2.36.12,4.37.12,6.25,0,1.65,0,3.3-.24,5.43v4.48c.12,1.18.12,2.36.12,3.66,0,1.18-1.53,1.42-2.83,1.42-.83,0-1.65-.12-2.36-.12-3.89,0-9.32-.59-13.92-.59h-3.54c-.47.12-.83.35-.94.83,0,.12,0,.24-.12.35v4.6c0,.47,0,.83.12,1.3.24,0,4.01-.24,5.9-.24h6.84c1.06,0,2.12,0,3.54.12.83,0,1.42,0,2.24.12.59,0,2.12,0,2.6.24,1.18.35,1.65,2.95,1.65,4.37v1.77c0,4.01-.12,2.24-.12,6.73v.24c0,.47,0,.59-.35.94-.12.12-.83.24-1.06.24-5.78.24-11.45.35-17.58.35-1.06,0-2.01.24-2.95.47-.71.12-.94.47-.94,1.18-.12,2.36-.24,4.72-.24,7.08,0,.71.24.94.94.94,2.12.12,4.25.24,6.37.24h1.53c4.25,0,7.79.59,12.04.94.59.12,1.3,0,1.89.12,1.18.24,1.53.94,1.53,2.12,0,1.53.12,3.07.12,4.6v7.43c.12,3.07.24,7.32.35,10.38v1.3c0,1.3-.12,1.42-1.06,1.77-.35.12-.59.24-.94.24-3.78.35-8.38.47-12.86.47-1.18,0-2.24,0-3.66.12Z"/>
    </g>
    <g>
      <path class="cls-2" d="m76.78,73.22c0,1.26,0,2.38-.14,3.36-.28,2.24-.7,4.34-1.4,6.44-.42,1.12-.98,2.1-1.54,3.22-.42.84-.98,1.54-1.54,2.38-1.54,2.52-3.08,5.04-5.32,7-.84.7-1.68,1.68-2.52,2.52-1.26,1.12-2.8,1.96-4.48,2.66-2.8,1.26-5.74,2.1-8.68,2.66-2.66.42-5.46.56-8.4.56-2.66,0-5.6-.14-8.4-.14-5.04,0-8.12.14-12.6.14h-1.82c-.98,0-1.54-.14-2.52-.28-2.38-.42-4.62-.42-6.72-1.12-1.96-.56-2.66-.98-2.94-3.78l-.42-4.62c0-2.8-.14-5.46-.14-8.26.14-2.8.28-5.46.28-8.4,0-21.7-1.12-45.08-1.12-66.22,0-1.96,0-4.06.28-6.02.14-.98,0-1.96.14-2.94.14-.98.56-1.4,1.26-1.4h.28c11.62-.14,18.2-.14,29.82-.42,4.06-.14,7-.42,10.36-.56h.84c3.5,0,8.4.84,11.48,1.82,1.96.56,4.06,1.54,5.46,3.22.98,1.12,2.1,2.1,3.08,3.22,1.26,1.26,2.1,2.66,2.8,4.34,2.1,4.9,2.66,9.1,2.94,14v2.1c0,9.8-2.66,14.28-9.24,19.88-.42.42-1.12.7-1.26,1.4.42.84,1.26,1.12,1.96,1.54,1.96.84,3.36,2.1,4.9,3.36,1.26.98,1.96,2.38,2.52,3.64,1.4,3.5,2.38,7,2.66,10.92.14,1.4.14,2.52.14,3.78Zm-43.68-30.52h2.94c1.4,0,5.18,0,6.58-.28,2.66-.42,3.92-2.24,4.76-4.48.28-1.4.42-3.08.42-4.9,0-1.68-.14-3.5-.14-4.9v-.7c-.14-1.68-2.52-2.8-4.34-2.94-.98-.14-4.62-.28-5.74-.28-.7,0-1.54.14-2.38.14-.56,0-1.4.14-1.96.56-.14,1.12-.28,2.24-.56,3.36-.14.84-.14,1.68-.14,2.52v1.68c.14,2.66.14,5.32.28,7.98,0,.56.14,1.4.28,2.24Zm13.3,27.02c0-.98,0-1.82-.14-2.8-.28-2.1-3.22-3.78-5.32-4.06h-.7c-1.68,0-3.5.56-5.18.84-.7.14-.98.42-.98,1.26,0,.7.14,2.8.14,4.62.14,3.08.14,4.48.14,7.98v2.24c.14.28.42.7.84.7h.14c5.6,0,11.06-.28,11.06-6.58v-4.2Z"/>
      <path class="cls-2" d="m81.96,77.14c.56-1.4,2.38-14,2.66-15.54.28-1.26.56-2.38.84-3.64.7-2.24.98-9.94,1.68-12.04.28-.84.42-1.54.42-2.24.56-3.78,1.4-8.26,2.24-13.16.28-1.68.42-3.5.84-5.32.56-3.5,1.4-7.28,2.1-11.06.98-3.92,1.96-7.14,2.94-11.34.14-.56.56-.7,1.26-.7h2.1c.98-.28,4.34-.42,7.7-.42,3.78,0,7.56.14,8.68.28.84,0,1.54.14,2.1.14,1.82,0,4.06-.14,6.3-.14,3.92,0,7.98.28,10.22,1.68.28.42.28.7.28,1.12.98,4.06.7,5.18,1.96,9.1.42,1.68,1.12,6.02,1.54,7.56.7,3.64,1.4,7.14,2.24,10.78.42,1.96.7,3.92,1.26,5.88,3.36,14.28,5.88,28.7,9.52,42.42.28,1.68.42,2.52.84,4.2v.28c.56,2.52.98,4.2,1.54,6.86,0,.14,1.12,6.3,1.12,6.44.14.14.84,4.62.84,4.76v.28c0,.7-1.26.84-2.8.84-1.4,0-3.22-.14-4.76-.14h-.84c-2.52.14-7.42.14-9.94.14h-10.64c-.84,0-1.4-5.32-2.1-8.96-.7-3.22-1.26-7.28-1.4-8.4-.28-2.1-.56-4.2-.98-6.16-.14-.42-.28-.84-.28-1.26-.56-3.92-.98-6.3-1.82-10.22-.14-.98-.56-1.54-1.54-1.68-.42-.14-6.72-.42-7.28-.42-.7-.14-1.54-.28-2.24-.28-.84,0-1.68.14-2.66.28-.98.14-.98,7.28-1.12,10.08-.14,2.1-.14,4.48-.28,7,0,2.52-.14,5.04-.14,7.42-.14,1.82-.14,3.5-.28,4.9,0,1.68-.14,2.94-.14,4.06-.28,2.66-.56,3.22-2.38,3.36-1.54.14-7,.14-11.62.56-1.4.28-2.8.14-4.06.28h-2.8c-.56.14-1.12.14-1.54.14-2.38,0-3.08-.56-3.08-2.1,0-.7.14-1.54.28-2.66,1.12-7.42,2.8-21.56,3.22-22.96Zm35.84-24.08c-1.4-10.5-2.1-16.38-3.5-26.88-.14-.42,0-.84-.42-.98-.42-.28-1.26-.7-1.96-.7h-.14c-.42,0-.84.14-.84.28-.7,3.64-3.78,24.92-3.92,28.56v.14c0,.42,0,.7.14.98.14.28.42.56.84.56h.14c.98-.14,3.08-.14,4.9-.14h2.94c1.54,0,2.24-.42,1.82-1.82Z"/>
      <path class="cls-2" d="m218.04,74.48c3.08,5.88,7.7,12.6,10.36,17.78.84,1.4,1.54,2.8,2.1,4.2.7,1.4,1.26,2.94,1.96,4.48.14.28.14.42.14.7,0,.42-.14.7-.42,1.12-.28.56-3.08,1.68-5.46,1.68h-.42c-1.68-.14-5.46-.28-7.28-.28-1.26,0-2.1-.14-3.36-.14-1.4,0-2.8.42-3.92.42-.42,0-.7-.14-.98-.28-.7-.7-1.82-3.5-3.5-6.58-.56-1.12-1.26-2.24-1.68-3.22-1.68-3.36-4.06-6.72-5.74-9.94-1.4-2.52-2.8-5.18-4.2-7.7-1.12-1.82-2.24-3.64-3.36-5.6-.7-1.12-6.86-11.48-9.38-13.02,0,.56-.14,2.24-.14,2.52-.14,2.8-.14,4.48-.14,5.74,0,2.66.14,3.22.14,7.7,0,7.14.14,13.44.14,20.86v5.18c0,1.68-.14,3.22-1.68,3.22-5.88,0-10.22-.14-17.08-.14h-2.52c-1.54,0-2.1-.56-2.1-2.38v-4.62c.14-13.86.7-26.74.7-42.98,0-8.54-.14-16.8-.14-25.2v-5.6c0-2.94-.14-5.32-.14-8.68V3.78c0-.42.14-.7.14-1.12.14-.84.42-.98.98-.98h1.26c.7,0,1.82-.14,2.8-.14,3.22,0,5.32-.14,7.84-.14,1.68,0,3.22.14,5.32.14,4.06.14,8.68.14,13.16.14h11.62c9.24.14,18.76.14,23.38,5.74,2.8,3.64,4.48,6.86,6.02,11.34.56,1.96.7,3.78.7,5.6,0,14.14-7.84,30.8-18.9,33.88-1.54.42-4.62.56-6.3.56-.14,0-.14.14-.14.28,0,1.4,7,9.8,9.24,13.58.42.84.56,1.12.98,1.82Zm-14.14-39.34c.7-1.12.98-7.84.98-8.82,0-1.4-.56-2.66-1.82-3.64-3.5-2.38-8.12-3.36-12.46-3.36-3.08,0-4.34.7-5.04,1.12-.28.14-.28.42-.28.7v.14c0,1.54.14,3.5.14,5.46,0,1.4-.14,8.4-.14,9.8,0,1.12.14,2.24.14,3.22.7.14,2.8.14,4.2.14h1.26c4.62-.42,1.82,0,7.56-1.12,2.1-.42,4.06-1.54,5.46-3.64Z"/>
      <path class="cls-2" d="m252.9,33.74c-1.82,0-2.8.56-5.46.56-1.68.14-1.96.14-3.5.14-.28,0-.7,0-.98-.14l-2.52-.42c-.42,0-.98-.14-1.26-.28-.84-.56-1.26-1.12-1.26-1.96,0-10.22.28-9.24.28-20.3v-5.6c0-1.68.14-2.52.42-4.2,0-1.12.84-1.12,1.54-1.12h5.32c2.38-.14,4.76-.28,7-.28,1.54,0,4.06.14,5.46.14,1.68.14,3.22.14,4.9.14,3.36.14,6.86,0,10.22.28,3.36.42,7.98.28,11.34.42,2.1.28,4.34.28,6.44.28.7,0,1.54.14,1.82.56.84.98.7,1.96.84,3.36.14,1.68.28,3.22.28,4.76s-.14,3.08-.28,4.76v2.8c0,8.96.7,5.32.7,14.56,0,0,0,.28-.14.28-.28.84-1.82,1.12-3.64,1.12-3.22,0-2.52,0-5.46.14-.98,0-1.82.14-2.52.14h-.56c-.56-.14-.98-.14-1.4-.14-1.26,0-1.82.28-1.96.98-.98,2.66-1.12,5.6-1.12,8.54,0,1.4.28,2.52.28,4.06.14.56.14,1.12.14,1.82,0,8.4-.28,13.58-.28,22.54v7.42c0,5.88-.14,11.9-.14,18.06,0,1.4,0,2.66.14,4.06,0,.7,0,1.12.14,1.68,0,.7-.28.98-.84,1.12-1.26.14-2.52.28-3.78.28-1.82,0-3.64-.14-5.46-.14-2.24-.14-3.08-.14-5.46-.42-2.1-.28-5.88-.28-6.3-1.26-.14-.28-.42-1.4-.42-1.82h.14v-14.84c0-5.18-.14-9.52-.28-15.54q-.14-.14-.14-.28s0-.14.14-.28c.14-10.78.28-14.56.28-27.58,0-1.96.28-3.92.28-6.02v-1.12c0-.42-.14-.84-.56-.98-.98-.14-1.82-.28-2.38-.28Z"/>
      <path class="cls-2" d="m317.16,34.72c-2.52,2.38-5.6,3.78-9.1,4.34-.28,0-.7.14-1.12.14-2.66,0-5.46-1.82-6.58-3.92-.7-1.26-.56-2.66-.28-3.92.14-.28.42-.42.56-.56.84-.42,1.54-.84,2.38-.98,1.26-.28,2.1-.98,2.94-1.82.7-.56.7-1.26,0-1.82-.84-.84-1.68-1.54-2.52-2.24-1.54-1.12-2.8-2.52-3.5-4.34-.14-.42-.28-.84-.56-1.26-.56-1.26-.84-2.52-.84-3.78,0-7.28,7.84-12.32,14.98-12.32,4.62.14,8.12,2.8,9.66,8.96.7,2.52,1.12,5.04,1.12,8.54-.28,5.32-2.38,10.78-7.14,14.98Z"/>
      <path class="cls-2" d="m364.9,35.84c-1.12.98-1.68,2.1-1.68,3.5,0,.42,0,.84.14,1.26.42,1.96,1.12,3.64,2.94,4.9,2.38,1.54,4.76,2.94,7.28,4.34,4.34,2.38,8.68,4.9,12.6,8.12,3.36,2.52,6.58,6.44,8.54,11.06,1.26,2.94,1.96,6.16,1.96,9.66,0,.98,0,1.82-.14,2.8-.84,8.54-5.6,16.24-12.46,19.46-2.94,1.26-5.46,1.54-9.1,2.24-4.48.84-9.24,1.12-14.28,1.12-4.76,0-9.52-.14-13.86-.28-3.92-.14-9.66-.28-13.3-1.4-1.54-.42-2.8-.7-3.92-1.54-.56-.42-.84-1.12-.84-1.68-.14-.56-.14-1.12-.14-1.68,0-2.66-.14-5.32-.14-7.98v-7.98c0-1.26-.14-2.38-.14-3.64,0-1.96-.14-3.22-.14-4.2,0-1.68.42-1.82,2.8-2.24.56-.14,2.24-.14,2.8-.14,4.48,0,8.82.14,13.44.14h3.22c1.54,0,3.92-.42,3.92-.42.42-.14.84-.28,1.26-.56,1.68-.98,3.22-2.1,4.62-3.5,1.12-1.12,1.68-2.52,1.68-3.92,0-2.52-2.24-4.76-4.9-6.72-3.22-2.24-7-3.92-9.24-4.76-1.96-.7-4.06-1.26-6.02-2.24-3.08-1.54-6.02-3.64-8.26-6.44-1.54-1.82-2.94-3.92-3.64-6.16-.7-1.96-.98-3.78-1.54-6.16-.14-.84-.14-1.54-.14-2.24,0-.98,0-1.96.28-3.08.28-1.26.56-2.1.84-3.36.14-.42.14-.56.28-.98,3.78-7.56,8.54-12.46,16.1-16.24.56-.28.98-.42,1.54-.7,6.02-2.1,13.44-2.66,21.14-2.66h7.7c4.9,0,11.06.14,15.54.84.84.14,2.66.14,3.22.98.98.98,1.26,1.82,1.54,3.22.14.84,0,1.68.14,2.66v5.88c0,1.96.14,4.06.14,6.02,0,7.56-.14,1.82-.14,9.38,0,.42,0,.98-.14,1.4-.14.98-1.12,1.12-2.24,1.12h-2.8c-1.12,0-3.36.14-5.74.14h-2.1c-1.54-.14-3.36-.14-5.18-.14-1.96,0-3.78,0-5.46.28-4.34.56-5.04-.14-7.98,2.52Z"/>
      <path class="cls-2" d="m36.72,151.58c-.94.83-1.42,1.77-1.42,2.95,0,.35,0,.71.12,1.06.35,1.65.94,3.07,2.48,4.13,2.01,1.3,4.01,2.48,6.14,3.66,3.66,2.01,7.32,4.13,10.62,6.84,2.83,2.12,5.55,5.43,7.2,9.32,1.06,2.48,1.65,5.19,1.65,8.14,0,.83,0,1.53-.12,2.36-.71,7.2-4.72,13.69-10.5,16.4-2.48,1.06-4.6,1.3-7.67,1.89-3.78.71-7.79.94-12.04.94-4.01,0-8.02-.12-11.68-.24-3.3-.12-8.14-.24-11.21-1.18-1.3-.35-2.36-.59-3.3-1.3-.47-.35-.71-.94-.71-1.42-.12-.47-.12-.94-.12-1.42,0-2.24-.12-4.48-.12-6.73v-6.73c0-1.06-.12-2.01-.12-3.07,0-1.65-.12-2.71-.12-3.54,0-1.42.35-1.53,2.36-1.89.47-.12,1.89-.12,2.36-.12,3.78,0,7.43.12,11.33.12h2.71c1.3,0,3.3-.35,3.3-.35.35-.12.71-.24,1.06-.47,1.42-.83,2.71-1.77,3.89-2.95.94-.94,1.42-2.12,1.42-3.3,0-2.12-1.89-4.01-4.13-5.66-2.71-1.89-5.9-3.3-7.79-4.01-1.65-.59-3.42-1.06-5.07-1.89-2.6-1.3-5.07-3.07-6.96-5.43-1.3-1.53-2.48-3.3-3.07-5.19-.59-1.65-.83-3.19-1.3-5.19-.12-.71-.12-1.3-.12-1.89,0-.83,0-1.65.24-2.6.24-1.06.47-1.77.71-2.83.12-.35.12-.47.24-.83,3.19-6.37,7.2-10.5,13.57-13.69.47-.24.83-.35,1.3-.59,5.07-1.77,11.33-2.24,17.82-2.24h6.49c4.13,0,9.32.12,13.1.71.71.12,2.24.12,2.71.83.83.83,1.06,1.53,1.3,2.71.12.71,0,1.42.12,2.24v4.96c0,1.65.12,3.42.12,5.07,0,6.37-.12,1.53-.12,7.91,0,.35,0,.83-.12,1.18-.12.83-.94.94-1.89.94h-2.36c-.94,0-2.83.12-4.84.12h-1.77c-1.3-.12-2.83-.12-4.37-.12-1.65,0-3.19,0-4.6.24-3.66.47-4.25-.12-6.73,2.12Z"/>
      <path class="cls-2" d="m109.29,198.19c0,1.89,0,3.78-.24,5.66-.12,1.18.12,2.24-.35,3.3-.47,1.06-1.3,1.65-2.36,1.65-1.18,0-2.24-.12-3.42-.12-2.95,0-6.02.24-8.97.24h-1.18c-1.42-.12-2.83-.12-4.25-.12s-2.95,0-4.37.12c-1.06.12-2.01.12-3.07.12l-7.2-.35c-.71-.12-1.53-.12-2.24-.24-1.18-.24-1.53-.71-1.53-1.89-.24-3.78-.24-8.61-.24-12.74v-5.9c0-14.99,0-29.5-.71-44.25-.12-5.19-.71-11.33-.71-17.46,0-.24.12-.59.12-.83.12-.71,0-1.3.83-1.53.24-.12.59-.12.83-.12h2.24c.59.12,1.06.12,1.65.12,5.66,0,2.48-.35,8.61-.35.47.12,1.42,0,2.24.12.83.12,1.42,0,2.12.35.71.47.94.71.94,1.3,0,.24,0,.47-.12.83-.12,1.42-.24,2.95-.24,4.48-.24,3.3-.35,6.61-.35,9.91,0,4.6.12,9.2.12,13.81v3.54c-.12,3.78-.35,14.63-.35,18.53,0,1.42,0,2.48.12,2.95.12.83.35,1.77.59,2.71.35,1.06,1.06,1.65,2.24,1.77,1.42.24,2.83.24,4.25.24h2.95c2.6,0,4.01-.24,6.49-.47,1.06,0,2.36-.12,3.3-.12,1.42,0,2.24.35,2.24,1.89v.35c-.12,1.18-.12,2.12-.12,3.07,0,1.77.12,3.42.12,5.66v3.78Z"/>
      <path class="cls-2" d="m135.84,129.51c0,12.86-1.18,20.77-1.18,34.69v.24c0,1.3-.12,2.83-.12,4.13v1.65c0,4.84.12,9.79,3.19,11.8.83.59,2.24,1.18,3.78,1.18,1.42,0,2.83-.47,3.78-1.53.12-.24.35-.35.47-.59,1.77-2.24,3.54-6.61,3.54-12.98v-.59c0-12.98.83-25.02.83-37.41v-6.49c0-.47.59-.47,1.06-.47h.71c8.26.24,9.68.24,17.94,1.18,1.06.12,1.06,1.3,1.06,2.48v1.53c0,4.96-.47,8.61-.47,13.69v1.53c.12.71.12,1.53.12,2.12,0,4.48-.12,9.2-.12,13.69v.83c0,3.07-.24,7.43-.47,10.5-.24,1.77-.12,3.78-.24,5.66-.24,2.83-.24,5.78-.47,8.61-1.77,14.16-6.49,21.24-19.12,24.43-.35,0-.83.24-1.3.35-3.42.83-6.96,1.53-10.74,1.53-1.42,0-2.95-.12-4.48-.35-2.24-.35-4.37-.94-6.25-2.01-5.78-2.83-9.09-8.38-10.97-15.22-2.71-9.68-2.6-21.95-2.83-33.63v-8.73c0-4.25.12-8.61.12-12.74v-2.6c0-4.01-.12-7.67-.12-11.56,0-.59.24-1.06.83-1.18.94-.12,1.77-.24,2.6-.24h15.69c1.06,0,2.24,0,2.71,1.06.12.47.47,1.53.47,2.24v3.19Z"/>
      <path class="cls-2" d="m225.05,184.14c2.6,4.96,6.49,10.62,8.73,14.99.71,1.18,1.3,2.36,1.77,3.54.59,1.18,1.06,2.48,1.65,3.78.12.24.12.35.12.59,0,.35-.12.59-.35.94-.24.47-2.6,1.42-4.6,1.42h-.35c-1.42-.12-4.6-.24-6.14-.24-1.06,0-1.77-.12-2.83-.12-1.18,0-2.36.35-3.3.35-.35,0-.59-.12-.83-.24-.59-.59-1.53-2.95-2.95-5.55-.47-.94-1.06-1.89-1.42-2.71-1.42-2.83-3.42-5.66-4.84-8.38-1.18-2.12-2.36-4.37-3.54-6.49-.94-1.53-1.89-3.07-2.83-4.72-.59-.94-5.78-9.68-7.91-10.97,0,.47-.12,1.89-.12,2.12-.12,2.36-.12,3.78-.12,4.84,0,2.24.12,2.71.12,6.49,0,6.02.12,11.33.12,17.58v4.37c0,1.42-.12,2.71-1.42,2.71-4.96,0-8.61-.12-14.4-.12h-2.12c-1.3,0-1.77-.47-1.77-2.01v-3.89c.12-11.68.59-22.54.59-36.22,0-7.2-.12-14.16-.12-21.24v-4.72c0-2.48-.12-4.48-.12-7.32v-8.38c0-.35.12-.59.12-.94.12-.71.35-.83.83-.83h1.06c.59,0,1.53-.12,2.36-.12,2.71,0,4.48-.12,6.61-.12,1.42,0,2.71.12,4.48.12,3.42.12,7.32.12,11.09.12h9.79c7.79.12,15.81.12,19.71,4.84,2.36,3.07,3.78,5.78,5.07,9.56.47,1.65.59,3.19.59,4.72,0,11.92-6.61,25.96-15.93,28.55-1.3.35-3.89.47-5.31.47-.12,0-.12.12-.12.24,0,1.18,5.9,8.26,7.79,11.45.35.71.47.94.83,1.53Zm-11.92-33.16c.59-.94.83-6.61.83-7.43,0-1.18-.47-2.24-1.53-3.07-2.95-2.01-6.84-2.83-10.5-2.83-2.6,0-3.66.59-4.25.94-.24.12-.24.35-.24.59v.12c0,1.3.12,2.95.12,4.6,0,1.18-.12,7.08-.12,8.26,0,.94.12,1.89.12,2.71.59.12,2.36.12,3.54.12h1.06c3.89-.35,1.53,0,6.37-.94,1.77-.35,3.42-1.3,4.6-3.07Z"/>
      <path class="cls-2" d="m284.75,162.08c-4.13,5.31-12.51,5.07-20.77,6.02h-1.53c-.12.47-.24.83-.24,1.06v.12c-.24,8.26-.35,12.98-.47,21.24v1.53c0,2.71.12,5.9.12,8.73v5.9c0,.24.12,1.18.12,1.3,0,1.06-1.06,1.18-2.12,1.18h-8.97c-1.65,0-3.78-.12-5.43-.12-.59,0-1.18-.12-1.77-.12-.24,0-.47-.12-.59-.24-.71-.35-1.18-.71-1.18-1.53v-.24c0-1.06.12-2.24.12-3.42v-1.3c.12-3.3.12-6.84.12-10.15v-.12c0-1.89-.12-3.78-.12-5.66,0-1.06,0-2.24.12-3.3.12-2.24.12-4.48.24-6.73.12-1.77.24-3.54.24-5.43,0-2.48-.12-4.84-.12-7.32,0-2.12,0-4.25-.12-6.25v-.83c0-1.18.12-2.48.12-3.66v-2.95c0-6.73-.12-12.86-.12-19.59v-3.66c0-1.89.12-4.13,1.06-4.13h.71c2.71-.12,6.61-.12,9.44-.24h.59c2.24,0,4.13-.24,6.25-.24h5.43c1.89,0,3.66,0,5.55.12,3.19.12,6.25.59,9.2,2.01.94.47,2.12.83,3.07,1.3,1.65.71,3.07,1.77,4.13,3.19.35.35.71.83,1.06,1.18,2.71,2.83,3.78,7.32,3.78,12.04,0,.94,0,1.89-.12,2.83-.47,5.43-2.24,10.86-4.6,13.69-1.06,1.3-2.01,2.6-3.19,3.78Zm-12.63-18.17c0-1.65-.83-2.83-2.24-3.89-1.06-.71-2.24-.94-3.54-.94-2.01,0-3.89,0-5.9.12-.47,0-.83.24-.94.71-.59,2.24-.35,5.07-.47,7.32v1.18c0,.71,0,1.53.12,2.36.59.12,1.06.12,1.53.12,1.53-.24,2.95-.35,4.48-.59,1.06-.24,2.24-.47,3.19-.94,2.12-.83,3.54-2.24,3.78-4.72v-.71Z"/>
      <path class="cls-2" d="m323.93,209.04h-1.53c-2.24,0-3.89-.24-6.14-.24h-1.06c-2.12.12-6.25.24-8.02.24-1.42,0-2.83-.12-4.25-.35-1.42-.24-2.71-.59-4.13-.94-.94-.24-1.42-.94-1.53-1.89-.12-.35-.12-.59-.12-.94,0-2.12-.12-4.25-.12-6.25v-14.75c0-4.01,0-8.02-.12-12.04-.24-4.72-.24-9.2-.24-13.57,0-6.61.12-12.98.12-19.94,0-4.6.12-9.68.12-14.4.12-.94.59-1.42,1.53-1.42,3.07,0,7.08.59,9.79.59,4.25.12,8.61.12,12.86.12,5.31,0,11.09-.12,16.17-.35h1.18c1.18,0,2.12.12,2.95.94.35.24.35,1.65.35,2.12v1.18c0,2.36.12,4.37.12,6.25,0,1.65,0,3.3-.24,5.43v4.48c.12,1.18.12,2.36.12,3.66,0,1.18-1.53,1.42-2.83,1.42-.83,0-1.65-.12-2.36-.12-3.89,0-9.32-.59-13.92-.59h-3.54c-.47.12-.83.35-.94.83,0,.12,0,.24-.12.35v4.6c0,.47,0,.83.12,1.3.24,0,4.01-.24,5.9-.24h6.84c1.06,0,2.12,0,3.54.12.83,0,1.42,0,2.24.12.59,0,2.12,0,2.6.24,1.18.35,1.65,2.95,1.65,4.37v1.77c0,4.01-.12,2.24-.12,6.73v.24c0,.47,0,.59-.35.94-.12.12-.83.24-1.06.24-5.78.24-11.45.35-17.58.35-1.06,0-2.01.24-2.95.47-.71.12-.94.47-.94,1.18-.12,2.36-.24,4.72-.24,7.08,0,.71.24.94.94.94,2.12.12,4.25.24,6.37.24h1.53c4.25,0,7.79.59,12.04.94.59.12,1.3,0,1.89.12,1.18.24,1.53.94,1.53,2.12,0,1.53.12,3.07.12,4.6v7.43c.12,3.07.24,7.32.35,10.38v1.3c0,1.3-.12,1.42-1.06,1.77-.35.12-.59.24-.94.24-3.78.35-8.38.47-12.86.47-1.18,0-2.24,0-3.66.12Z"/>
      <path class="cls-2" d="m375.14,209.04h-1.53c-2.24,0-3.89-.24-6.14-.24h-1.06c-2.12.12-6.25.24-8.02.24-1.42,0-2.83-.12-4.25-.35-1.42-.24-2.71-.59-4.13-.94-.94-.24-1.42-.94-1.53-1.89-.12-.35-.12-.59-.12-.94,0-2.12-.12-4.25-.12-6.25v-14.75c0-4.01,0-8.02-.12-12.04-.24-4.72-.24-9.2-.24-13.57,0-6.61.12-12.98.12-19.94,0-4.6.12-9.68.12-14.4.12-.94.59-1.42,1.53-1.42,3.07,0,7.08.59,9.79.59,4.25.12,8.61.12,12.86.12,5.31,0,11.09-.12,16.17-.35h1.18c1.18,0,2.12.12,2.95.94.35.24.35,1.65.35,2.12v1.18c0,2.36.12,4.37.12,6.25,0,1.65,0,3.3-.24,5.43v4.48c.12,1.18.12,2.36.12,3.66,0,1.18-1.53,1.42-2.83,1.42-.83,0-1.65-.12-2.36-.12-3.89,0-9.32-.59-13.92-.59h-3.54c-.47.12-.83.35-.94.83,0,.12,0,.24-.12.35v4.6c0,.47,0,.83.12,1.3.24,0,4.01-.24,5.9-.24h6.84c1.06,0,2.12,0,3.54.12.83,0,1.42,0,2.24.12.59,0,2.12,0,2.6.24,1.18.35,1.65,2.95,1.65,4.37v1.77c0,4.01-.12,2.24-.12,6.73v.24c0,.47,0,.59-.35.94-.12.12-.83.24-1.06.24-5.78.24-11.45.35-17.58.35-1.06,0-2.01.24-2.95.47-.71.12-.94.47-.94,1.18-.12,2.36-.24,4.72-.24,7.08,0,.71.24.94.94.94,2.12.12,4.25.24,6.37.24h1.53c4.25,0,7.79.59,12.04.94.59.12,1.3,0,1.89.12,1.18.24,1.53.94,1.53,2.12,0,1.53.12,3.07.12,4.6v7.43c.12,3.07.24,7.32.35,10.38v1.3c0,1.3-.12,1.42-1.06,1.77-.35.12-.59.24-.94.24-3.78.35-8.38.47-12.86.47-1.18,0-2.24,0-3.66.12Z"/>
    </g>
  </g>
</svg>