<?xml version="1.0" encoding="UTF-8"?>
<svg id="Layer_2" data-name="Layer 2" xmlns="http://www.w3.org/2000/svg" viewBox="0 0 267.23 204.81">
  <defs>
    <style>
      .cls-1, .cls-2 {
        stroke-width: 0px;
      }

      .cls-2 {
        fill: #fff;
      }
    </style>
  </defs>
  <g id="good_morning_burger_logo" data-name="good morning burger logo">
    <g>
      <g>
        <path class="cls-1" d="m11.12,58.24c-2.01-.22-3.66-.86-5.09-1.94-2.8-2.15-4.45-5.81-4.95-9.69-.29-1.72-.43-3.52-.57-5.38-.14-1.29-.22-2.66-.29-3.95-.07-2.22-.14-4.31-.22-6.39v-1.58c0-2.87.14-5.67.5-8.32.36-3.16,1.08-6.1,2.15-8.61,1-2.44,2.44-4.52,4.31-6.03,1.51-1.22,3.37-2.08,5.52-2.51,1.58-.29,3.16-.43,4.74-.43,1.72,0,3.44.22,5.09.5.72.14,1.15.22,1.87.5,1.51.57,2.37.79,3.73,1.58.65.36,1.08.72,1.51,1.36,1.15,1.65,1.94,2.87,2.44,4.52.07.22.14.43.14.65.07.72.14,1.43.14,2.22v1.94c0,.43,0,.79-.07,1.22,0,.5-.07,1.08-.07,1.58l-.14,2.08c-.14,1.22-.29,2.66-.43,3.87-.07.43-.07.86-.07,1.29s-.07.57-.57.65c-.29.14-.57.22-.86.22-3.23.29-5.67.43-8.83.43-1.58,0-3.3-.22-3.3-1.36,0-.57.07-.79.07-1.29v-.72c.07-2.8.57-4.23.57-6.82v-.72c0-.29,0-.5-.14-.86-.22-.72-.72-1.15-1.43-1.15-.14,0-.36,0-.5.07-.43.14-.79.36-1.22.57-.57.43-1,.93-1.44,1.58-.86,1.29-1.72,2.94-1.87,4.52-.29,1.79-.43,4.02-.43,5.81v2.08c0,3.66.22,9.61,2.65,9.61,2.8,0,3.16-1.87,3.23-2.22.14-.86.43-3.37.43-4.16v-.57c.07-.5.43-.79.93-.79,4.09,0,8.54.07,12.2.36.65.14.93.5,1.08,1.15.07.43.14.86.14,1.29,0,.22-.07.36-.07.57-.07.93-.07,1.94-.07,2.87-.07.72-.14,1.44-.14,2.15-.07.93-.22,1.87-.22,2.8,0,1.15-.14,2.37-.36,3.44,0,.21-.07.43-.07.65,0,3.09-2.3,6.31-4.09,7.82-.22.14-.36.36-.57.5-1.29,1.15-2.87,1.72-4.45,2.22-2.22.65-3.44.86-5.67,1.08h-.36l-2.01-.07c-1-.07-1.94-.14-2.87-.21Z"/>
        <path class="cls-1" d="m70.39,49.27c.29,1.22.36,1.44.65,2.58.29,1.08.65,1.94.86,2.87.07.29.07.5.07.72,0,.57-.36.86-.86,1-.79.29-1.43.36-2.08.36-.72,0-1.43-.07-2.3-.07h-.5c-2.22.14-3.87.29-5.96.29-.22,0-.43-.07-.57-.14-.22-.14-.36-.57-.43-1-.07-.14-.07-.29-.14-.5,0-.07-.07-.21-.07-.29-1.22-4.74-1.29-6.74-2.15-11.05-.86-4.31-.14-1.36-.86-3.95-.07-.21-.22-.36-.36-.5-.29,0-1.29,0-1.65-.07-.72,0-1.36-.07-2.15-.07h-.72c-.5,0-.86-.07-1.36-.07-.36,0-.79.07-1.44.07-.29.29-.57.14-.72.65-.43,2.08-.5,3.23-.86,5.31-.22,1.65-.36,2.8-.57,4.16-.14,1.65-.29,2.94-.5,4.66l-.22,1.29c-.07.29-.22.57-.36.79-.22.14-.43.36-.65.36-.65.22-1.51.29-2.37.29s-1.87-.07-2.65-.07h-1.65c-.65,0-1.36.07-2.15.07-1.15,0-2.22-.14-2.8-.57-.07-.07-.07-.14-.07-.21,0-.22.07-.43.07-.57.07-.29.07-.57.14-.86.29-1.36.57-2.44.72-3.52,0-.21.07-.65.22-.79.43-4.16,1.22-7.53,2.15-12.34,1.65-8.75,2.94-15.07,4.38-22.32.57-2.94,1.58-5.96,1.94-9.4.07-.72.29-.65.72-.86h.65c.86-.22,1.51-.29,2.44-.5.43,0,.93-.14,1.44-.22.36,0,4.09-.07,6.31-.07h1.43c1.36.14,2.66.43,3.95.57.22.07.43.14.57.36.22.36.43.72.5,1.08.5,1.87.79,3.73,1.22,5.6.22,1.29.5,2.66.86,3.87,1.29,3.8,1.72,7.39,2.65,11.55.43,2.01.79,4.16,1.22,6.17.57,2.87,1.51,5.02,2.22,8.25.22,1.22.43,2.15.79,3.59.36,1.36.72,2.3,1,3.52Zm-16.36-19.23c0-.07.07-.07.07-.14,0-.14.07-.22.07-.36,0-1.44-.72-3.66-1.22-6.67-.29-2.15-.5-4.31-.93-7.03-.07-.29-.14-.36-.29-.36s-.22.07-.36.07c-.07,0-.65.07-.79.79-1.08,5.02-1.58,11.34-1.58,13.06v.36c.07.07.07.14.07.22,0,.36.93.43,1.65.43h.79c.79-.07,2.01-.22,2.01-.22.14-.07.5,0,.5-.14Z"/>
        <path class="cls-1" d="m112.87,57.16h-3.95c-.65,0-1.22-.07-1.87-.07-1.15,0-2.3.07-3.59.07-2.08,0-2.51-3.44-3.95-5.45-.65-1.15-1.08-1.72-1.72-2.87-.93-1.79-1.36-2.8-2.44-4.66-.29-.5-.43-.86-.79-1.36-1.44-2.08-2.15-4.38-3.87-6.96-.14-.22-.29-.43-.5-.65-.79,1.08-.65,2.8-.79,4.38v3.09c0,2.44-.07,3.73-.07,6.17v6.31c0,1.08-.79,1.65-1.87,1.65h-.22c-1.22-.07-2.22-.07-3.09-.07-2.94,0-4.59.29-8.83.29h-.14c-.57,0-.86-.29-.86-.79,0-3.01.14-6.67.14-10.19,0-5.24-.14-10.05-.14-15.36,0-1.65-.07-2.8-.07-4.09,0-2.15.07-4.52.07-6.82V5.78c.07-.65,1.72-1,2.3-1.08,1.22-.14,2.37-.43,3.59-.43.79,0,5.88-.07,6.67-.07,4.88,0,9.83.36,14.64.36,1.65.07,4.23.36,6.31,1.36,1.94.93,3.16,2.51,4.31,4.23,1.51,2.15,2.8,4.3,2.8,7.89,0,1-.07,3.95-.65,4.81-.22.72-.5,1.51-.93,2.15-.57,1-1.44,2.73-2.58,3.37-1.29.72-2.08,1.08-3.44,1.65-.86.36-4.95,1.22-5.24,1.22,1,1.51,1.87,2.87,2.8,4.23,1.15,1.58,2.44,5.02,3.87,7.61,1.87,3.3,2.44,5.67,6.46,12.63.07.07.07.14.07.29,0,1.08-1.51,1.15-2.44,1.15Zm-20.95-42.12h-.43c-.93,0-.43,0-1.94.29-.07.57-.07,1.15-.07,1.72,0,1.29.14,3.87.22,5.24.14,0,.29.07.43.07.29,0,.72.07,1.29.07,2.58,0,5.02-.14,6.17-.93.5-.43,1.08-.72,1.22-1.43.14-.29.14-1.87.14-2.15,0-2.65-4.81-2.87-7.03-2.87Z"/>
        <path class="cls-1" d="m155.06,49.27c.29,1.22.36,1.44.65,2.58.29,1.08.65,1.94.86,2.87.07.29.07.5.07.72,0,.57-.36.86-.86,1-.79.29-1.44.36-2.08.36-.72,0-1.44-.07-2.3-.07h-.5c-2.22.14-3.87.29-5.96.29-.22,0-.43-.07-.57-.14-.22-.14-.36-.57-.43-1-.07-.14-.07-.29-.14-.5,0-.07-.07-.21-.07-.29-1.22-4.74-1.29-6.74-2.15-11.05-.86-4.31-.14-1.36-.86-3.95-.07-.21-.21-.36-.36-.5-.29,0-1.29,0-1.65-.07-.72,0-1.36-.07-2.15-.07h-.72c-.5,0-.86-.07-1.36-.07-.36,0-.79.07-1.44.07-.29.29-.57.14-.72.65-.43,2.08-.5,3.23-.86,5.31-.22,1.65-.36,2.8-.57,4.16-.14,1.65-.29,2.94-.5,4.66l-.22,1.29c-.07.29-.22.57-.36.79-.22.14-.43.36-.65.36-.65.22-1.51.29-2.37.29s-1.87-.07-2.65-.07h-1.65c-.65,0-1.36.07-2.15.07-1.15,0-2.22-.14-2.8-.57-.07-.07-.07-.14-.07-.21,0-.22.07-.43.07-.57.07-.29.07-.57.14-.86.29-1.36.57-2.44.72-3.52,0-.21.07-.65.22-.79.43-4.16,1.22-7.53,2.15-12.34,1.65-8.75,2.94-15.07,4.38-22.32.57-2.94,1.58-5.96,1.94-9.4.07-.72.29-.65.72-.86h.65c.86-.22,1.51-.29,2.44-.5.43,0,.93-.14,1.43-.22.36,0,4.09-.07,6.31-.07h1.44c1.36.14,2.65.43,3.95.57.22.07.43.14.57.36.22.36.43.72.5,1.08.5,1.87.79,3.73,1.22,5.6.21,1.29.5,2.66.86,3.87,1.29,3.8,1.72,7.39,2.65,11.55.43,2.01.79,4.16,1.22,6.17.57,2.87,1.51,5.02,2.22,8.25.21,1.22.43,2.15.79,3.59.36,1.36.72,2.3,1.01,3.52Zm-16.36-19.23c0-.07.07-.07.07-.14,0-.14.07-.22.07-.36,0-1.44-.72-3.66-1.22-6.67-.29-2.15-.5-4.31-.93-7.03-.07-.29-.14-.36-.29-.36s-.22.07-.36.07c-.07,0-.65.07-.79.79-1.08,5.02-1.58,11.34-1.58,13.06v.36c.07.07.07.14.07.22,0,.36.93.43,1.65.43h.79c.79-.07,2.01-.22,2.01-.22.14-.07.5,0,.5-.14Z"/>
        <path class="cls-1" d="m192.3,55.01c0-1.94.07-3.8.07-5.74,0-4.95-.22-10.26-.22-15.21,0-1,.07-2.08.07-3.23v-.65c-.86,2.22-1.94,5.24-2.15,6.03-1.79,5.6-2.58,6.39-4.38,11.98-.29,1-1.58,4.45-2.8,4.45-.29,0-.5-.14-.79-.36-.14-.22-.29-.43-.43-.65-1.29-3.01-2.51-6.31-3.52-9.54-.29-.86-.5-1.72-.72-2.65-.5-1.87-2.58-6.75-3.87-9.26,0,.22-.14,1.65-.14,1.87.07,1.44.07,2.65.07,3.8v6.74c0,2.65.29,5.09.29,7.61v1.15c0,.79-.07,2.3-.07,3.09,0,.43,0,.86-.07,1.29,0,.29-.14.57-.5.65-2.8.57-9.47.65-13.35.65-.57-.07-.79-.43-.79-1v-.07c0-1.43-.22-3.3-.22-4.88,0-3.01.14-5.31.14-7.82v-1.79c0-2.73,0-5.02.07-7.96,0-3.01.07-5.02.07-7.89,0-6.39-.29-12.63-.29-18.8,0-.65.07-1.36.22-1.87.14-.43.43-.43.72-.43h.57c.5,0,1.15.07,1.72.07h3.16c1,0,5.31-.29,6.1-.29,1.36,0,3.95,5.17,4.66,6.67.93,1.94,4.02,9.04,4.66,11.12.07.22.07.5.14.72.36,1.15.79,2.37,1.22,3.52.21.79.5,1.51.86,2.15.29,0,.36-.22.43-.36,1.15-4.16,2.51-7.1,3.87-10.83.29-.79,2.01-6.03,3.37-10.19.86-2.73.29-2.3,2.44-2.37h1.15c1.22,0,.72.14,3.16.14,1.29,0,1.51,0,2.8.07,1.15,0,3.73,0,3.73,1.22v1.58c0,.86.07,1.65.07,2.3,0,.14,0,.36-.07.5v27.34c0,5.88-.07,11.77-.07,17.79,0,1.08-1.08,1-1.87,1.22-.5.14-1.29.14-1.79.14h-.22c-1.29.07-2.87.29-4.31.29s-3.23-.07-3.23-1.65v-.65Z"/>
        <path class="cls-1" d="m231.41,36.21c-1.08.07-2.01.14-3.09.14h-.86c-1.72,0-3.09-.07-4.81-.07,0,0-.5,2.8-.5,5.02,0,.22.5.22.72.29,1.01.22,2.01.29,3.09.29,1.87,0,4.09-.21,5.81-.21h.14c.65,0,1.22,0,1.22,1.08,0,3.73.07,7.53.07,11.19v1.58c0,.86-1.22.93-2.15.93h-.5c-5.6,0-10.83.21-16.72.21-1.08,0-2.15,0-3.23.07h-1.87c-.22,0-.5,0-.72-.07-.43-.21-.72-.57-.72-1.15v-1.72c.07-1.51.07-3.09.07-4.59,0-10.4-.29-21.6-.29-32.86v-4.52c0-1.58.07-3.23.07-4.88v-.93c0-.57.07-1.08.29-1.65.14-.22.29-.36.57-.36h.14c1.58,0,2.94.14,4.81.14,1.29,0,2.08.07,3.37.07,2.44.07,3.66.29,6.1.29.79,0,1.15,0,1.94-.07s1.29-.07,2.08-.14c.86-.07,2.3-.14,3.09-.14.86,0,1.36.07,2.3.07.43,0,.79.22,1.08.65.07.14.07.22.07.36v.79c.07.57,0,.86.07,1.36.07.5.14,5.17.14,5.67,0,.86-.22,1.22-1.08,1.36-1.72.22-4.38.22-6.39.22h-2.44c-.43,0-.79,0-.93.43-.29.86-.36,2.08-.36,3.16v3.95c0,.36,0,.65.07.86.07.22.29.29.5.29,1.29,0,2.65.07,4.09.07,1.29,0,2.58-.07,3.8-.22.21,0,.36-.07.57-.07h.14c.22,0,.5.07.65.22.43.29.43.79.43,1.22v1.65c0,2.73-.14,1.15-.14,6.39v3.01c0,.22,0,.43-.14.57-.14,0-.43.07-.57.07Z"/>
        <path class="cls-1" d="m239.01,57.09h-.36c-.79-.07-1.36-.29-2.01-.57-.43-.14-.65-.65-.65-1.08v-1.08c0-1.15-.07-2.3-.07-3.37,0-.57.07-1.08.07-1.72.22-13.42.43-21.02.57-34.44v-.43c0-1.36-.07-2.44-.07-3.59,0-1.44.07-3.16.21-5.74.07-.57.07-.86.65-.93.29,0,.57-.07.79-.07s.43.07.65.07c.65.07,1.15.07,1.94.14.86.14,1.58.14,2.22.14h1.15c1.08,0,2.01.07,3.23.43.29.07.36.36.36.72v19.44c0,2.01-.21,3.23-.21,5.24,0,1.44-.22,3.09-.22,4.38,0,.79.07,1.44.43,1.72,1.15,1.15,6.46,1.22,9.61,1.22h.86c1,0,1.36,1,1.36,2.22,0,5.53.22,11.19.22,16.36-.07.36-.22.57-.57.65-.36.07-.79.07-1.15.07-3.09,0-6.17.14-9.62.14h-1.79c-2.65,0-5.17.07-7.61.07Z"/>
        <path class="cls-1" d="m30.05,204.08c-5.09-.55-9.27-2.18-12.91-4.91-7.09-5.45-11.27-14.72-12.54-24.54-.73-4.36-1.09-8.91-1.45-13.63-.36-3.27-.55-6.73-.73-10-.18-5.64-.36-10.91-.55-16.18v-4c0-7.27.36-14.36,1.27-21.09.91-8,2.73-15.45,5.45-21.81,2.55-6.18,6.18-11.45,10.91-15.27,3.82-3.09,8.54-5.27,14-6.36,4-.73,8-1.09,12-1.09,4.36,0,8.73.55,12.91,1.27,1.82.36,2.91.55,4.73,1.27,3.82,1.45,6,2,9.45,4,1.64.91,2.73,1.82,3.82,3.45,2.91,4.18,4.91,7.27,6.18,11.45.18.55.36,1.09.36,1.64.18,1.82.36,3.64.36,5.64v4.91c0,1.09,0,2-.18,3.09,0,1.27-.18,2.73-.18,4l-.36,5.27c-.36,3.09-.73,6.73-1.09,9.82-.18,1.09-.18,2.18-.18,3.27s-.18,1.45-1.45,1.64c-.73.36-1.45.55-2.18.55-8.18.73-14.36,1.09-22.36,1.09-4,0-8.36-.55-8.36-3.45,0-1.45.18-2,.18-3.27v-1.82c.18-7.09,1.45-10.73,1.45-17.27v-1.82c0-.73,0-1.27-.36-2.18-.55-1.82-1.82-2.91-3.64-2.91-.36,0-.91,0-1.27.18-1.09.36-2,.91-3.09,1.45-1.45,1.09-2.55,2.36-3.64,4-2.18,3.27-4.36,7.45-4.73,11.45-.73,4.54-1.09,10.18-1.09,14.72v5.27c0,9.27.55,24.36,6.73,24.36,7.09,0,8-4.73,8.18-5.64.36-2.18,1.09-8.54,1.09-10.54v-1.45c.18-1.27,1.09-2,2.36-2,10.36,0,21.63.18,30.9.91,1.64.36,2.36,1.27,2.73,2.91.18,1.09.36,2.18.36,3.27,0,.55-.18.91-.18,1.45-.18,2.36-.18,4.91-.18,7.27-.18,1.82-.36,3.64-.36,5.45-.18,2.36-.55,4.73-.55,7.09,0,2.91-.36,6-.91,8.73,0,.55-.18,1.09-.18,1.64,0,7.82-5.82,16-10.36,19.81-.55.36-.91.91-1.45,1.27-3.27,2.91-7.27,4.36-11.27,5.64-5.64,1.64-8.73,2.18-14.36,2.73h-.91l-5.09-.18c-2.55-.18-4.91-.36-7.27-.55Z"/>
        <path class="cls-1" d="m138.93,203.17c-1.64.18-3.27.18-4.73.18-2.18-.18-4.36-.18-6.54-.18-26.18,0-34.18-18.91-36.36-43.63-.36-2.73-.55-5.64-.55-8.36v-5.27c0-17.81,2.18-34.36,5.82-48.54,1.09-4.36,3.09-8.73,5.27-12.73,6.54-11.63,14.91-17.27,31.99-18.54,2-.18,4-.36,6-.36,14.91,0,28.9,6.36,33.63,16,3.64,8,5.82,15.09,6.73,25.81,0,1.09.18,2.18.18,3.27.55,7.82.73,16.72.73,25.45v2.73c0,20.54-.18,39.63-9.82,50.9-6.91,8.36-18,13.27-32.36,13.27Zm1.64-105.62c-.91-.91-2-1.45-3.45-1.45h-.18c-2.91.36-6.18,2.91-8.18,9.45-.73,2.55-1.27,5.27-1.45,8-.73,4-.36,8.54-.91,12.73-.18,4.36-.36,3.09-.36,6v2c0,2,.18,3.64.18,5.64.18,6.18.18,6.36.91,12.18.36,4.54,3.64,18.72,9.27,18.72,8.91,0,9.82-12.18,10.18-20.36.55-6.36.91-5.82.91-13.45v-12.18c-.18-5.09-2-22.36-6.91-27.27Z"/>
        <path class="cls-1" d="m191.64,201.17h.18c-.36,0-.73,0-1.09-.36-.91-.91-1.45-.91-1.45-2.36.18-.91.18-1.82.18-2.73,0-10.36.36-19.27.36-31.45v-.36c0-23.27-.18-36.54-.36-59.81v-8.18c0-1.64.18-2.73.18-4.36,0-4.91,0-7.63-.18-12.54v-7.45c0-.73.18-1.27.73-1.82,3.45,0,1.64.36,14.72.36,2.18,0,4,0,5.45-.18,2.91-.18,6-.18,8.91-.18,4.18,0,8.36.18,12.73.36.91,0,2,.18,2.91.36,2.91.73,5.64,1.45,8.36,2.54,2.54,1.09,4.91,2.73,7.09,4.54,2.55,2,5.09,4.36,6.54,7.45,1.45,3.45,2.91,6.73,3.27,10.54.36,2.91.91,5.27,1.27,8.73.36,2.73.18,4.36.36,7.09.18,2.54.18,4,.18,6.54,0,2.91,0,4.73.18,7.63.18,4.54.36,9.09.36,13.63s-.18,9.27-.36,13.63c-.55,11.82-1.27,20.91-5.45,28.9-1.82,3.64-4.36,6.91-7.09,10-.55.73-1.64,1.27-2.36,1.82-2,1.27-4.18,2.36-6.18,3.64-1.82,1.27-3.82,2-6,2.36-2.73.36-5.45,1.09-8.18,1.45-4.18.55-8.36.55-12.72.55-20.18,0-22.54-.18-22.54-.36Zm45.26-74.71c0-2.54-.55-5.09-1.09-7.63-.18-1.45-1.09-2.55-2.36-3.27l-4.36-2.18c-2.73-1.27-8-1.45-11.09-1.45-1.09,0-2.18.18-3.27.36-.36,0-.73.55-.73.91-.18.36-.18.91-.18,1.27,0,5.27-.18,10.54-.18,16,0,1.82-.18,3.82-.18,5.64,0,5.09-.36,7.45-.36,10.18,0,1.45.18,2.91.36,4.91,0,.91.18,1.64.36,2.36h1.64c4.91-.73,10.36-.91,13.82-2.73,8-4.18,7.09-12.18,7.45-23.27,0-.36.18-.73.18-1.09Z"/>
      </g>
      <g>
        <path class="cls-2" d="m15.81,54.82c-2.01-.22-3.66-.86-5.09-1.94-2.8-2.15-4.45-5.81-4.95-9.69-.29-1.72-.43-3.52-.57-5.38-.14-1.29-.22-2.66-.29-3.95-.07-2.22-.14-4.31-.22-6.39v-1.58c0-2.87.14-5.67.5-8.32.36-3.16,1.08-6.1,2.15-8.61,1-2.44,2.44-4.52,4.31-6.03,1.51-1.22,3.37-2.08,5.52-2.51,1.58-.29,3.16-.43,4.74-.43,1.72,0,3.44.22,5.09.5.72.14,1.15.22,1.87.5,1.51.57,2.37.79,3.73,1.58.65.36,1.08.72,1.51,1.36,1.15,1.65,1.94,2.87,2.44,4.52.07.22.14.43.14.65.07.72.14,1.43.14,2.22v1.94c0,.43,0,.79-.07,1.22,0,.5-.07,1.08-.07,1.58l-.14,2.08c-.14,1.22-.29,2.66-.43,3.87-.07.43-.07.86-.07,1.29s-.07.57-.57.65c-.29.14-.57.22-.86.22-3.23.29-5.67.43-8.83.43-1.58,0-3.3-.22-3.3-1.36,0-.57.07-.79.07-1.29v-.72c.07-2.8.57-4.23.57-6.82v-.72c0-.29,0-.5-.14-.86-.22-.72-.72-1.15-1.43-1.15-.14,0-.36,0-.5.07-.43.14-.79.36-1.22.57-.57.43-1,.93-1.44,1.58-.86,1.29-1.72,2.94-1.87,4.52-.29,1.79-.43,4.02-.43,5.81v2.08c0,3.66.22,9.61,2.65,9.61,2.8,0,3.16-1.87,3.23-2.22.14-.86.43-3.37.43-4.16v-.57c.07-.5.43-.79.93-.79,4.09,0,8.54.07,12.2.36.65.14.93.5,1.08,1.15.07.43.14.86.14,1.29,0,.22-.07.36-.07.57-.07.93-.07,1.94-.07,2.87-.07.72-.14,1.44-.14,2.15-.07.93-.22,1.87-.22,2.8,0,1.15-.14,2.37-.36,3.44,0,.21-.07.43-.07.65,0,3.09-2.3,6.31-4.09,7.82-.22.14-.36.36-.57.5-1.29,1.15-2.87,1.72-4.45,2.22-2.22.65-3.44.86-5.67,1.08h-.36l-2.01-.07c-1-.07-1.94-.14-2.87-.21Z"/>
        <path class="cls-2" d="m75.08,45.85c.29,1.22.36,1.44.65,2.58.29,1.08.65,1.94.86,2.87.07.29.07.5.07.72,0,.57-.36.86-.86,1-.79.29-1.43.36-2.08.36-.72,0-1.43-.07-2.3-.07h-.5c-2.22.14-3.87.29-5.96.29-.22,0-.43-.07-.57-.14-.22-.14-.36-.57-.43-1-.07-.14-.07-.29-.14-.5,0-.07-.07-.21-.07-.29-1.22-4.74-1.29-6.74-2.15-11.05-.86-4.31-.14-1.36-.86-3.95-.07-.21-.22-.36-.36-.5-.29,0-1.29,0-1.65-.07-.72,0-1.36-.07-2.15-.07h-.72c-.5,0-.86-.07-1.36-.07-.36,0-.79.07-1.44.07-.29.29-.57.14-.72.65-.43,2.08-.5,3.23-.86,5.31-.22,1.65-.36,2.8-.57,4.16-.14,1.65-.29,2.94-.5,4.66l-.22,1.29c-.07.29-.22.57-.36.79-.22.14-.43.36-.65.36-.65.22-1.51.29-2.37.29s-1.87-.07-2.65-.07h-1.65c-.65,0-1.36.07-2.15.07-1.15,0-2.22-.14-2.8-.57-.07-.07-.07-.14-.07-.21,0-.22.07-.43.07-.57.07-.29.07-.57.14-.86.29-1.36.57-2.44.72-3.52,0-.21.07-.65.22-.79.43-4.16,1.22-7.53,2.15-12.34,1.65-8.75,2.94-15.07,4.38-22.32.57-2.94,1.58-5.96,1.94-9.4.07-.72.29-.65.72-.86h.65c.86-.22,1.51-.29,2.44-.5.43,0,.93-.14,1.44-.22.36,0,4.09-.07,6.31-.07h1.43c1.36.14,2.66.43,3.95.57.22.07.43.14.57.36.22.36.43.72.5,1.08.5,1.87.79,3.73,1.22,5.6.22,1.29.5,2.66.86,3.87,1.29,3.8,1.72,7.39,2.65,11.55.43,2.01.79,4.16,1.22,6.17.57,2.87,1.51,5.02,2.22,8.25.22,1.22.43,2.15.79,3.59.36,1.36.72,2.3,1,3.52Zm-16.36-19.23c0-.07.07-.07.07-.14,0-.14.07-.22.07-.36,0-1.44-.72-3.66-1.22-6.67-.29-2.15-.5-4.31-.93-7.03-.07-.29-.14-.36-.29-.36s-.22.07-.36.07c-.07,0-.65.07-.79.79-1.08,5.02-1.58,11.34-1.58,13.06v.36c.07.07.07.14.07.22,0,.36.93.43,1.65.43h.79c.79-.07,2.01-.22,2.01-.22.14-.07.5,0,.5-.14Z"/>
        <path class="cls-2" d="m117.56,53.74h-3.95c-.65,0-1.22-.07-1.87-.07-1.15,0-2.3.07-3.59.07-2.08,0-2.51-3.44-3.95-5.45-.65-1.15-1.08-1.72-1.72-2.87-.93-1.79-1.36-2.8-2.44-4.66-.29-.5-.43-.86-.79-1.36-1.44-2.08-2.15-4.38-3.87-6.96-.14-.22-.29-.43-.5-.65-.79,1.08-.65,2.8-.79,4.38v3.09c0,2.44-.07,3.73-.07,6.17v6.31c0,1.08-.79,1.65-1.87,1.65h-.22c-1.22-.07-2.22-.07-3.09-.07-2.94,0-4.59.29-8.83.29h-.14c-.57,0-.86-.29-.86-.79,0-3.01.14-6.67.14-10.19,0-5.24-.14-10.05-.14-15.36,0-1.65-.07-2.8-.07-4.09,0-2.15.07-4.52.07-6.82V2.37c.07-.65,1.72-1,2.3-1.08,1.22-.14,2.37-.43,3.59-.43.79,0,5.88-.07,6.67-.07,4.88,0,9.83.36,14.64.36,1.65.07,4.23.36,6.31,1.36,1.94.93,3.16,2.51,4.31,4.23,1.51,2.15,2.8,4.3,2.8,7.89,0,1-.07,3.95-.65,4.81-.22.72-.5,1.51-.93,2.15-.57,1-1.44,2.73-2.58,3.37-1.29.72-2.08,1.08-3.44,1.65-.86.36-4.95,1.22-5.24,1.22,1,1.51,1.87,2.87,2.8,4.23,1.15,1.58,2.44,5.02,3.87,7.61,1.87,3.3,2.44,5.67,6.46,12.63.07.07.07.14.07.29,0,1.08-1.51,1.15-2.44,1.15Zm-20.95-42.12h-.43c-.93,0-.43,0-1.94.29-.07.57-.07,1.15-.07,1.72,0,1.29.14,3.87.22,5.24.14,0,.29.07.43.07.29,0,.72.07,1.29.07,2.58,0,5.02-.14,6.17-.93.5-.43,1.08-.72,1.22-1.43.14-.29.14-1.87.14-2.15,0-2.65-4.81-2.87-7.03-2.87Z"/>
        <path class="cls-2" d="m159.75,45.85c.29,1.22.36,1.44.65,2.58.29,1.08.65,1.94.86,2.87.07.29.07.5.07.72,0,.57-.36.86-.86,1-.79.29-1.44.36-2.08.36-.72,0-1.44-.07-2.3-.07h-.5c-2.22.14-3.87.29-5.96.29-.22,0-.43-.07-.57-.14-.22-.14-.36-.57-.43-1-.07-.14-.07-.29-.14-.5,0-.07-.07-.21-.07-.29-1.22-4.74-1.29-6.74-2.15-11.05-.86-4.31-.14-1.36-.86-3.95-.07-.21-.21-.36-.36-.5-.29,0-1.29,0-1.65-.07-.72,0-1.36-.07-2.15-.07h-.72c-.5,0-.86-.07-1.36-.07-.36,0-.79.07-1.44.07-.29.29-.57.14-.72.65-.43,2.08-.5,3.23-.86,5.31-.22,1.65-.36,2.8-.57,4.16-.14,1.65-.29,2.94-.5,4.66l-.22,1.29c-.07.29-.22.57-.36.79-.22.14-.43.36-.65.36-.65.22-1.51.29-2.37.29s-1.87-.07-2.65-.07h-1.65c-.65,0-1.36.07-2.15.07-1.15,0-2.22-.14-2.8-.57-.07-.07-.07-.14-.07-.21,0-.22.07-.43.07-.57.07-.29.07-.57.14-.86.29-1.36.57-2.44.72-3.52,0-.21.07-.65.22-.79.43-4.16,1.22-7.53,2.15-12.34,1.65-8.75,2.94-15.07,4.38-22.32.57-2.94,1.58-5.96,1.94-9.4.07-.72.29-.65.72-.86h.65c.86-.22,1.51-.29,2.44-.5.43,0,.93-.14,1.43-.22.36,0,4.09-.07,6.31-.07h1.44c1.36.14,2.65.43,3.95.57.22.07.43.14.57.36.22.36.43.72.5,1.08.5,1.87.79,3.73,1.22,5.6.21,1.29.5,2.66.86,3.87,1.29,3.8,1.72,7.39,2.65,11.55.43,2.01.79,4.16,1.22,6.17.57,2.87,1.51,5.02,2.22,8.25.21,1.22.43,2.15.79,3.59.36,1.36.72,2.3,1.01,3.52Zm-16.36-19.23c0-.07.07-.07.07-.14,0-.14.07-.22.07-.36,0-1.44-.72-3.66-1.22-6.67-.29-2.15-.5-4.31-.93-7.03-.07-.29-.14-.36-.29-.36s-.22.07-.36.07c-.07,0-.65.07-.79.79-1.08,5.02-1.58,11.34-1.58,13.06v.36c.07.07.07.14.07.22,0,.36.93.43,1.65.43h.79c.79-.07,2.01-.22,2.01-.22.14-.07.5,0,.5-.14Z"/>
        <path class="cls-2" d="m196.99,51.59c0-1.94.07-3.8.07-5.74,0-4.95-.22-10.26-.22-15.21,0-1,.07-2.08.07-3.23v-.65c-.86,2.22-1.94,5.24-2.15,6.03-1.79,5.6-2.58,6.39-4.38,11.98-.29,1-1.58,4.45-2.8,4.45-.29,0-.5-.14-.79-.36-.14-.22-.29-.43-.43-.65-1.29-3.01-2.51-6.31-3.52-9.54-.29-.86-.5-1.72-.72-2.65-.5-1.87-2.58-6.75-3.87-9.26,0,.22-.14,1.65-.14,1.87.07,1.44.07,2.65.07,3.8v6.74c0,2.65.29,5.09.29,7.61v1.15c0,.79-.07,2.3-.07,3.09,0,.43,0,.86-.07,1.29,0,.29-.14.57-.5.65-2.8.57-9.47.65-13.35.65-.57-.07-.79-.43-.79-1v-.07c0-1.43-.22-3.3-.22-4.88,0-3.01.14-5.31.14-7.82v-1.79c0-2.73,0-5.02.07-7.96,0-3.01.07-5.02.07-7.89,0-6.39-.29-12.63-.29-18.8,0-.65.07-1.36.22-1.87.14-.43.43-.43.72-.43h.57c.5,0,1.15.07,1.72.07h3.16c1,0,5.31-.29,6.1-.29,1.36,0,3.95,5.17,4.66,6.67.93,1.94,4.02,9.04,4.66,11.12.07.22.07.5.14.72.36,1.15.79,2.37,1.22,3.52.21.79.5,1.51.86,2.15.29,0,.36-.22.43-.36,1.15-4.16,2.51-7.1,3.87-10.83.29-.79,2.01-6.03,3.37-10.19.86-2.73.29-2.3,2.44-2.37h1.15c1.22,0,.72.14,3.16.14,1.29,0,1.51,0,2.8.07,1.15,0,3.73,0,3.73,1.22v1.58c0,.86.07,1.65.07,2.3,0,.14,0,.36-.07.5v27.34c0,5.88-.07,11.77-.07,17.79,0,1.08-1.08,1-1.87,1.22-.5.14-1.29.14-1.79.14h-.22c-1.29.07-2.87.29-4.31.29s-3.23-.07-3.23-1.65v-.65Z"/>
        <path class="cls-2" d="m236.1,32.79c-1.08.07-2.01.14-3.09.14h-.86c-1.72,0-3.09-.07-4.81-.07,0,0-.5,2.8-.5,5.02,0,.22.5.22.72.29,1.01.22,2.01.29,3.09.29,1.87,0,4.09-.21,5.81-.21h.14c.65,0,1.22,0,1.22,1.08,0,3.73.07,7.53.07,11.19v1.58c0,.86-1.22.93-2.15.93h-.5c-5.6,0-10.83.21-16.72.21-1.08,0-2.15,0-3.23.07h-1.87c-.22,0-.5,0-.72-.07-.43-.21-.72-.57-.72-1.15v-1.72c.07-1.51.07-3.09.07-4.59,0-10.4-.29-21.6-.29-32.86v-4.52c0-1.58.07-3.23.07-4.88v-.93c0-.57.07-1.08.29-1.65.14-.22.29-.36.57-.36h.14c1.58,0,2.94.14,4.81.14,1.29,0,2.08.07,3.37.07,2.44.07,3.66.29,6.1.29.79,0,1.15,0,1.94-.07s1.29-.07,2.08-.14c.86-.07,2.3-.14,3.09-.14.86,0,1.36.07,2.3.07.43,0,.79.22,1.08.65.07.14.07.22.07.36v.79c.07.57,0,.86.07,1.36.07.5.14,5.17.14,5.67,0,.86-.22,1.22-1.08,1.36-1.72.22-4.38.22-6.39.22h-2.44c-.43,0-.79,0-.93.43-.29.86-.36,2.08-.36,3.16v3.95c0,.36,0,.65.07.86.07.22.29.29.5.29,1.29,0,2.65.07,4.09.07,1.29,0,2.58-.07,3.8-.22.21,0,.36-.07.57-.07h.14c.22,0,.5.07.65.22.43.29.43.79.43,1.22v1.65c0,2.73-.14,1.15-.14,6.39v3.01c0,.22,0,.43-.14.57-.14,0-.43.07-.57.07Z"/>
        <path class="cls-2" d="m243.7,53.67h-.36c-.79-.07-1.36-.29-2.01-.57-.43-.14-.65-.65-.65-1.08v-1.08c0-1.15-.07-2.3-.07-3.37,0-.57.07-1.08.07-1.72.22-13.42.43-21.02.57-34.44v-.43c0-1.36-.07-2.44-.07-3.59,0-1.44.07-3.16.21-5.74.07-.57.07-.86.65-.93.29,0,.57-.07.79-.07s.43.07.65.07c.65.07,1.15.07,1.94.14.86.14,1.58.14,2.22.14h1.15c1.08,0,2.01.07,3.23.43.29.07.36.36.36.72v19.44c0,2.01-.21,3.23-.21,5.24,0,1.44-.22,3.09-.22,4.38,0,.79.07,1.44.43,1.72,1.15,1.15,6.46,1.22,9.61,1.22h.86c1,0,1.36,1,1.36,2.22,0,5.53.22,11.19.22,16.36-.07.36-.22.57-.57.65-.36.07-.79.07-1.15.07-3.09,0-6.17.14-9.62.14h-1.79c-2.65,0-5.17.07-7.61.07Z"/>
        <path class="cls-2" d="m34.74,200.66c-5.09-.55-9.27-2.18-12.91-4.91-7.09-5.45-11.27-14.72-12.54-24.54-.73-4.36-1.09-8.91-1.45-13.63-.36-3.27-.55-6.73-.73-10-.18-5.64-.36-10.91-.55-16.18v-4c0-7.27.36-14.36,1.27-21.09.91-8,2.73-15.45,5.45-21.81,2.55-6.18,6.18-11.45,10.91-15.27,3.82-3.09,8.54-5.27,14-6.36,4-.73,8-1.09,12-1.09,4.36,0,8.73.55,12.91,1.27,1.82.36,2.91.55,4.73,1.27,3.82,1.45,6,2,9.45,4,1.64.91,2.73,1.82,3.82,3.45,2.91,4.18,4.91,7.27,6.18,11.45.18.55.36,1.09.36,1.64.18,1.82.36,3.64.36,5.64v4.91c0,1.09,0,2-.18,3.09,0,1.27-.18,2.73-.18,4l-.36,5.27c-.36,3.09-.73,6.73-1.09,9.82-.18,1.09-.18,2.18-.18,3.27s-.18,1.45-1.45,1.64c-.73.36-1.45.55-2.18.55-8.18.73-14.36,1.09-22.36,1.09-4,0-8.36-.55-8.36-3.45,0-1.45.18-2,.18-3.27v-1.82c.18-7.09,1.45-10.73,1.45-17.27v-1.82c0-.73,0-1.27-.36-2.18-.55-1.82-1.82-2.91-3.64-2.91-.36,0-.91,0-1.27.18-1.09.36-2,.91-3.09,1.45-1.45,1.09-2.55,2.36-3.64,4-2.18,3.27-4.36,7.45-4.73,11.45-.73,4.54-1.09,10.18-1.09,14.72v5.27c0,9.27.55,24.36,6.73,24.36,7.09,0,8-4.73,8.18-5.64.36-2.18,1.09-8.54,1.09-10.54v-1.45c.18-1.27,1.09-2,2.36-2,10.36,0,21.63.18,30.9.91,1.64.36,2.36,1.27,2.73,2.91.18,1.09.36,2.18.36,3.27,0,.55-.18.91-.18,1.45-.18,2.36-.18,4.91-.18,7.27-.18,1.82-.36,3.64-.36,5.45-.18,2.36-.55,4.73-.55,7.09,0,2.91-.36,6-.91,8.73,0,.55-.18,1.09-.18,1.64,0,7.82-5.82,16-10.36,19.81-.55.36-.91.91-1.45,1.27-3.27,2.91-7.27,4.36-11.27,5.64-5.64,1.64-8.73,2.18-14.36,2.73h-.91l-5.09-.18c-2.55-.18-4.91-.36-7.27-.55Z"/>
        <path class="cls-2" d="m143.62,199.75c-1.64.18-3.27.18-4.73.18-2.18-.18-4.36-.18-6.54-.18-26.18,0-34.18-18.91-36.36-43.63-.36-2.73-.55-5.64-.55-8.36v-5.27c0-17.81,2.18-34.36,5.82-48.54,1.09-4.36,3.09-8.73,5.27-12.73,6.54-11.63,14.91-17.27,31.99-18.54,2-.18,4-.36,6-.36,14.91,0,28.9,6.36,33.63,16,3.64,8,5.82,15.09,6.73,25.81,0,1.09.18,2.18.18,3.27.55,7.82.73,16.72.73,25.45v2.73c0,20.54-.18,39.63-9.82,50.9-6.91,8.36-18,13.27-32.36,13.27Zm1.64-105.62c-.91-.91-2-1.45-3.45-1.45h-.18c-2.91.36-6.18,2.91-8.18,9.45-.73,2.55-1.27,5.27-1.45,8-.73,4-.36,8.54-.91,12.73-.18,4.36-.36,3.09-.36,6v2c0,2,.18,3.64.18,5.64.18,6.18.18,6.36.91,12.18.36,4.54,3.64,18.72,9.27,18.72,8.91,0,9.82-12.18,10.18-20.36.55-6.36.91-5.82.91-13.45v-12.18c-.18-5.09-2-22.36-6.91-27.27Z"/>
        <path class="cls-2" d="m196.33,197.75h.18c-.36,0-.73,0-1.09-.36-.91-.91-1.45-.91-1.45-2.36.18-.91.18-1.82.18-2.73,0-10.36.36-19.27.36-31.45v-.36c0-23.27-.18-36.54-.36-59.81v-8.18c0-1.64.18-2.73.18-4.36,0-4.91,0-7.63-.18-12.54v-7.45c0-.73.18-1.27.73-1.82,3.45,0,1.64.36,14.72.36,2.18,0,4,0,5.45-.18,2.91-.18,6-.18,8.91-.18,4.18,0,8.36.18,12.73.36.91,0,2,.18,2.91.36,2.91.73,5.64,1.45,8.36,2.54,2.54,1.09,4.91,2.73,7.09,4.54,2.55,2,5.09,4.36,6.54,7.45,1.45,3.45,2.91,6.73,3.27,10.54.36,2.91.91,5.27,1.27,8.73.36,2.73.18,4.36.36,7.09.18,2.54.18,4,.18,6.54,0,2.91,0,4.73.18,7.63.18,4.54.36,9.09.36,13.63s-.18,9.27-.36,13.63c-.55,11.82-1.27,20.91-5.45,28.9-1.82,3.64-4.36,6.91-7.09,10-.55.73-1.64,1.27-2.36,1.82-2,1.27-4.18,2.36-6.18,3.64-1.82,1.27-3.82,2-6,2.36-2.73.36-5.45,1.09-8.18,1.45-4.18.55-8.36.55-12.72.55-20.18,0-22.54-.18-22.54-.36Zm45.26-74.71c0-2.54-.55-5.09-1.09-7.63-.18-1.45-1.09-2.55-2.36-3.27l-4.36-2.18c-2.73-1.27-8-1.45-11.09-1.45-1.09,0-2.18.18-3.27.36-.36,0-.73.55-.73.91-.18.36-.18.91-.18,1.27,0,5.27-.18,10.54-.18,16,0,1.82-.18,3.82-.18,5.64,0,5.09-.36,7.45-.36,10.18,0,1.45.18,2.91.36,4.91,0,.91.18,1.64.36,2.36h1.64c4.91-.73,10.36-.91,13.82-2.73,8-4.18,7.09-12.18,7.45-23.27,0-.36.18-.73.18-1.09Z"/>
      </g>
    </g>
  </g>
</svg>