<?xml version="1.0" encoding="UTF-8"?>
<svg id="Layer_2" data-name="Layer 2" xmlns="http://www.w3.org/2000/svg" viewBox="0 0 264.99 147.84">
  <defs>
    <style>
      .cls-1, .cls-2 {
        stroke-width: 0px;
      }

      .cls-2 {
        fill: #fff;
      }
    </style>
  </defs>
  <g id="good_morning_burger_logo" data-name="good morning burger logo">
    <g>
      <path class="cls-1" d="m1.78,30.59C2.63,15.82,10.57,7.64,22.41,3.61c1.22-.37,2.56-.73,3.78-.85,1.34-.24,2.56-.37,3.91-.37,4.03,0,6.84,0,11.23.61,6.96.98,10.13.85,16.36,7.08,1.59,1.59,2.32,3.05,2.81,4.88.49,1.59.85,3.05,1.22,4.64.24,1.83.37,3.91.37,5.98,0,5.25-.12,8.06-.73,12.7-.24,1.46-.37,2.93-.61,4.4-.24,1.1-.73,1.83-1.83,2.2-.98.24-2.08.24-3.05.24h-10.87c-.49,0-1.71.24-2.93.24-2.08,0-4.27-.37-4.27-2.32-.12-1.47-.12-2.81-.12-4.15,0-4.27.24-6.47.24-10.62,0-2.2-.24-4.15-1.1-5.98-.12-.24-.24-.49-.49-.73-.85-.98-2.56-1.34-4.15-1.34-.61,0-1.22.12-1.83.49-2.44,1.46-3.54,2.93-4.76,5.37-1.1,2.32-1.59,4.76-1.71,7.2-.24,3.42-.49,6.1-.73,10.01v1.46c.12,2.32.24,3.91.24,5.86v5.37c0,2.56,0,5.13.24,6.23.37,1.71.37,3.78,1.71,5.86,1.1,1.59,2.56,2.44,3.91,2.44h.24c1.34,0,2.69-.61,3.78-1.71.73-.73.98-1.71,1.1-2.69.12-1.22.37-6.1.49-7.08.12-.98.24-4.15.73-5.01.24-.49.85-.61,1.34-.61h.37c2.08.12,3.3.24,5.37.37,2.81.24,4.27.49,7.08.49h.61c2.2,0,3.66-.24,5.74-.24h.98c1.1,0,1.83.37,2.69.61.73.24,1.1.85,1.1,1.71.12.49.12.98.12,1.46-.12,4.39-.12,10.25-.49,14.65-.61,6.59-2.81,11.11-5.62,15.51-1.1,1.59-2.32,3.05-4.15,3.91-1.59.61-3.05,1.34-4.64,1.83-.37.12-.61.24-.85.24-2.81.49-5.62.98-8.3,1.34-2.08.24-4.03.49-6.1.49s-4.15-.24-6.1-.61c-1.71-.37-3.42-.61-5.13-.98-4.4-1.22-8.06-3.54-10.74-7.57-.98-1.46-2.08-3.17-2.69-4.88-.49-1.22-.85-2.32-1.22-3.54-.85-2.93-1.71-5.98-1.95-9.16-.24-2.69-.61-5.37-.98-8.06-.12-.49-.12-1.1-.12-1.59-.24-3.78-.37-7.57-.61-11.35v-1.46c0-2.44.12-5.13.12-7.69.12-2.69.24-5.62.37-8.3Z"/>
      <path class="cls-1" d="m66.85,79.79c0-2.81.12-5.49.12-8.3,0-1.34-.12-2.81-.12-4.15-.12-2.32-.12-4.76-.12-7.08,0-3.3,0-6.47.12-9.77,0-5.49.37-10.99.49-16.48v-8.55c.12-3.66.49-6.47.49-10.01v-1.34c-.12-1.83-.24-3.78-.24-5.74v-.98c0-.85.24-1.46.98-1.95.49-.37.85-.37,1.34-.37h1.1c1.71,0,3.54-.12,5.25-.12s3.3.12,4.03.12c1.71.12,5.01.12,6.71.24h.85c1.46,0,2.44.98,2.44,2.32,0,.24,0,.49-.12.85-.49,2.08-.49,4.15-.61,6.23-.24,3.54-.37,5.25-.37,8.91v4.88c0,.85-.12,1.83-.12,2.81,0,.37-.24,1.95-.24,3.3v.49c0,2.44.12,2.93.12,6.59,0,.24.24.37.49.37s.61-.12.85-.12h1.46c4.76.49,7.69.73,12.09.73h.49v-.24c0-4.27,0-6.59-.12-10.87v-1.22c.12-3.3.37-5.74.37-8.42,0-.85-.12-1.71-.12-2.56-.12-1.71-.12-1.34-.12-3.05-.12-2.44-.37-4.88-.37-7.2,0-.73.12-1.46.12-2.2,0-.49.12-.85.37-1.22.12-.24.49-.49.85-.49h.12c.37,0,.98-.12,1.59-.12,4.03-.12,8.42-.12,12.45-.24h1.34c1.22,0,2.32.12,2.32,1.71,0,.98-.12,1.95-.12,2.93,0,2.08.24,4.03.24,5.98,0,.85,0,1.71-.12,2.56-.24,2.81-.24,5.01-.24,6.71v3.05c0,4.27.24,5.13.24,10.62v34.43c0,3.17-.24,5.37-.24,7.81,0,.85,0,1.95.12,2.93,0,.49.12,1.1.12,1.83,0,1.34-.12,3.05-.12,4.64v1.59c0,.98-.12,1.83-.61,1.83h-13.43c-.24,0-1.34-.12-1.59-.12s-.61-.12-.85-.24c-.85-.37-1.34-1.59-1.46-2.93v-8.55c0-1.46-.12-2.93-.12-4.39-.12-1.83-.12-3.54-.24-5.37-.12-2.32-.12-3.91-.12-5.37v-7.2c0-.12-.37-.24-.49-.24h-.98c-2.81,0-3.17-.37-4.76-.37-.49,0-1.1,0-1.95.12-1.83.12-3.05.24-4.64.24h-1.1c-.73,0-1.46.12-1.46.73v.61c0,1.71-.12,3.05-.12,5.13v1.34c0,1.34-.12,1.83-.12,2.56,0,.49,0,.85.12,1.59.24,4.76.24,9.89.49,15.14v5.37c0,.98-.85,1.71-1.83,1.83-.85.12-1.71.12-2.56.12-3.78,0-8.18-.61-11.6-.73h-5.74c-.49-.37-.98-.73-.98-1.46v-11.48Z"/>
      <path class="cls-1" d="m129.23,15.09c0-2.93.12-5.13.12-7.69,0-2.08.12-2.44.73-2.81.98-.73,3.05-.73,5.62-.73h2.2c1.46,0,3.05,0,5.01-.12h6.23c2.93,0,4.15.12,5.13.37.98.24,1.22.61,1.22.98v.98c0,1.95.12,3.78.12,5.49,0,4.15-.24,7.69-.24,12.57-.24,9.89-.12,15.5-.24,25.52v5.49c0,11.6.49,19.53.49,31.25v5.62c0,1.1-.98,1.34-2.08,1.34-7.08,0-14.16.12-20.51.12-.73,0-1.47-.12-2.32-.37-.49-.12-.61-1.83-.61-2.32,0-3.91-.37-6.84-.37-11.35-.24-24.91-.37-38.94-.49-63.85v-.49Z"/>
      <path class="cls-1" d="m189.42,93.35h-1.59c-2.32,0-4.03-.24-6.35-.24h-1.1c-2.2.12-6.47.24-8.3.24-1.46,0-2.93-.12-4.39-.37-1.46-.24-2.81-.61-4.27-.98-.98-.24-1.47-.98-1.59-1.95-.12-.37-.12-.61-.12-.98,0-2.2-.12-4.39-.12-6.47v-15.26c0-4.15,0-8.3-.12-12.45-.24-4.88-.24-9.52-.24-14.04,0-6.84.12-13.43.12-20.63,0-4.76.12-10.01.12-14.89.12-.98.61-1.46,1.59-1.46,3.17,0,7.32.61,10.13.61,4.4.12,8.91.12,13.31.12,5.49,0,11.48-.12,16.73-.37h1.22c1.22,0,2.2.12,3.05.98.37.24.37,1.71.37,2.2v1.22c0,2.44.12,4.52.12,6.47,0,1.71,0,3.42-.24,5.62v4.64c.12,1.22.12,2.44.12,3.78,0,1.22-1.59,1.46-2.93,1.46-.85,0-1.71-.12-2.44-.12-4.03,0-9.64-.61-14.41-.61h-3.66c-.49.12-.85.37-.98.85,0,.12,0,.24-.12.37v4.76c0,.49,0,.85.12,1.34.24,0,4.15-.24,6.1-.24h7.08c1.1,0,2.2,0,3.66.12.85,0,1.46,0,2.32.12.61,0,2.2,0,2.69.24,1.22.37,1.71,3.05,1.71,4.52v1.83c0,4.15-.12,2.32-.12,6.96v.24c0,.49,0,.61-.37.98-.12.12-.85.24-1.1.24-5.98.24-11.84.37-18.19.37-1.1,0-2.08.24-3.05.49-.73.12-.98.49-.98,1.22-.12,2.44-.24,4.88-.24,7.33,0,.73.24.98.98.98,2.2.12,4.39.24,6.59.24h1.59c4.39,0,8.06.61,12.45.98.61.12,1.34,0,1.95.12,1.22.24,1.59.98,1.59,2.2,0,1.59.12,3.17.12,4.76v7.69c.12,3.17.24,7.57.37,10.74v1.34c0,1.34-.12,1.46-1.1,1.83-.37.12-.61.24-.98.24-3.91.37-8.67.49-13.31.49-1.22,0-2.32,0-3.78.12Z"/>
      <path class="cls-1" d="m256.07,30.72c-.49,0-1.22-.12-1.46-.12-1.95,0-4.03-.24-6.47-.24-.85,0-1.71.12-2.56.12h-5.25c-2.2,0-3.91.12-3.91,1.22,0,.49-.12,10.25-.12,12.21,0,.98,0,1.83.12,2.08,0,.61,0,1.1.24,1.59.24.12.49.12.73.12h1.95c7.2,0,5.74.12,8.91.12.12,0,.98.12,1.1.12h.49c1.95,0,2.69.12,5.01.12.61,0,1.22.12,1.22.49.12,4.03.24,6.96.24,11.35v2.32c0,1.46-.37,2.44-2.2,2.44-2.69,0-7.08.49-10.26.49-2.93,0-7.2.12-7.2,1.34v.24c.12,5.86.49,12.45.49,18.8v5.25c-.12,1.59-.49,2.2-1.83,2.32-1.34,0-2.69.24-4.03.24h-3.54c-1.22,0-.73,0-1.95-.12-.49-.12-1.1-.12-1.71-.12-1.22,0-2.56.12-3.66.12-.61,0-1.71.12-2.56.12h-1.46c-.24,0-.61,0-.85-.24-.24-.24-.37-.98-.37-1.34-.12-.98-.12-1.83-.12-2.69,0-20.88-.61-41.26-1.22-61.65,0-2.93.12-5.86.24-8.79v-.98c0-1.34-.12-2.69-.12-4.03-.12-1.95-.24-3.91-.24-5.74,0-1.1.24-2.08.98-2.93.37-.37.61-.49,1.1-.49h.24c5.74.24,9.89.37,15.75.37s16.85-1.22,22.59-1.22h.85c1.46.12,1.95.49,1.95,1.83v10.5c-.12,1.95,0,3.66-.12,5.49v5.98c0,1.1,0,1.71-.12,2.81,0,.37-.37.49-.85.49Z"/>
      <path class="cls-1" d="m31.31,128.4c-.86,4.74-1.44,7.37-2.2,12.06-.43,2.59-.48,5.65-.96,6.7-.05.1-.57.19-1.34.24h-.53c-1.68,0-4.5-.38-4.74-.38-.57,0-1.05-.29-1.29-.96-.38-.96-.77-2.01-.96-3.02-.24-1.01-.48-2.06-.72-3.06-.1-.48-.14-.91-.34-1.44-.14-.43-.14-1.68-.48-1.96-.05,0-.57,1.72-.67,1.96-.53,1.58-.72,2.59-1.24,4.12-.48,1.44-.62,2.68-1.53,3.59-.34.29-1.24.29-1.68.34-.91.1-4.07.1-6.65.14h-.57c-.24,0-.38,0-.48-.34-.53-3.21-1.34-7.09-2.06-11.63-.72-4.31-.96-6.8-1.58-11.15-.34-3.49-.77-6.46-1.29-10.34v-.24c0-.62.24-.81.77-.86.05,0,.57-.1.62-.1h.24c1.68,0,3.26.1,4.98.1.57,0,1.15,0,1.77-.05h.53c.53.05,1.05-.05,1.15.53,0,1.82.24,3.16.43,5.03.05.53.05.81.1,1.39.48,4.74.96,8.47,1.39,14.03,0,.19.38,3.16.38,3.16.19-.57,1.82-4.98,2.06-5.6,1.01-2.87,2.06-5.51,3.26-8.19.05-.19.19-.38.34-.57.14-.14.29-.24.48-.24.14,0,.24.05.38.14.29.14.48.48.53.81.29,1.2.62,2.35.72,3.59.1,1.05.34,2.15.48,3.21.05.48.91,6.13,1.1,6.13.24-.62.86-3.49,1.01-4.07.24-1.1.48-2.01.72-3.3.86-4.93,1.58-9.91,2.11-15.13.05-.48.24-.86.43-1.15.14-.24.43-.34.67-.34h2.44c2.2,0,4.93.05,4.93.57v.05c-.1.77-.19,1.15-.24,1.63-.19,2.68-.96,6.03-1.39,8.47-.29,2.15-.62,3.78-1.05,6.13Z"/>
      <path class="cls-1" d="m36,116.19c0-1.15.05-2.01.05-3.02,0-.81.05-.96.29-1.1.38-.29,1.2-.29,2.2-.29h.86c.57,0,1.2,0,1.96-.05h2.44c1.15,0,1.63.05,2.01.14s.48.24.48.38v.38c0,.77.05,1.48.05,2.15,0,1.63-.1,3.02-.1,4.93-.1,3.88-.05,6.08-.1,10.01v2.15c0,4.55.19,7.66.19,12.26v2.2c0,.43-.38.53-.81.53-2.78,0-5.55.05-8.04.05-.29,0-.57-.05-.91-.14-.19-.05-.24-.72-.24-.91,0-1.53-.14-2.68-.14-4.45-.1-9.77-.14-15.27-.19-25.04v-.19Z"/>
      <path class="cls-1" d="m60.51,118.3c-.53.38-1.68,1.68-1.87,2.63-.48,2.35-.57,3.93-.57,5.6,0,1.1.05,2.25.05,3.69v.38c0,.43,0,.96.05,1.39.1,1.34.1,1.92.34,3.21.29,1.63.72,2.25,2.01,2.92.29.14.62.19.91.29h.19c.53,0,.91-.24,1.34-.38.77-.34,1.2-1.29,1.2-2.01,0-.53-.14-.96-.57-1.15l-.57-.29c-.29-.14-.67-.24-1.01-.24-.14,0-.29,0-.43.05-.1,0-.14.05-.24.05-.29,0-.53-.14-.77-.38-.05-.1-.14-.19-.14-.34-.05-.57-.1-1.05-.1-1.53,0-.29,0-.57.1-.91s.34-.53.67-.53h1.2c2.63,0,5.22.14,7.61.14.38,0,.67.05.96.14s.72.62.72.96c0,1.58,0,2.3.05,3.02.1,2.11.14,5.17.38,7.8.05.58.05,1.15.05,1.77v1.34c0,.24,0,1.01-.19,1.01-.62,0-.96,0-1.48.1-.19.05-.43.05-.62.05-.34,0-.72-.05-1.05-.05-.14,0-.24.05-.38.05h-.19c-.43,0-.72-.29-.81-.77,0-.19-.05-.38-.05-.67-.14.05-.29,0-.38.05-.91.43-1.87.72-2.82.96-.62.14-1.24.19-1.82.29-.67.05-1.29.1-1.91.1-.38,0-.77.05-1.15.05-3.45,0-6.22-1.63-7.95-3.64-.62-.77-1.01-1.63-1.34-2.54-.48-1.25-.86-2.49-1.05-3.78-.48-2.06-.62-4.79-.62-7.18v-2.11c0-.48.05-1.01.1-1.44.34-3.69.62-6.56,1.72-9.34.86-2.11,2.54-3.69,4.5-4.74.24-.14.53-.24.77-.34.72-.34,1.44-.53,2.2-.67,1.48-.24,3.16-.43,4.84-.43s3.3.19,4.69.72c.62.19,1.2.48,1.77.77.67.34,1.24.86,1.63,1.53.34.48.57,1.01.77,1.58.57,1.58.77,3.35.77,5.46-.05.72-.05,1.48-.05,2.2,0,.67-.1,1.39-.19,2.06-.1.58-.24,2.06-.34,2.63-.1.43-.14.72-.57.86-.38.1-.81.1-1.2.1h-1.53c-.53,0-.86.05-1.39.1-.67.05-1.01.05-1.68.1h-.34c-.53-.05-.81,0-1.29-.14-.34-.1-.48-.24-.72-.48-.1-.1-.1-.24-.14-.38-.05-.86-.1-2.59-.1-3.45,0-.57.1-1.01.1-1.68.05-1.1.05-1.72.05-2.82,0-1.53,0-1.96-.96-1.96-.38,0-.81.05-1.1.24Z"/>
      <path class="cls-1" d="m86.27,118.3c-.53.38-1.68,1.68-1.87,2.63-.48,2.35-.57,3.93-.57,5.6,0,1.1.05,2.25.05,3.69v.38c0,.43,0,.96.05,1.39.1,1.34.1,1.92.34,3.21.29,1.63.72,2.25,2.01,2.92.29.14.62.19.91.29h.19c.53,0,.91-.24,1.34-.38.77-.34,1.2-1.29,1.2-2.01,0-.53-.14-.96-.57-1.15l-.57-.29c-.29-.14-.67-.24-1.01-.24-.14,0-.29,0-.43.05-.1,0-.14.05-.24.05-.29,0-.53-.14-.77-.38-.05-.1-.14-.19-.14-.34-.05-.57-.1-1.05-.1-1.53,0-.29,0-.57.1-.91s.34-.53.67-.53h1.2c2.63,0,5.22.14,7.61.14.38,0,.67.05.96.14.29.1.72.62.72.96,0,1.58,0,2.3.05,3.02.1,2.11.14,5.17.38,7.8.05.58.05,1.15.05,1.77v1.34c0,.24,0,1.01-.19,1.01-.62,0-.96,0-1.48.1-.19.05-.43.05-.62.05-.34,0-.72-.05-1.05-.05-.14,0-.24.05-.38.05h-.19c-.43,0-.72-.29-.81-.77,0-.19-.05-.38-.05-.67-.14.05-.29,0-.38.05-.91.43-1.87.72-2.82.96-.62.14-1.24.19-1.82.29-.67.05-1.29.1-1.91.1-.38,0-.77.05-1.15.05-3.45,0-6.22-1.63-7.95-3.64-.62-.77-1.01-1.63-1.34-2.54-.48-1.25-.86-2.49-1.05-3.78-.48-2.06-.62-4.79-.62-7.18v-2.11c0-.48.05-1.01.1-1.44.34-3.69.62-6.56,1.72-9.34.86-2.11,2.54-3.69,4.5-4.74.24-.14.53-.24.77-.34.72-.34,1.44-.53,2.2-.67,1.48-.24,3.16-.43,4.84-.43s3.3.19,4.69.72c.62.19,1.2.48,1.77.77.67.34,1.24.86,1.63,1.53.34.48.57,1.01.77,1.58.57,1.58.77,3.35.77,5.46-.05.72-.05,1.48-.05,2.2,0,.67-.1,1.39-.19,2.06-.1.58-.24,2.06-.34,2.63-.1.43-.14.72-.57.86-.38.1-.81.1-1.2.1h-1.53c-.53,0-.86.05-1.39.1-.67.05-1.01.05-1.68.1h-.34c-.53-.05-.81,0-1.29-.14-.34-.1-.48-.24-.72-.48-.1-.1-.1-.24-.14-.38-.05-.86-.1-2.59-.1-3.45,0-.57.1-1.01.1-1.68.05-1.1.05-1.72.05-2.82,0-1.53,0-1.96-.96-1.96-.38,0-.81.05-1.1.24Z"/>
      <path class="cls-1" d="m108.63,114.61c0,5.22-.48,8.43-.48,14.07v.1c0,.53-.05,1.15-.05,1.68v.67c0,1.96.05,3.97,1.29,4.79.34.24.91.48,1.53.48.57,0,1.15-.19,1.53-.62.05-.1.14-.14.19-.24.72-.91,1.44-2.68,1.44-5.27v-.24c0-5.27.34-10.15.34-15.18v-2.63c0-.19.24-.19.43-.19h.29c3.35.1,3.93.1,7.28.48.43.05.43.53.43,1.01v.62c0,2.01-.19,3.49-.19,5.55v.62c.05.29.05.62.05.86,0,1.82-.05,3.73-.05,5.55v.34c0,1.25-.1,3.02-.19,4.26-.1.72-.05,1.53-.1,2.3-.1,1.15-.1,2.35-.19,3.49-.72,5.75-2.63,8.62-7.76,9.91-.14,0-.34.1-.53.14-1.39.34-2.82.62-4.36.62-.57,0-1.2-.05-1.82-.14-.91-.14-1.77-.38-2.54-.81-2.35-1.15-3.69-3.4-4.45-6.18-1.1-3.93-1.05-8.91-1.15-13.64v-3.54c0-1.72.05-3.49.05-5.17v-1.05c0-1.63-.05-3.11-.05-4.69,0-.24.1-.43.34-.48.38-.05.72-.1,1.05-.1h6.37c.43,0,.91,0,1.1.43.05.19.19.62.19.91v1.29Z"/>
      <path class="cls-1" d="m125.43,112.13h.48c.53.05.96.05,1.39.05h2.11c.91,0,1.82,0,2.78.14.24.05.48,0,.67.19.34.34,2.39,8.04,2.54,8.47.48,1.39,1.05,4.36,1.39,5.74.05.14.14.29.24.48.24-.34.34-.62.43-.96.48-1.63,1.01-3.21,1.44-4.84.05-.24.14-.43.19-.62.1-.29,1.44-5.74,2.11-8.09.19-.62.24-.86.38-.96.1-.05.19-.05.29-.05.14,0,.38,0,.67.05,1.05.05,2.01.1,2.92.19,1.91.19,4.31,0,5.89.53.53.29.57,1.1.57,1.92v1.01c0,2.15.05,4.5.05,6.7,0,2.92-.05,5.89-.05,8.86v13.31c0,.81-.05,1.77-.24,2.39-.14.34-1.05.34-1.82.34h-3.49c-.62,0-1.24,0-1.96-.05-.24,0-.38-.14-.57-.24-.19-.1-.34-.29-.34-.57-.05-1.05-.05-2.11-.1-3.21v-2.25c0-1.44,0-2.87.05-4.26.14-2.2.14-3.4.19-5.55,0-.48.05-.86.05-1.24,0-.58-.05-1.2-.05-1.77-2.11,6.56-2.39,9.1-4.16,14.55-.19.67-.29,1.05-.81,1.05h-.24c-.34-.1-.43-.24-.57-.67-.91-2.59-2.68-6.99-3.69-10.58-.19-.72-.38-1.39-.81-2.2-.19-.38-.57-1.24-.77-1.24-.05,0-.1.05-.1.14-.19,1.01-.24,2.01-.24,2.97,0,4.88-.05,8.86-.05,14.08,0,.29-.1.43-.29.48-3.3.38-1.48.53-5.22.53-.24,0-.57-.05-.86-.1-.57-.14-.72-.38-.77-1.01,0-.91-.05-1.92-.05-2.92v-.29c0-1.1-.05-2.2-.05-3.35v-.96c0-1.2-.05-2.39-.05-3.59-.05-1.15-.05-2.39-.05-3.54s0-2.11.1-3.11c.1-.96.14-1.87.14-2.82-.05-1.53-.05-3.11-.1-4.69,0-1.58-.05-3.3-.05-5.03,0-.53-.05-1.01-.05-1.53s.05-1.05.19-1.68c.05-.14.19-.19.34-.19Z"/>
      <path class="cls-1" d="m169.14,122.27c.34-5.79,3.45-9,8.09-10.58.48-.14,1.01-.29,1.48-.34.53-.1,1.01-.14,1.53-.14,1.58,0,2.68,0,4.4.24,2.73.38,3.97.34,6.42,2.78.62.62.91,1.2,1.1,1.92.19.62.34,1.2.48,1.82.1.72.14,1.53.14,2.35,0,2.06-.05,3.16-.29,4.98-.1.57-.14,1.15-.24,1.72-.1.43-.29.72-.72.86-.38.1-.81.1-1.2.1h-4.26c-.19,0-.67.1-1.15.1-.81,0-1.68-.14-1.68-.91-.05-.57-.05-1.1-.05-1.63,0-1.68.1-2.54.1-4.16,0-.86-.1-1.63-.43-2.35-.05-.1-.1-.19-.19-.29-.34-.38-1.01-.53-1.63-.53-.24,0-.48.05-.72.19-.96.58-1.39,1.15-1.87,2.11-.43.91-.62,1.87-.67,2.82-.1,1.34-.19,2.39-.29,3.93v.57c.05.91.1,1.53.1,2.3v2.11c0,1.01,0,2.01.1,2.44.14.67.14,1.48.67,2.3.43.62,1.01.96,1.53.96h.1c.53,0,1.05-.24,1.48-.67.29-.29.38-.67.43-1.05.05-.48.14-2.39.19-2.78.05-.38.1-1.63.29-1.96.1-.19.34-.24.53-.24h.14c.81.05,1.29.1,2.11.14,1.1.1,1.68.19,2.78.19h.24c.86,0,1.44-.1,2.25-.1h.38c.43,0,.72.14,1.05.24.29.1.43.34.43.67.05.19.05.38.05.57-.05,1.72-.05,4.02-.19,5.75-.24,2.58-1.1,4.36-2.2,6.08-.43.62-.91,1.2-1.63,1.53-.62.24-1.2.53-1.82.72-.14.05-.24.1-.34.1-1.1.19-2.2.38-3.25.53-.81.1-1.58.19-2.39.19s-1.63-.1-2.39-.24c-.67-.14-1.34-.24-2.01-.38-1.72-.48-3.16-1.39-4.21-2.97-.38-.57-.81-1.24-1.05-1.91-.19-.48-.34-.91-.48-1.39-.34-1.15-.67-2.35-.77-3.59-.1-1.05-.24-2.11-.38-3.16-.05-.19-.05-.43-.05-.62-.1-1.48-.14-2.97-.24-4.45v-.57c0-.96.05-2.01.05-3.02.05-1.05.1-2.2.14-3.25Z"/>
      <path class="cls-1" d="m194.66,141.57c0-1.1.05-2.15.05-3.26,0-.53-.05-1.1-.05-1.63-.05-.91-.05-1.87-.05-2.78,0-1.29,0-2.54.05-3.83,0-2.15.14-4.31.19-6.46v-3.35c.05-1.44.19-2.54.19-3.93v-.53c-.05-.72-.1-1.48-.1-2.25v-.38c0-.34.1-.58.38-.77.19-.14.34-.14.53-.14h.43c.67,0,1.39-.05,2.06-.05s1.29.05,1.58.05c.67.05,1.96.05,2.63.1h.34c.57,0,.96.38.96.91,0,.1,0,.19-.05.34-.19.81-.19,1.63-.24,2.44-.1,1.39-.14,2.06-.14,3.49v1.91c0,.34-.05.72-.05,1.1,0,.14-.1.77-.1,1.29v.19c0,.96.05,1.15.05,2.59,0,.1.1.14.19.14s.24-.05.34-.05h.57c1.87.19,3.02.29,4.74.29h.19v-.1c0-1.68,0-2.59-.05-4.26v-.48c.05-1.29.14-2.25.14-3.3,0-.34-.05-.67-.05-1.01-.05-.67-.05-.53-.05-1.2-.05-.96-.14-1.91-.14-2.82,0-.29.05-.58.05-.86,0-.19.05-.34.14-.48.05-.1.19-.19.34-.19h.05c.14,0,.38-.05.62-.05,1.58-.05,3.3-.05,4.88-.1h.53c.48,0,.91.05.91.67,0,.38-.05.77-.05,1.15,0,.81.1,1.58.1,2.35,0,.34,0,.67-.05,1.01-.1,1.1-.1,1.96-.1,2.63v1.2c0,1.68.1,2.01.1,4.16v13.5c0,1.24-.1,2.11-.1,3.06,0,.34,0,.77.05,1.15,0,.19.05.43.05.72,0,.53-.05,1.2-.05,1.82v.62c0,.38-.05.72-.24.72h-5.27c-.1,0-.53-.05-.62-.05s-.24-.05-.34-.1c-.34-.14-.53-.62-.58-1.15v-3.35c0-.58-.05-1.15-.05-1.72-.05-.72-.05-1.39-.1-2.11-.05-.91-.05-1.53-.05-2.11v-2.82s-.14-.1-.19-.1h-.38c-1.1,0-1.24-.14-1.87-.14-.19,0-.43,0-.77.05-.72.05-1.2.1-1.82.1h-.43c-.29,0-.57.05-.57.29v.24c0,.67-.05,1.2-.05,2.01v.53c0,.53-.05.72-.05,1.01,0,.19,0,.34.05.62.1,1.87.1,3.88.19,5.94v2.11c0,.38-.34.67-.72.72-.34.05-.67.05-1.01.05-1.48,0-3.21-.24-4.55-.29h-2.25c-.19-.14-.38-.29-.38-.57v-4.5Z"/>
      <path class="cls-1" d="m219.13,116.19c0-1.15.05-2.01.05-3.02,0-.81.05-.96.29-1.1.38-.29,1.2-.29,2.2-.29h.86c.58,0,1.2,0,1.96-.05h2.44c1.15,0,1.63.05,2.01.14.38.1.48.24.48.38v.38c0,.77.05,1.48.05,2.15,0,1.63-.1,3.02-.1,4.93-.1,3.88-.05,6.08-.1,10.01v2.15c0,4.55.19,7.66.19,12.26v2.2c0,.43-.38.53-.81.53-2.78,0-5.55.05-8.04.05-.29,0-.57-.05-.91-.14-.19-.05-.24-.72-.24-.91,0-1.53-.14-2.68-.14-4.45-.1-9.77-.14-15.27-.19-25.04v-.19Z"/>
      <path class="cls-1" d="m247.99,142.48c0,.77,0,1.53-.1,2.3-.05.48.05.91-.14,1.34-.19.43-.53.67-.96.67-.48,0-.91-.05-1.39-.05-1.2,0-2.44.1-3.64.1h-.48c-.57-.05-1.15-.05-1.72-.05s-1.2,0-1.77.05c-.43.05-.81.05-1.25.05l-2.92-.14c-.29-.05-.62-.05-.91-.1-.48-.1-.62-.29-.62-.77-.1-1.53-.1-3.49-.1-5.17v-2.39c0-6.08,0-11.97-.29-17.95-.05-2.11-.29-4.6-.29-7.09,0-.1.05-.24.05-.34.05-.29,0-.53.34-.62.1-.05.24-.05.34-.05h.91c.24.05.43.05.67.05,2.3,0,1.01-.14,3.49-.14.19.05.58,0,.91.05.34.05.57,0,.86.14.29.19.38.29.38.53,0,.1,0,.19-.05.34-.05.57-.1,1.2-.1,1.82-.1,1.34-.14,2.68-.14,4.02,0,1.87.05,3.73.05,5.6v1.44c-.05,1.53-.14,5.94-.14,7.52,0,.58,0,1.01.05,1.2.05.34.14.72.24,1.1.14.43.43.67.91.72.58.1,1.15.1,1.72.1h1.2c1.05,0,1.63-.1,2.63-.19.43,0,.96-.05,1.34-.05.58,0,.91.14.91.77v.14c-.05.48-.05.86-.05,1.24,0,.72.05,1.39.05,2.3v1.53Z"/>
      <path class="cls-1" d="m250.29,116.19c0-1.15.05-2.01.05-3.02,0-.81.05-.96.29-1.1.38-.29,1.2-.29,2.2-.29h.86c.58,0,1.2,0,1.96-.05h2.44c1.15,0,1.63.05,2.01.14.38.1.48.24.48.38v.38c0,.77.05,1.48.05,2.15,0,1.63-.1,3.02-.1,4.93-.1,3.88-.05,6.08-.1,10.01v2.15c0,4.55.19,7.66.19,12.26v2.2c0,.43-.38.53-.81.53-2.78,0-5.55.05-8.04.05-.29,0-.57-.05-.91-.14-.19-.05-.24-.72-.24-.91,0-1.53-.14-2.68-.14-4.45-.1-9.77-.14-15.27-.19-25.04v-.19Z"/>
    </g>
    <g>
      <path class="cls-2" d="m6.13,28.2C6.98,13.43,14.92,5.25,26.76,1.22c1.22-.37,2.56-.73,3.78-.85,1.34-.24,2.56-.37,3.91-.37,4.03,0,6.84,0,11.23.61,6.96.98,10.13.85,16.36,7.08,1.59,1.59,2.32,3.05,2.81,4.88.49,1.59.85,3.05,1.22,4.64.24,1.83.37,3.91.37,5.98,0,5.25-.12,8.06-.73,12.7-.24,1.46-.37,2.93-.61,4.4-.24,1.1-.73,1.83-1.83,2.2-.98.24-2.08.24-3.05.24h-10.87c-.49,0-1.71.24-2.93.24-2.08,0-4.27-.37-4.27-2.32-.12-1.47-.12-2.81-.12-4.15,0-4.27.24-6.47.24-10.62,0-2.2-.24-4.15-1.1-5.98-.12-.24-.24-.49-.49-.73-.85-.98-2.56-1.34-4.15-1.34-.61,0-1.22.12-1.83.49-2.44,1.46-3.54,2.93-4.76,5.37-1.1,2.32-1.59,4.76-1.71,7.2-.24,3.42-.49,6.1-.73,10.01v1.46c.12,2.32.24,3.91.24,5.86v5.37c0,2.56,0,5.13.24,6.23.37,1.71.37,3.78,1.71,5.86,1.1,1.59,2.56,2.44,3.91,2.44h.24c1.34,0,2.69-.61,3.78-1.71.73-.73.98-1.71,1.1-2.69.12-1.22.37-6.1.49-7.08.12-.98.24-4.15.73-5.01.24-.49.85-.61,1.34-.61h.37c2.08.12,3.3.24,5.37.37,2.81.24,4.27.49,7.08.49h.61c2.2,0,3.66-.24,5.74-.24h.98c1.1,0,1.83.37,2.69.61.73.24,1.1.85,1.1,1.71.12.49.12.98.12,1.46-.12,4.39-.12,10.25-.49,14.65-.61,6.59-2.81,11.11-5.62,15.51-1.1,1.59-2.32,3.05-4.15,3.91-1.59.61-3.05,1.34-4.64,1.83-.37.12-.61.24-.85.24-2.81.49-5.62.98-8.3,1.34-2.08.24-4.03.49-6.1.49s-4.15-.24-6.1-.61c-1.71-.37-3.42-.61-5.13-.98-4.4-1.22-8.06-3.54-10.74-7.57-.98-1.46-2.08-3.17-2.69-4.88-.49-1.22-.85-2.32-1.22-3.54-.85-2.93-1.71-5.98-1.95-9.16-.24-2.69-.61-5.37-.98-8.06-.12-.49-.12-1.1-.12-1.59-.24-3.78-.37-7.57-.61-11.35v-1.46c0-2.44.12-5.13.12-7.69.12-2.69.24-5.62.37-8.3Z"/>
      <path class="cls-2" d="m71.2,77.4c0-2.81.12-5.49.12-8.3,0-1.34-.12-2.81-.12-4.15-.12-2.32-.12-4.76-.12-7.08,0-3.3,0-6.47.12-9.77,0-5.49.37-10.99.49-16.48v-8.55c.12-3.66.49-6.47.49-10.01v-1.34c-.12-1.83-.24-3.78-.24-5.74v-.98c0-.85.24-1.46.98-1.95.49-.37.85-.37,1.34-.37h1.1c1.71,0,3.54-.12,5.25-.12s3.3.12,4.03.12c1.71.12,5.01.12,6.71.24h.85c1.46,0,2.44.98,2.44,2.32,0,.24,0,.49-.12.85-.49,2.08-.49,4.15-.61,6.23-.24,3.54-.37,5.25-.37,8.91v4.88c0,.85-.12,1.83-.12,2.81,0,.37-.24,1.95-.24,3.3v.49c0,2.44.12,2.93.12,6.59,0,.24.24.37.49.37s.61-.12.85-.12h1.46c4.76.49,7.69.73,12.09.73h.49v-.24c0-4.27,0-6.59-.12-10.87v-1.22c.12-3.3.37-5.74.37-8.42,0-.85-.12-1.71-.12-2.56-.12-1.71-.12-1.34-.12-3.05-.12-2.44-.37-4.88-.37-7.2,0-.73.12-1.46.12-2.2,0-.49.12-.85.37-1.22.12-.24.49-.49.85-.49h.12c.37,0,.98-.12,1.59-.12,4.03-.12,8.42-.12,12.45-.24h1.34c1.22,0,2.32.12,2.32,1.71,0,.98-.12,1.95-.12,2.93,0,2.08.24,4.03.24,5.98,0,.85,0,1.71-.12,2.56-.24,2.81-.24,5.01-.24,6.71v3.05c0,4.27.24,5.13.24,10.62v34.43c0,3.17-.24,5.37-.24,7.81,0,.85,0,1.95.12,2.93,0,.49.12,1.1.12,1.83,0,1.34-.12,3.05-.12,4.64v1.59c0,.98-.12,1.83-.61,1.83h-13.43c-.24,0-1.34-.12-1.59-.12s-.61-.12-.85-.24c-.85-.37-1.34-1.59-1.46-2.93v-8.55c0-1.46-.12-2.93-.12-4.39-.12-1.83-.12-3.54-.24-5.37-.12-2.32-.12-3.91-.12-5.37v-7.2c0-.12-.37-.24-.49-.24h-.98c-2.81,0-3.17-.37-4.76-.37-.49,0-1.1,0-1.95.12-1.83.12-3.05.24-4.64.24h-1.1c-.73,0-1.46.12-1.46.73v.61c0,1.71-.12,3.05-.12,5.13v1.34c0,1.34-.12,1.83-.12,2.56,0,.49,0,.85.12,1.59.24,4.76.24,9.89.49,15.14v5.37c0,.98-.85,1.71-1.83,1.83-.85.12-1.71.12-2.56.12-3.78,0-8.18-.61-11.6-.73h-5.74c-.49-.37-.98-.73-.98-1.46v-11.48Z"/>
      <path class="cls-2" d="m133.58,12.7c0-2.93.12-5.13.12-7.69,0-2.08.12-2.44.73-2.81.98-.73,3.05-.73,5.62-.73h2.2c1.46,0,3.05,0,5.01-.12h6.23c2.93,0,4.15.12,5.13.37.98.24,1.22.61,1.22.98v.98c0,1.95.12,3.78.12,5.49,0,4.15-.24,7.69-.24,12.57-.24,9.89-.12,15.5-.24,25.52v5.49c0,11.6.49,19.53.49,31.25v5.62c0,1.1-.98,1.34-2.08,1.34-7.08,0-14.16.12-20.51.12-.73,0-1.47-.12-2.32-.37-.49-.12-.61-1.83-.61-2.32,0-3.91-.37-6.84-.37-11.35-.24-24.91-.37-38.94-.49-63.85v-.49Z"/>
      <path class="cls-2" d="m193.77,90.95h-1.59c-2.32,0-4.03-.24-6.35-.24h-1.1c-2.2.12-6.47.24-8.3.24-1.46,0-2.93-.12-4.39-.37-1.46-.24-2.81-.61-4.27-.98-.98-.24-1.47-.98-1.59-1.95-.12-.37-.12-.61-.12-.98,0-2.2-.12-4.39-.12-6.47v-15.26c0-4.15,0-8.3-.12-12.45-.24-4.88-.24-9.52-.24-14.04,0-6.84.12-13.43.12-20.63,0-4.76.12-10.01.12-14.89.12-.98.61-1.46,1.59-1.46,3.17,0,7.32.61,10.13.61,4.4.12,8.91.12,13.31.12,5.49,0,11.48-.12,16.73-.37h1.22c1.22,0,2.2.12,3.05.98.37.24.37,1.71.37,2.2v1.22c0,2.44.12,4.52.12,6.47,0,1.71,0,3.42-.24,5.62v4.64c.12,1.22.12,2.44.12,3.78,0,1.22-1.59,1.46-2.93,1.46-.85,0-1.71-.12-2.44-.12-4.03,0-9.64-.61-14.41-.61h-3.66c-.49.12-.85.37-.98.85,0,.12,0,.24-.12.37v4.76c0,.49,0,.85.12,1.34.24,0,4.15-.24,6.1-.24h7.08c1.1,0,2.2,0,3.66.12.85,0,1.46,0,2.32.12.61,0,2.2,0,2.69.24,1.22.37,1.71,3.05,1.71,4.52v1.83c0,4.15-.12,2.32-.12,6.96v.24c0,.49,0,.61-.37.98-.12.12-.85.24-1.1.24-5.98.24-11.84.37-18.19.37-1.1,0-2.08.24-3.05.49-.73.12-.98.49-.98,1.22-.12,2.44-.24,4.88-.24,7.33,0,.73.24.98.98.98,2.2.12,4.39.24,6.59.24h1.59c4.39,0,8.06.61,12.45.98.61.12,1.34,0,1.95.12,1.22.24,1.59.98,1.59,2.2,0,1.59.12,3.17.12,4.76v7.69c.12,3.17.24,7.57.37,10.74v1.34c0,1.34-.12,1.46-1.1,1.83-.37.12-.61.24-.98.24-3.91.37-8.67.49-13.31.49-1.22,0-2.32,0-3.78.12Z"/>
      <path class="cls-2" d="m260.43,28.32c-.49,0-1.22-.12-1.46-.12-1.95,0-4.03-.24-6.47-.24-.85,0-1.71.12-2.56.12h-5.25c-2.2,0-3.91.12-3.91,1.22,0,.49-.12,10.25-.12,12.21,0,.98,0,1.83.12,2.08,0,.61,0,1.1.24,1.59.24.12.49.12.73.12h1.95c7.2,0,5.74.12,8.91.12.12,0,.98.12,1.1.12h.49c1.95,0,2.69.12,5.01.12.61,0,1.22.12,1.22.49.12,4.03.24,6.96.24,11.35v2.32c0,1.46-.37,2.44-2.2,2.44-2.69,0-7.08.49-10.26.49-2.93,0-7.2.12-7.2,1.34v.24c.12,5.86.49,12.45.49,18.8v5.25c-.12,1.59-.49,2.2-1.83,2.32-1.34,0-2.69.24-4.03.24h-3.54c-1.22,0-.73,0-1.95-.12-.49-.12-1.1-.12-1.71-.12-1.22,0-2.56.12-3.66.12-.61,0-1.71.12-2.56.12h-1.46c-.24,0-.61,0-.85-.24-.24-.24-.37-.98-.37-1.34-.12-.98-.12-1.83-.12-2.69,0-20.88-.61-41.26-1.22-61.65,0-2.93.12-5.86.24-8.79v-.98c0-1.34-.12-2.69-.12-4.03-.12-1.95-.24-3.91-.24-5.74,0-1.1.24-2.08.98-2.93.37-.37.61-.49,1.1-.49h.24c5.74.24,9.89.37,15.75.37s16.85-1.22,22.59-1.22h.85c1.46.12,1.95.49,1.95,1.83v10.5c-.12,1.95,0,3.66-.12,5.49v5.98c0,1.1,0,1.71-.12,2.81,0,.37-.37.49-.85.49Z"/>
      <path class="cls-2" d="m35.66,126.01c-.86,4.74-1.44,7.37-2.2,12.06-.43,2.59-.48,5.65-.96,6.7-.05.1-.57.19-1.34.24h-.53c-1.68,0-4.5-.38-4.74-.38-.57,0-1.05-.29-1.29-.96-.38-.96-.77-2.01-.96-3.02-.24-1.01-.48-2.06-.72-3.06-.1-.48-.14-.91-.34-1.44-.14-.43-.14-1.68-.48-1.96-.05,0-.57,1.72-.67,1.96-.53,1.58-.72,2.59-1.24,4.12-.48,1.44-.62,2.68-1.53,3.59-.34.29-1.24.29-1.68.34-.91.1-4.07.1-6.65.14h-.57c-.24,0-.38,0-.48-.34-.53-3.21-1.34-7.09-2.06-11.63-.72-4.31-.96-6.8-1.58-11.15-.34-3.49-.77-6.46-1.29-10.34v-.24c0-.62.24-.81.77-.86.05,0,.57-.1.62-.1h.24c1.68,0,3.26.1,4.98.1.57,0,1.15,0,1.77-.05h.53c.53.05,1.05-.05,1.15.53,0,1.82.24,3.16.43,5.03.05.53.05.81.1,1.39.48,4.74.96,8.47,1.39,14.03,0,.19.38,3.16.38,3.16.19-.57,1.82-4.98,2.06-5.6,1.01-2.87,2.06-5.51,3.26-8.19.05-.19.19-.38.34-.57.14-.14.29-.24.48-.24.14,0,.24.05.38.14.29.14.48.48.53.81.29,1.2.62,2.35.72,3.59.1,1.05.34,2.15.48,3.21.05.48.91,6.13,1.1,6.13.24-.62.86-3.49,1.01-4.07.24-1.1.48-2.01.72-3.3.86-4.93,1.58-9.91,2.11-15.13.05-.48.24-.86.43-1.15.14-.24.43-.34.67-.34h2.44c2.2,0,4.93.05,4.93.57v.05c-.1.77-.19,1.15-.24,1.63-.19,2.68-.96,6.03-1.39,8.47-.29,2.15-.62,3.78-1.05,6.13Z"/>
      <path class="cls-2" d="m40.36,113.8c0-1.15.05-2.01.05-3.02,0-.81.05-.96.29-1.1.38-.29,1.2-.29,2.2-.29h.86c.57,0,1.2,0,1.96-.05h2.44c1.15,0,1.63.05,2.01.14s.48.24.48.38v.38c0,.77.05,1.48.05,2.15,0,1.63-.1,3.02-.1,4.93-.1,3.88-.05,6.08-.1,10.01v2.15c0,4.55.19,7.66.19,12.26v2.2c0,.43-.38.53-.81.53-2.78,0-5.55.05-8.04.05-.29,0-.57-.05-.91-.14-.19-.05-.24-.72-.24-.91,0-1.53-.14-2.68-.14-4.45-.1-9.77-.14-15.27-.19-25.04v-.19Z"/>
      <path class="cls-2" d="m64.87,115.91c-.53.38-1.68,1.68-1.87,2.63-.48,2.35-.57,3.93-.57,5.6,0,1.1.05,2.25.05,3.69v.38c0,.43,0,.96.05,1.39.1,1.34.1,1.92.34,3.21.29,1.63.72,2.25,2.01,2.92.29.14.62.19.91.29h.19c.53,0,.91-.24,1.34-.38.77-.34,1.2-1.29,1.2-2.01,0-.53-.14-.96-.57-1.15l-.57-.29c-.29-.14-.67-.24-1.01-.24-.14,0-.29,0-.43.05-.1,0-.14.05-.24.05-.29,0-.53-.14-.77-.38-.05-.1-.14-.19-.14-.34-.05-.57-.1-1.05-.1-1.53,0-.29,0-.57.1-.91s.34-.53.67-.53h1.2c2.63,0,5.22.14,7.61.14.38,0,.67.05.96.14s.72.62.72.96c0,1.58,0,2.3.05,3.02.1,2.11.14,5.17.38,7.8.05.58.05,1.15.05,1.77v1.34c0,.24,0,1.01-.19,1.01-.62,0-.96,0-1.48.1-.19.05-.43.05-.62.05-.34,0-.72-.05-1.05-.05-.14,0-.24.05-.38.05h-.19c-.43,0-.72-.29-.81-.77,0-.19-.05-.38-.05-.67-.14.05-.29,0-.38.05-.91.43-1.87.72-2.82.96-.62.14-1.24.19-1.82.29-.67.05-1.29.1-1.91.1-.38,0-.77.05-1.15.05-3.45,0-6.22-1.63-7.95-3.64-.62-.77-1.01-1.63-1.34-2.54-.48-1.25-.86-2.49-1.05-3.78-.48-2.06-.62-4.79-.62-7.18v-2.11c0-.48.05-1.01.1-1.44.34-3.69.62-6.56,1.72-9.34.86-2.11,2.54-3.69,4.5-4.74.24-.14.53-.24.77-.34.72-.34,1.44-.53,2.2-.67,1.48-.24,3.16-.43,4.84-.43s3.3.19,4.69.72c.62.19,1.2.48,1.77.77.67.34,1.24.86,1.63,1.53.34.48.57,1.01.77,1.58.57,1.58.77,3.35.77,5.46-.05.72-.05,1.48-.05,2.2,0,.67-.1,1.39-.19,2.06-.1.58-.24,2.06-.34,2.63-.1.43-.14.72-.57.86-.38.1-.81.1-1.2.1h-1.53c-.53,0-.86.05-1.39.1-.67.05-1.01.05-1.68.1h-.34c-.53-.05-.81,0-1.29-.14-.34-.1-.48-.24-.72-.48-.1-.1-.1-.24-.14-.38-.05-.86-.1-2.59-.1-3.45,0-.57.1-1.01.1-1.68.05-1.1.05-1.72.05-2.82,0-1.53,0-1.96-.96-1.96-.38,0-.81.05-1.1.24Z"/>
      <path class="cls-2" d="m90.62,115.91c-.53.38-1.68,1.68-1.87,2.63-.48,2.35-.57,3.93-.57,5.6,0,1.1.05,2.25.05,3.69v.38c0,.43,0,.96.05,1.39.1,1.34.1,1.92.34,3.21.29,1.63.72,2.25,2.01,2.92.29.14.62.19.91.29h.19c.53,0,.91-.24,1.34-.38.77-.34,1.2-1.29,1.2-2.01,0-.53-.14-.96-.57-1.15l-.57-.29c-.29-.14-.67-.24-1.01-.24-.14,0-.29,0-.43.05-.1,0-.14.05-.24.05-.29,0-.53-.14-.77-.38-.05-.1-.14-.19-.14-.34-.05-.57-.1-1.05-.1-1.53,0-.29,0-.57.1-.91s.34-.53.67-.53h1.2c2.63,0,5.22.14,7.61.14.38,0,.67.05.96.14.29.1.72.62.72.96,0,1.58,0,2.3.05,3.02.1,2.11.14,5.17.38,7.8.05.58.05,1.15.05,1.77v1.34c0,.24,0,1.01-.19,1.01-.62,0-.96,0-1.48.1-.19.05-.43.05-.62.05-.34,0-.72-.05-1.05-.05-.14,0-.24.05-.38.05h-.19c-.43,0-.72-.29-.81-.77,0-.19-.05-.38-.05-.67-.14.05-.29,0-.38.05-.91.43-1.87.72-2.82.96-.62.14-1.24.19-1.82.29-.67.05-1.29.1-1.91.1-.38,0-.77.05-1.15.05-3.45,0-6.22-1.63-7.95-3.64-.62-.77-1.01-1.63-1.34-2.54-.48-1.25-.86-2.49-1.05-3.78-.48-2.06-.62-4.79-.62-7.18v-2.11c0-.48.05-1.01.1-1.44.34-3.69.62-6.56,1.72-9.34.86-2.11,2.54-3.69,4.5-4.74.24-.14.53-.24.77-.34.72-.34,1.44-.53,2.2-.67,1.48-.24,3.16-.43,4.84-.43s3.3.19,4.69.72c.62.19,1.2.48,1.77.77.67.34,1.24.86,1.63,1.53.34.48.57,1.01.77,1.58.57,1.58.77,3.35.77,5.46-.05.72-.05,1.48-.05,2.2,0,.67-.1,1.39-.19,2.06-.1.58-.24,2.06-.34,2.63-.1.43-.14.72-.57.86-.38.1-.81.1-1.2.1h-1.53c-.53,0-.86.05-1.39.1-.67.05-1.01.05-1.68.1h-.34c-.53-.05-.81,0-1.29-.14-.34-.1-.48-.24-.72-.48-.1-.1-.1-.24-.14-.38-.05-.86-.1-2.59-.1-3.45,0-.57.1-1.01.1-1.68.05-1.1.05-1.72.05-2.82,0-1.53,0-1.96-.96-1.96-.38,0-.81.05-1.1.24Z"/>
      <path class="cls-2" d="m112.98,112.22c0,5.22-.48,8.43-.48,14.07v.1c0,.53-.05,1.15-.05,1.68v.67c0,1.96.05,3.97,1.29,4.79.34.24.91.48,1.53.48.57,0,1.15-.19,1.53-.62.05-.1.14-.14.19-.24.72-.91,1.44-2.68,1.44-5.27v-.24c0-5.27.34-10.15.34-15.18v-2.63c0-.19.24-.19.43-.19h.29c3.35.1,3.93.1,7.28.48.43.05.43.53.43,1.01v.62c0,2.01-.19,3.49-.19,5.55v.62c.05.29.05.62.05.86,0,1.82-.05,3.73-.05,5.55v.34c0,1.25-.1,3.02-.19,4.26-.1.72-.05,1.53-.1,2.3-.1,1.15-.1,2.35-.19,3.49-.72,5.75-2.63,8.62-7.76,9.91-.14,0-.34.1-.53.14-1.39.34-2.82.62-4.36.62-.57,0-1.2-.05-1.82-.14-.91-.14-1.77-.38-2.54-.81-2.35-1.15-3.69-3.4-4.45-6.18-1.1-3.93-1.05-8.91-1.15-13.64v-3.54c0-1.72.05-3.49.05-5.17v-1.05c0-1.63-.05-3.11-.05-4.69,0-.24.1-.43.34-.48.38-.05.72-.1,1.05-.1h6.37c.43,0,.91,0,1.1.43.05.19.19.62.19.91v1.29Z"/>
      <path class="cls-2" d="m129.79,109.73h.48c.53.05.96.05,1.39.05h2.11c.91,0,1.82,0,2.78.14.24.05.48,0,.67.19.34.34,2.39,8.04,2.54,8.47.48,1.39,1.05,4.36,1.39,5.74.05.14.14.29.24.48.24-.34.34-.62.43-.96.48-1.63,1.01-3.21,1.44-4.84.05-.24.14-.43.19-.62.1-.29,1.44-5.74,2.11-8.09.19-.62.24-.86.38-.96.1-.05.19-.05.29-.05.14,0,.38,0,.67.05,1.05.05,2.01.1,2.92.19,1.91.19,4.31,0,5.89.53.53.29.57,1.1.57,1.92v1.01c0,2.15.05,4.5.05,6.7,0,2.92-.05,5.89-.05,8.86v13.31c0,.81-.05,1.77-.24,2.39-.14.34-1.05.34-1.82.34h-3.49c-.62,0-1.24,0-1.96-.05-.24,0-.38-.14-.57-.24-.19-.1-.34-.29-.34-.57-.05-1.05-.05-2.11-.1-3.21v-2.25c0-1.44,0-2.87.05-4.26.14-2.2.14-3.4.19-5.55,0-.48.05-.86.05-1.24,0-.58-.05-1.2-.05-1.77-2.11,6.56-2.39,9.1-4.16,14.55-.19.67-.29,1.05-.81,1.05h-.24c-.34-.1-.43-.24-.57-.67-.91-2.59-2.68-6.99-3.69-10.58-.19-.72-.38-1.39-.81-2.2-.19-.38-.57-1.24-.77-1.24-.05,0-.1.05-.1.14-.19,1.01-.24,2.01-.24,2.97,0,4.88-.05,8.86-.05,14.08,0,.29-.1.43-.29.48-3.3.38-1.48.53-5.22.53-.24,0-.57-.05-.86-.1-.57-.14-.72-.38-.77-1.01,0-.91-.05-1.92-.05-2.92v-.29c0-1.1-.05-2.2-.05-3.35v-.96c0-1.2-.05-2.39-.05-3.59-.05-1.15-.05-2.39-.05-3.54s0-2.11.1-3.11c.1-.96.14-1.87.14-2.82-.05-1.53-.05-3.11-.1-4.69,0-1.58-.05-3.3-.05-5.03,0-.53-.05-1.01-.05-1.53s.05-1.05.19-1.68c.05-.14.19-.19.34-.19Z"/>
      <path class="cls-2" d="m173.5,119.88c.34-5.79,3.45-9,8.09-10.58.48-.14,1.01-.29,1.48-.34.53-.1,1.01-.14,1.53-.14,1.58,0,2.68,0,4.4.24,2.73.38,3.97.34,6.42,2.78.62.62.91,1.2,1.1,1.92.19.62.34,1.2.48,1.82.1.72.14,1.53.14,2.35,0,2.06-.05,3.16-.29,4.98-.1.57-.14,1.15-.24,1.72-.1.43-.29.72-.72.86-.38.1-.81.1-1.2.1h-4.26c-.19,0-.67.1-1.15.1-.81,0-1.68-.14-1.68-.91-.05-.57-.05-1.1-.05-1.63,0-1.68.1-2.54.1-4.16,0-.86-.1-1.63-.43-2.35-.05-.1-.1-.19-.19-.29-.34-.38-1.01-.53-1.63-.53-.24,0-.48.05-.72.19-.96.58-1.39,1.15-1.87,2.11-.43.91-.62,1.87-.67,2.82-.1,1.34-.19,2.39-.29,3.93v.57c.05.91.1,1.53.1,2.3v2.11c0,1.01,0,2.01.1,2.44.14.67.14,1.48.67,2.3.43.62,1.01.96,1.53.96h.1c.53,0,1.05-.24,1.48-.67.29-.29.38-.67.43-1.05.05-.48.14-2.39.19-2.78.05-.38.1-1.63.29-1.96.1-.19.34-.24.53-.24h.14c.81.05,1.29.1,2.11.14,1.1.1,1.68.19,2.78.19h.24c.86,0,1.44-.1,2.25-.1h.38c.43,0,.72.14,1.05.24.29.1.43.34.43.67.05.19.05.38.05.57-.05,1.72-.05,4.02-.19,5.75-.24,2.58-1.1,4.36-2.2,6.08-.43.62-.91,1.2-1.63,1.53-.62.24-1.2.53-1.82.72-.14.05-.24.1-.34.1-1.1.19-2.2.38-3.25.53-.81.1-1.58.19-2.39.19s-1.63-.1-2.39-.24c-.67-.14-1.34-.24-2.01-.38-1.72-.48-3.16-1.39-4.21-2.97-.38-.57-.81-1.24-1.05-1.91-.19-.48-.34-.91-.48-1.39-.34-1.15-.67-2.35-.77-3.59-.1-1.05-.24-2.11-.38-3.16-.05-.19-.05-.43-.05-.62-.1-1.48-.14-2.97-.24-4.45v-.57c0-.96.05-2.01.05-3.02.05-1.05.1-2.2.14-3.25Z"/>
      <path class="cls-2" d="m199.02,139.17c0-1.1.05-2.15.05-3.26,0-.53-.05-1.1-.05-1.63-.05-.91-.05-1.87-.05-2.78,0-1.29,0-2.54.05-3.83,0-2.15.14-4.31.19-6.46v-3.35c.05-1.44.19-2.54.19-3.93v-.53c-.05-.72-.1-1.48-.1-2.25v-.38c0-.34.1-.58.38-.77.19-.14.34-.14.53-.14h.43c.67,0,1.39-.05,2.06-.05s1.29.05,1.58.05c.67.05,1.96.05,2.63.1h.34c.57,0,.96.38.96.91,0,.1,0,.19-.05.34-.19.81-.19,1.63-.24,2.44-.1,1.39-.14,2.06-.14,3.49v1.91c0,.34-.05.72-.05,1.1,0,.14-.1.77-.1,1.29v.19c0,.96.05,1.15.05,2.59,0,.1.1.14.19.14s.24-.05.34-.05h.57c1.87.19,3.02.29,4.74.29h.19v-.1c0-1.68,0-2.59-.05-4.26v-.48c.05-1.29.14-2.25.14-3.3,0-.34-.05-.67-.05-1.01-.05-.67-.05-.53-.05-1.2-.05-.96-.14-1.91-.14-2.82,0-.29.05-.58.05-.86,0-.19.05-.34.14-.48.05-.1.19-.19.34-.19h.05c.14,0,.38-.05.62-.05,1.58-.05,3.3-.05,4.88-.1h.53c.48,0,.91.05.91.67,0,.38-.05.77-.05,1.15,0,.81.1,1.58.1,2.35,0,.34,0,.67-.05,1.01-.1,1.1-.1,1.96-.1,2.63v1.2c0,1.68.1,2.01.1,4.16v13.5c0,1.24-.1,2.11-.1,3.06,0,.34,0,.77.05,1.15,0,.19.05.43.05.72,0,.53-.05,1.2-.05,1.82v.62c0,.38-.05.72-.24.72h-5.27c-.1,0-.53-.05-.62-.05s-.24-.05-.34-.1c-.34-.14-.53-.62-.58-1.15v-3.35c0-.58-.05-1.15-.05-1.72-.05-.72-.05-1.39-.1-2.11-.05-.91-.05-1.53-.05-2.11v-2.82s-.14-.1-.19-.1h-.38c-1.1,0-1.24-.14-1.87-.14-.19,0-.43,0-.77.05-.72.05-1.2.1-1.82.1h-.43c-.29,0-.57.05-.57.29v.24c0,.67-.05,1.2-.05,2.01v.53c0,.53-.05.72-.05,1.01,0,.19,0,.34.05.62.1,1.87.1,3.88.19,5.94v2.11c0,.38-.34.67-.72.72-.34.05-.67.05-1.01.05-1.48,0-3.21-.24-4.55-.29h-2.25c-.19-.14-.38-.29-.38-.57v-4.5Z"/>
      <path class="cls-2" d="m223.48,113.8c0-1.15.05-2.01.05-3.02,0-.81.05-.96.29-1.1.38-.29,1.2-.29,2.2-.29h.86c.58,0,1.2,0,1.96-.05h2.44c1.15,0,1.63.05,2.01.14.38.1.48.24.48.38v.38c0,.77.05,1.48.05,2.15,0,1.63-.1,3.02-.1,4.93-.1,3.88-.05,6.08-.1,10.01v2.15c0,4.55.19,7.66.19,12.26v2.2c0,.43-.38.53-.81.53-2.78,0-5.55.05-8.04.05-.29,0-.57-.05-.91-.14-.19-.05-.24-.72-.24-.91,0-1.53-.14-2.68-.14-4.45-.1-9.77-.14-15.27-.19-25.04v-.19Z"/>
      <path class="cls-2" d="m252.35,140.08c0,.77,0,1.53-.1,2.3-.05.48.05.91-.14,1.34-.19.43-.53.67-.96.67-.48,0-.91-.05-1.39-.05-1.2,0-2.44.1-3.64.1h-.48c-.57-.05-1.15-.05-1.72-.05s-1.2,0-1.77.05c-.43.05-.81.05-1.25.05l-2.92-.14c-.29-.05-.62-.05-.91-.1-.48-.1-.62-.29-.62-.77-.1-1.53-.1-3.49-.1-5.17v-2.39c0-6.08,0-11.97-.29-17.95-.05-2.11-.29-4.6-.29-7.09,0-.1.05-.24.05-.34.05-.29,0-.53.34-.62.1-.05.24-.05.34-.05h.91c.24.05.43.05.67.05,2.3,0,1.01-.14,3.49-.14.19.05.58,0,.91.05.34.05.57,0,.86.14.29.19.38.29.38.53,0,.1,0,.19-.05.34-.05.57-.1,1.2-.1,1.82-.1,1.34-.14,2.68-.14,4.02,0,1.87.05,3.73.05,5.6v1.44c-.05,1.53-.14,5.94-.14,7.52,0,.58,0,1.01.05,1.2.05.34.14.72.24,1.1.14.43.43.67.91.72.58.1,1.15.1,1.72.1h1.2c1.05,0,1.63-.1,2.63-.19.43,0,.96-.05,1.34-.05.58,0,.91.14.91.77v.14c-.05.48-.05.86-.05,1.24,0,.72.05,1.39.05,2.3v1.53Z"/>
      <path class="cls-2" d="m254.65,113.8c0-1.15.05-2.01.05-3.02,0-.81.05-.96.29-1.1.38-.29,1.2-.29,2.2-.29h.86c.58,0,1.2,0,1.96-.05h2.44c1.15,0,1.63.05,2.01.14.38.1.48.24.48.38v.38c0,.77.05,1.48.05,2.15,0,1.63-.1,3.02-.1,4.93-.1,3.88-.05,6.08-.1,10.01v2.15c0,4.55.19,7.66.19,12.26v2.2c0,.43-.38.53-.81.53-2.78,0-5.55.05-8.04.05-.29,0-.57-.05-.91-.14-.19-.05-.24-.72-.24-.91,0-1.53-.14-2.68-.14-4.45-.1-9.77-.14-15.27-.19-25.04v-.19Z"/>
    </g>
  </g>
</svg>