<?xml version="1.0" encoding="UTF-8"?>
<svg id="Layer_2" data-name="Layer 2" xmlns="http://www.w3.org/2000/svg" viewBox="0 0 230.95 125.58">
  <defs>
    <style>
      .cls-1, .cls-2 {
        stroke-width: 0px;
      }

      .cls-2 {
        fill: #fff;
      }
    </style>
  </defs>
  <g id="good_morning_burger_logo" data-name="good morning burger logo">
    <g>
      <path class="cls-1" d="m23.5,18.78c-.27,0-.68-.07-.81-.07-1.08,0-2.23-.14-3.59-.14-.47,0-.95.07-1.42.07h-2.91c-1.22,0-2.17.07-2.17.68,0,.27-.07,5.69-.07,6.77,0,.54,0,1.02.07,1.15,0,.34,0,.61.14.88.14.07.27.07.41.07h1.08c4,0,3.18.07,4.94.07.07,0,.54.07.61.07h.27c1.08,0,1.49.07,2.78.07.34,0,.68.07.68.27.07,2.24.14,3.86.14,6.3v1.29c0,.81-.2,1.35-1.22,1.35-1.49,0-3.93.27-5.69.27-1.62,0-3.99.07-3.99.75v.14c.07,3.25.27,6.91.27,10.43v2.91c-.07.88-.27,1.22-1.02,1.29-.74,0-1.49.14-2.23.14h-1.96c-.68,0-.41,0-1.08-.07-.27-.07-.61-.07-.95-.07-.68,0-1.42.07-2.03.07-.34,0-.95.07-1.42.07h-.81c-.14,0-.34,0-.47-.14s-.2-.54-.2-.74c-.07-.54-.07-1.02-.07-1.49C.75,39.56.41,28.26.07,16.95c0-1.63.07-3.25.14-4.88v-.54c0-.75-.07-1.49-.07-2.23-.07-1.08-.14-2.17-.14-3.18,0-.61.14-1.15.54-1.63.2-.2.34-.27.61-.27h.14c3.18.14,5.49.2,8.73.2s9.35-.68,12.53-.68h.47c.81.07,1.08.27,1.08,1.02v5.82c-.07,1.08,0,2.03-.07,3.05v3.32c0,.61,0,.95-.07,1.56,0,.2-.2.27-.47.27Z"/>
      <path class="cls-1" d="m50.11,47.28c0,1.08,0,2.17-.14,3.25-.07.68.07,1.29-.2,1.9-.27.61-.74.95-1.35.95-.68,0-1.29-.07-1.96-.07-1.69,0-3.45.14-5.15.14h-.68c-.81-.07-1.63-.07-2.44-.07s-1.69,0-2.51.07c-.61.07-1.15.07-1.76.07l-4.13-.2c-.41-.07-.88-.07-1.29-.14-.68-.14-.88-.41-.88-1.08-.14-2.17-.14-4.94-.14-7.31v-3.39c0-8.6,0-16.93-.41-25.39-.07-2.98-.41-6.5-.41-10.02,0-.14.07-.34.07-.47.07-.41,0-.75.47-.88.14-.07.34-.07.47-.07h1.29c.34.07.61.07.95.07,3.25,0,1.42-.2,4.94-.2.27.07.81,0,1.29.07.47.07.81,0,1.22.2.41.27.54.41.54.75,0,.14,0,.27-.07.47-.07.81-.14,1.69-.14,2.57-.14,1.9-.2,3.79-.2,5.69,0,2.64.07,5.28.07,7.92v2.03c-.07,2.17-.2,8.4-.2,10.63,0,.81,0,1.42.07,1.69.07.47.2,1.02.34,1.56.2.61.61.95,1.29,1.02.81.14,1.62.14,2.44.14h1.69c1.49,0,2.3-.14,3.72-.27.61,0,1.35-.07,1.9-.07.81,0,1.29.2,1.29,1.08v.2c-.07.68-.07,1.22-.07,1.76,0,1.02.07,1.96.07,3.25v2.17Z"/>
      <path class="cls-1" d="m54.65,40.51c.27-.68,1.15-6.77,1.29-7.52.14-.61.27-1.15.41-1.76.34-1.08.47-4.81.81-5.82.14-.41.2-.74.2-1.08.27-1.83.68-3.99,1.08-6.36.14-.81.2-1.69.41-2.57.27-1.69.68-3.52,1.02-5.35.47-1.9.95-3.45,1.42-5.49.07-.27.27-.34.61-.34h1.02c.47-.14,2.1-.2,3.72-.2,1.83,0,3.66.07,4.2.14.41,0,.74.07,1.02.07.88,0,1.96-.07,3.05-.07,1.9,0,3.86.14,4.94.81.14.2.14.34.14.54.47,1.96.34,2.51.95,4.4.2.81.54,2.91.74,3.66.34,1.76.68,3.45,1.08,5.21.2.95.34,1.9.61,2.84,1.62,6.91,2.84,13.88,4.6,20.52.14.81.2,1.22.41,2.03v.14c.27,1.22.47,2.03.75,3.32,0,.07.54,3.05.54,3.11.07.07.41,2.23.41,2.3v.14c0,.34-.61.41-1.35.41-.68,0-1.56-.07-2.3-.07h-.41c-1.22.07-3.59.07-4.81.07h-5.15c-.41,0-.68-2.57-1.02-4.33-.34-1.56-.61-3.52-.68-4.06-.14-1.02-.27-2.03-.47-2.98-.07-.2-.14-.41-.14-.61-.27-1.9-.47-3.05-.88-4.94-.07-.47-.27-.75-.75-.81-.2-.07-3.25-.2-3.52-.2-.34-.07-.75-.14-1.08-.14-.41,0-.81.07-1.29.14-.47.07-.47,3.52-.54,4.88-.07,1.02-.07,2.17-.14,3.39,0,1.22-.07,2.44-.07,3.59-.07.88-.07,1.69-.14,2.37,0,.81-.07,1.42-.07,1.96-.14,1.29-.27,1.56-1.15,1.62-.75.07-3.39.07-5.62.27-.68.14-1.35.07-1.96.14h-1.35c-.27.07-.54.07-.75.07-1.15,0-1.49-.27-1.49-1.02,0-.34.07-.75.14-1.29.54-3.59,1.35-10.43,1.56-11.11Zm17.33-11.65c-.68-5.08-1.02-7.92-1.69-13-.07-.2,0-.41-.2-.47-.2-.14-.61-.34-.95-.34h-.07c-.2,0-.41.07-.41.14-.34,1.76-1.83,12.05-1.9,13.81v.07c0,.2,0,.34.07.47.07.14.2.27.41.27h.07c.47-.07,1.49-.07,2.37-.07h1.42c.74,0,1.08-.2.88-.88Z"/>
      <path class="cls-1" d="m93.04,4.35h.68c.75.07,1.35.07,1.96.07h2.98c1.29,0,2.57,0,3.93.2.34.07.68,0,.95.27.47.47,3.39,11.38,3.59,11.99.68,1.96,1.49,6.16,1.96,8.13.07.2.2.41.34.68.34-.47.47-.88.61-1.35.68-2.3,1.42-4.54,2.03-6.84.07-.34.2-.61.27-.88.14-.41,2.03-8.13,2.98-11.44.27-.88.34-1.22.54-1.35.14-.07.27-.07.41-.07.2,0,.54,0,.95.07,1.49.07,2.84.14,4.13.27,2.71.27,6.09,0,8.33.75.75.41.81,1.56.81,2.71v1.42c0,3.05.07,6.37.07,9.48,0,4.13-.07,8.33-.07,12.53v18.82c0,1.15-.07,2.51-.34,3.39-.2.47-1.49.47-2.57.47h-4.94c-.88,0-1.76,0-2.78-.07-.34,0-.54-.2-.81-.34s-.47-.41-.47-.81c-.07-1.49-.07-2.98-.14-4.54v-3.18c0-2.03,0-4.06.07-6.03.2-3.12.2-4.81.27-7.85,0-.68.07-1.22.07-1.76,0-.81-.07-1.69-.07-2.51-2.98,9.28-3.39,12.87-5.89,20.58-.27.95-.41,1.49-1.15,1.49h-.34c-.47-.14-.61-.34-.81-.95-1.29-3.66-3.79-9.89-5.21-14.96-.27-1.02-.54-1.96-1.15-3.11-.27-.54-.81-1.76-1.08-1.76-.07,0-.14.07-.14.2-.27,1.42-.34,2.84-.34,4.2,0,6.91-.07,12.53-.07,19.91,0,.41-.14.61-.41.68-4.67.54-2.1.75-7.38.75-.34,0-.81-.07-1.22-.14-.81-.2-1.02-.54-1.08-1.42,0-1.29-.07-2.71-.07-4.13v-.41c0-1.56-.07-3.12-.07-4.74v-1.35c0-1.69-.07-3.39-.07-5.08-.07-1.63-.07-3.39-.07-5.01s0-2.98.14-4.4c.14-1.35.2-2.64.2-4-.07-2.17-.07-4.4-.14-6.64,0-2.23-.07-4.67-.07-7.11,0-.75-.07-1.42-.07-2.17s.07-1.49.27-2.37c.07-.2.27-.27.47-.27Z"/>
      <path class="cls-1" d="m134.08,10.11c0-1.63.07-2.84.07-4.27,0-1.15.07-1.35.41-1.56.54-.41,1.69-.41,3.12-.41h1.22c.81,0,1.69,0,2.78-.07h3.45c1.63,0,2.3.07,2.84.2s.68.34.68.54v.54c0,1.08.07,2.1.07,3.05,0,2.3-.14,4.27-.14,6.97-.14,5.49-.07,8.6-.14,14.15v3.05c0,6.43.27,10.83.27,17.33v3.12c0,.61-.54.74-1.15.74-3.93,0-7.85.07-11.38.07-.41,0-.81-.07-1.29-.2-.27-.07-.34-1.02-.34-1.29,0-2.17-.2-3.79-.2-6.3-.14-13.81-.2-21.6-.27-35.41v-.27Z"/>
      <path class="cls-1" d="m161.71,25.48c.07.81.07,1.56.07,2.37v1.02c-.07,3.66-.2,6.97-.2,10.36v5.15c0,2.51-.14,4.67-.14,6.77v.2c0,.61,0,.95-.47,1.15-.14.07-.34.07-.47.14,0,0-1.49.14-1.56.14h-1.63c-.95,0-1.9-.07-2.91-.07h-1.42c-.81,0-1.42-.54-1.42-1.35,0-1.29.14-2.57.14-3.93.07-1.15.07-2.3.07-3.45,0-2.23.27-4.4.27-6.57v-1.02c0-1.49.14-2.78.14-4.6.14-7.92.14-12.39.27-20.31.07-2.17.14-3.79.2-5.62v-1.15c0-.2.07-.34.27-.47.34-.2.54-.27.95-.27h1.56c1.49,0,3.66.27,5.01.27.2,0,4.13.07,4.33.07s1.49.07,1.76.14.47.27.54.61c3.79,12.39,8.06,28.78,9.07,31.83.07,0,.07.07.07.07.07,0,.07-.54.07-1.42,0-1.9-.14-5.28-.14-7.52,0-2.1-.2-3.59-.2-5.42,0-3.79-.07-2.91-.07-4.81,0-2.78-.2-5.62-.2-8.46,0-1.29,0-2.71.07-4.33,0-.07,0-.14.07-.2.2-.95.41-.88,1.35-.88,3.59,0,5.28.14,9.07.14h1.83c.41,0,.88.07,1.29.2.34.14.54.27.54.68v.2c-.07.54,0,1.02-.07,1.62-.2,5.96-.27,9.28-.41,15.24v6.16c.14,3.25.27,6.64.27,9.82v5.62c0,1.62.07,3.18.2,4.81.14,1.35.2,2.64.27,4v.27c0,.54-.2.68-.88.81-.2.07-.47.07-.68.07-.34,0-.61,0-.95-.07-1.76-.2-12.19-.2-13.75-.2h-.41c-.47-.07-.74-.34-.88-.81-.27-1.22-.61-2.37-.95-3.52-.54-2.03-1.29-3.99-1.96-6.03-.54-1.49-1.08-3.05-1.62-4.61-.68-1.96-1.29-3.93-1.96-5.89-.54-1.49-1.02-3.05-1.49-4.54-.27-1.22-.75-2.37-1.15-3.59-.54-1.49-1.15-3.05-1.62-4.54-.2-.47-.2-.61-.2-.68v-.14c-.07,0-.07-.07-.07-.07v.14c0,.41.14,1.83.14,3.79v2.71Z"/>
      <path class="cls-1" d="m210.12,13.09c-.74.54-2.37,2.37-2.64,3.72-.68,3.32-.81,5.55-.81,7.92,0,1.56.07,3.18.07,5.21v.54c0,.61,0,1.35.07,1.96.14,1.9.14,2.71.47,4.54.41,2.3,1.02,3.18,2.84,4.13.41.2.88.27,1.29.41h.27c.75,0,1.29-.34,1.9-.54,1.08-.47,1.69-1.83,1.69-2.84,0-.74-.2-1.35-.81-1.62l-.81-.41c-.41-.2-.95-.34-1.42-.34-.2,0-.41,0-.61.07-.14,0-.2.07-.34.07-.41,0-.75-.2-1.08-.54-.07-.14-.2-.27-.2-.47-.07-.81-.14-1.49-.14-2.17,0-.41,0-.81.14-1.29.14-.47.47-.75.95-.75h1.69c3.72,0,7.38.2,10.77.2.54,0,.95.07,1.35.2s1.02.88,1.02,1.35c0,2.23,0,3.25.07,4.27.14,2.98.2,7.31.54,11.04.07.81.07,1.62.07,2.51v1.9c0,.34,0,1.42-.27,1.42-.88,0-1.35,0-2.1.14-.27.07-.61.07-.88.07-.47,0-1.02-.07-1.49-.07-.2,0-.34.07-.54.07h-.27c-.61,0-1.02-.41-1.15-1.08,0-.27-.07-.54-.07-.95-.2.07-.41,0-.54.07-1.29.61-2.64,1.02-4,1.35-.88.2-1.76.27-2.57.41-.95.07-1.83.14-2.71.14-.54,0-1.08.07-1.62.07-4.88,0-8.8-2.3-11.24-5.15-.88-1.08-1.42-2.3-1.9-3.59-.68-1.76-1.22-3.52-1.49-5.35-.68-2.91-.88-6.77-.88-10.16v-2.98c0-.68.07-1.42.14-2.03.47-5.21.88-9.28,2.44-13.2,1.22-2.98,3.59-5.21,6.37-6.7.34-.2.74-.34,1.08-.47,1.02-.47,2.03-.74,3.12-.95,2.1-.34,4.47-.61,6.84-.61s4.67.27,6.64,1.02c.88.27,1.69.68,2.51,1.08.95.47,1.76,1.22,2.3,2.17.47.68.81,1.42,1.08,2.23.81,2.23,1.08,4.74,1.08,7.72-.07,1.02-.07,2.1-.07,3.11,0,.95-.14,1.96-.27,2.91-.14.81-.34,2.91-.47,3.72-.14.61-.2,1.02-.81,1.22-.54.14-1.15.14-1.69.14h-2.17c-.75,0-1.22.07-1.96.14-.95.07-1.42.07-2.37.14h-.47c-.75-.07-1.15,0-1.83-.2-.47-.14-.68-.34-1.02-.68-.14-.14-.14-.34-.2-.54-.07-1.22-.14-3.66-.14-4.88,0-.81.14-1.42.14-2.37.07-1.56.07-2.44.07-4,0-2.17,0-2.78-1.35-2.78-.54,0-1.15.07-1.56.34Z"/>
      <path class="cls-1" d="m.77,114.63c0-2.03.09-3.98.09-6.01,0-.97-.09-2.03-.09-3-.09-1.68-.09-3.45-.09-5.12,0-2.39,0-4.68.09-7.07,0-3.98.26-7.95.35-11.93v-6.18c.09-2.65.35-4.68.35-7.24v-.97c-.09-1.33-.18-2.74-.18-4.15v-.71c0-.62.18-1.06.71-1.41.35-.27.62-.27.97-.27h.79c1.24,0,2.56-.09,3.8-.09s2.39.09,2.92.09c1.24.09,3.62.09,4.86.18h.62c1.06,0,1.77.71,1.77,1.68,0,.18,0,.35-.09.62-.35,1.5-.35,3-.44,4.51-.18,2.56-.27,3.8-.27,6.45v3.53c0,.62-.09,1.33-.09,2.03,0,.27-.18,1.41-.18,2.39v.35c0,1.77.09,2.12.09,4.77,0,.18.18.27.35.27s.44-.09.62-.09h1.06c3.45.35,5.57.53,8.75.53h.35v-.18c0-3.09,0-4.77-.09-7.86v-.88c.09-2.39.26-4.15.26-6.1,0-.62-.09-1.24-.09-1.86-.09-1.24-.09-.97-.09-2.21-.09-1.77-.27-3.53-.27-5.21,0-.53.09-1.06.09-1.59,0-.35.09-.62.27-.88.09-.18.35-.35.62-.35h.09c.27,0,.71-.09,1.15-.09,2.92-.09,6.1-.09,9.01-.18h.97c.88,0,1.68.09,1.68,1.24,0,.71-.09,1.41-.09,2.12,0,1.5.18,2.92.18,4.33,0,.62,0,1.24-.09,1.86-.18,2.03-.18,3.62-.18,4.86v2.21c0,3.09.18,3.71.18,7.69v24.91c0,2.3-.18,3.89-.18,5.65,0,.62,0,1.41.09,2.12,0,.35.09.8.09,1.33,0,.97-.09,2.21-.09,3.36v1.15c0,.71-.09,1.33-.44,1.33h-9.72c-.18,0-.97-.09-1.15-.09s-.44-.09-.62-.18c-.62-.27-.97-1.15-1.06-2.12v-6.18c0-1.06-.09-2.12-.09-3.18-.09-1.33-.09-2.56-.18-3.89-.09-1.68-.09-2.83-.09-3.89v-5.21c0-.09-.26-.18-.35-.18h-.71c-2.03,0-2.3-.27-3.45-.27-.35,0-.79,0-1.41.09-1.33.09-2.21.18-3.36.18h-.8c-.53,0-1.06.09-1.06.53v.44c0,1.24-.09,2.21-.09,3.71v.97c0,.97-.09,1.33-.09,1.86,0,.35,0,.62.09,1.15.18,3.45.18,7.16.35,10.96v3.89c0,.71-.62,1.24-1.33,1.33-.62.09-1.24.09-1.86.09-2.74,0-5.92-.44-8.39-.53H1.47c-.35-.27-.71-.53-.71-1.06v-8.3Z"/>
      <path class="cls-1" d="m72.42,123.2c-1.94,1.15-5.57,2.12-9.01,2.39h-1.06c-2.83,0-5.21-.71-7.33-1.94-4.15-2.47-6.45-6.63-7.77-11.66-.53-2.21-.97-4.59-1.24-7.07-.35-3.62-.53-7.51-.71-11.4-.09-1.24-.09-2.65-.09-3.89,0-1.86.09-3.71.18-5.65.09-1.5.35-3,.44-4.51.71-6.89,1.41-11.4,4.68-15.55,1.41-2.12,3.53-4.24,6.63-4.59,1.77-.26,3.8-.53,5.83-.53,3.53,0,7.24.62,9.81,2.3,1.06.62,2.21,1.24,3.09,2.12,5.74,5.04,7.24,12.28,7.24,24.83v1.86c.09,1.59.09,3.18.09,4.77,0,10.96-1.33,20.23-7.24,25.98-1.06,1.06-2.3,1.86-3.53,2.56Zm-4.68-43.73c-.27-.44-1.41-.97-2.56-.97h-.35c-1.59.18-2.92.88-3.62,1.77-1.68,2.12-2.65,4.59-3.09,7.33-.09.88-.27,1.94-.27,3v.97c.18,3.18,1.33,11.04,5.57,11.04,5.65,0,6.63-7.69,6.63-13.78,0-1.06-.18-1.94-.18-2.92,0-.79-.09-1.77-.35-2.74-.44-1.86-.79-2.65-1.77-3.71Z"/>
      <path class="cls-1" d="m88.06,60.29h.88c.97.09,1.77.09,2.56.09h3.89c1.68,0,3.36,0,5.12.27.44.09.88,0,1.24.35.62.62,4.42,14.84,4.68,15.64.88,2.56,1.94,8.04,2.56,10.6.09.27.27.53.44.88.44-.62.62-1.15.8-1.77.88-3,1.86-5.92,2.65-8.92.09-.44.27-.79.35-1.15.18-.53,2.65-10.6,3.89-14.93.35-1.15.44-1.59.71-1.77.18-.09.35-.09.53-.09.27,0,.71,0,1.24.09,1.94.09,3.71.18,5.39.35,3.53.35,7.95,0,10.87.97.97.53,1.06,2.03,1.06,3.53v1.86c0,3.98.09,8.3.09,12.37,0,5.39-.09,10.87-.09,16.34v24.56c0,1.5-.09,3.27-.44,4.42-.27.62-1.94.62-3.36.62h-6.45c-1.15,0-2.3,0-3.62-.09-.44,0-.71-.27-1.06-.44-.35-.18-.62-.53-.62-1.06-.09-1.94-.09-3.89-.18-5.92v-4.15c0-2.65,0-5.3.09-7.86.27-4.06.27-6.27.35-10.25,0-.88.09-1.59.09-2.3,0-1.06-.09-2.21-.09-3.27-3.89,12.1-4.42,16.79-7.69,26.86-.35,1.24-.53,1.94-1.5,1.94h-.44c-.62-.18-.8-.44-1.06-1.24-1.68-4.77-4.95-12.9-6.8-19.53-.35-1.33-.71-2.56-1.5-4.06-.35-.71-1.06-2.3-1.41-2.3-.09,0-.18.09-.18.27-.35,1.86-.44,3.71-.44,5.48,0,9.01-.09,16.34-.09,25.98,0,.53-.18.8-.53.88-6.1.71-2.74.97-9.63.97-.44,0-1.06-.09-1.59-.18-1.06-.26-1.33-.71-1.41-1.85,0-1.68-.09-3.53-.09-5.39v-.53c0-2.03-.09-4.06-.09-6.18v-1.77c0-2.21-.09-4.42-.09-6.63-.09-2.12-.09-4.42-.09-6.54s0-3.89.18-5.74c.18-1.77.26-3.45.26-5.21-.09-2.83-.09-5.74-.18-8.66,0-2.92-.09-6.1-.09-9.28,0-.97-.09-1.85-.09-2.83s.09-1.94.35-3.09c.09-.27.35-.35.62-.35Z"/>
      <path class="cls-1" d="m161.83,124.43h-1.15c-1.68,0-2.92-.18-4.59-.18h-.79c-1.59.09-4.68.18-6.01.18-1.06,0-2.12-.09-3.18-.27-1.06-.18-2.03-.44-3.09-.71-.71-.18-1.06-.71-1.15-1.41-.09-.27-.09-.44-.09-.71,0-1.59-.09-3.18-.09-4.68v-11.04c0-3,0-6.01-.09-9.01-.18-3.53-.18-6.89-.18-10.16,0-4.95.09-9.72.09-14.93,0-3.45.09-7.24.09-10.78.09-.71.44-1.06,1.15-1.06,2.3,0,5.3.44,7.33.44,3.18.09,6.45.09,9.63.09,3.98,0,8.3-.09,12.1-.27h.88c.88,0,1.59.09,2.21.71.27.18.27,1.24.27,1.59v.88c0,1.77.09,3.27.09,4.68,0,1.24,0,2.47-.18,4.06v3.36c.09.88.09,1.77.09,2.74,0,.88-1.15,1.06-2.12,1.06-.62,0-1.24-.09-1.77-.09-2.92,0-6.98-.44-10.43-.44h-2.65c-.35.09-.62.27-.71.62,0,.09,0,.18-.09.27v3.45c0,.35,0,.62.09.97.18,0,3-.18,4.42-.18h5.12c.8,0,1.59,0,2.65.09.62,0,1.06,0,1.68.09.44,0,1.59,0,1.94.18.88.27,1.24,2.21,1.24,3.27v1.33c0,3-.09,1.68-.09,5.04v.18c0,.35,0,.44-.27.71-.09.09-.62.18-.79.18-4.33.18-8.57.27-13.16.27-.8,0-1.5.18-2.21.35-.53.09-.71.35-.71.88-.09,1.77-.18,3.53-.18,5.3,0,.53.18.71.71.71,1.59.09,3.18.18,4.77.18h1.15c3.18,0,5.83.44,9.01.71.44.09.97,0,1.41.09.88.18,1.15.71,1.15,1.59,0,1.15.09,2.3.09,3.45v5.57c.09,2.3.18,5.48.27,7.77v.97c0,.97-.09,1.06-.8,1.33-.26.09-.44.18-.71.18-2.83.27-6.27.35-9.63.35-.88,0-1.68,0-2.74.09Z"/>
      <path class="cls-1" d="m216.61,105.79c1.94,3.71,4.86,7.95,6.54,11.22.53.88.97,1.77,1.33,2.65.44.88.8,1.85,1.24,2.83.09.18.09.26.09.44,0,.27-.09.44-.27.71-.18.35-1.94,1.06-3.45,1.06h-.26c-1.06-.09-3.45-.18-4.59-.18-.8,0-1.33-.09-2.12-.09-.88,0-1.77.27-2.47.27-.26,0-.44-.09-.62-.18-.44-.44-1.15-2.21-2.21-4.15-.35-.71-.79-1.41-1.06-2.03-1.06-2.12-2.56-4.24-3.62-6.27-.88-1.59-1.77-3.27-2.65-4.86-.71-1.15-1.41-2.3-2.12-3.53-.44-.71-4.33-7.24-5.92-8.22,0,.35-.09,1.41-.09,1.59-.09,1.77-.09,2.83-.09,3.62,0,1.68.09,2.03.09,4.86,0,4.51.09,8.48.09,13.16v3.27c0,1.06-.09,2.03-1.06,2.03-3.71,0-6.45-.09-10.78-.09h-1.59c-.97,0-1.33-.35-1.33-1.5v-2.92c.09-8.75.44-16.88.44-27.12,0-5.39-.09-10.6-.09-15.9v-3.53c0-1.86-.09-3.36-.09-5.48v-6.27c0-.27.09-.44.09-.71.09-.53.26-.62.62-.62h.79c.44,0,1.15-.09,1.77-.09,2.03,0,3.36-.09,4.95-.09,1.06,0,2.03.09,3.36.09,2.56.09,5.48.09,8.31.09h7.33c5.83.09,11.84.09,14.75,3.62,1.77,2.3,2.83,4.33,3.8,7.16.35,1.24.44,2.39.44,3.53,0,8.92-4.95,19.44-11.93,21.38-.97.27-2.92.35-3.98.35-.09,0-.09.09-.09.18,0,.88,4.42,6.18,5.83,8.57.27.53.35.71.62,1.15Zm-8.92-24.83c.44-.71.62-4.95.62-5.57,0-.88-.35-1.68-1.15-2.3-2.21-1.5-5.12-2.12-7.86-2.12-1.94,0-2.74.44-3.18.71-.18.09-.18.27-.18.44v.09c0,.97.09,2.21.09,3.45,0,.88-.09,5.3-.09,6.18,0,.71.09,1.41.09,2.03.44.09,1.77.09,2.65.09h.79c2.92-.27,1.15,0,4.77-.71,1.33-.27,2.56-.97,3.45-2.3Z"/>
    </g>
    <g>
      <path class="cls-2" d="m26.63,16.18c-.27,0-.68-.07-.81-.07-1.08,0-2.23-.14-3.59-.14-.47,0-.95.07-1.42.07h-2.91c-1.22,0-2.17.07-2.17.68,0,.27-.07,5.69-.07,6.77,0,.54,0,1.02.07,1.15,0,.34,0,.61.14.88.14.07.27.07.41.07h1.08c4,0,3.18.07,4.94.07.07,0,.54.07.61.07h.27c1.08,0,1.49.07,2.78.07.34,0,.68.07.68.27.07,2.23.14,3.86.14,6.3v1.29c0,.81-.2,1.35-1.22,1.35-1.49,0-3.93.27-5.69.27-1.62,0-4,.07-4,.75v.14c.07,3.25.27,6.91.27,10.43v2.91c-.07.88-.27,1.22-1.02,1.29-.74,0-1.49.14-2.23.14h-1.96c-.68,0-.41,0-1.08-.07-.27-.07-.61-.07-.95-.07-.68,0-1.42.07-2.03.07-.34,0-.95.07-1.42.07h-.81c-.14,0-.34,0-.47-.14s-.2-.54-.2-.74c-.07-.54-.07-1.02-.07-1.49,0-11.58-.34-22.89-.68-34.2,0-1.63.07-3.25.14-4.88v-.54c0-.75-.07-1.49-.07-2.23-.07-1.08-.14-2.17-.14-3.18,0-.61.14-1.15.54-1.63.2-.2.34-.27.61-.27h.14c3.18.14,5.49.2,8.74.2s9.34-.68,12.53-.68h.47c.81.07,1.08.27,1.08,1.02v5.82c-.07,1.08,0,2.03-.07,3.05v3.32c0,.61,0,.95-.07,1.56,0,.2-.2.27-.47.27Z"/>
      <path class="cls-2" d="m53.25,44.69c0,1.08,0,2.17-.14,3.25-.07.68.07,1.29-.2,1.9-.27.61-.74.95-1.35.95-.68,0-1.29-.07-1.96-.07-1.69,0-3.45.14-5.15.14h-.68c-.81-.07-1.63-.07-2.44-.07s-1.69,0-2.51.07c-.61.07-1.15.07-1.76.07l-4.13-.2c-.41-.07-.88-.07-1.29-.14-.68-.14-.88-.41-.88-1.08-.14-2.17-.14-4.94-.14-7.31v-3.39c0-8.6,0-16.93-.41-25.39-.07-2.98-.41-6.5-.41-10.02,0-.14.07-.34.07-.47.07-.41,0-.75.47-.88.14-.07.34-.07.47-.07h1.29c.34.07.61.07.95.07,3.25,0,1.42-.2,4.94-.2.27.07.81,0,1.29.07s.81,0,1.22.2c.41.27.54.41.54.75,0,.14,0,.27-.07.47-.07.81-.14,1.69-.14,2.57-.14,1.9-.2,3.79-.2,5.69,0,2.64.07,5.28.07,7.92v2.03c-.07,2.17-.2,8.4-.2,10.63,0,.81,0,1.42.07,1.69.07.47.2,1.02.34,1.56.2.61.61.95,1.29,1.02.81.14,1.63.14,2.44.14h1.69c1.49,0,2.3-.14,3.72-.27.61,0,1.35-.07,1.9-.07.81,0,1.29.2,1.29,1.08v.2c-.07.68-.07,1.22-.07,1.76,0,1.02.07,1.96.07,3.25v2.17Z"/>
      <path class="cls-2" d="m57.78,37.92c.27-.68,1.15-6.77,1.29-7.52.14-.61.27-1.15.41-1.76.34-1.08.47-4.81.81-5.82.14-.41.2-.74.2-1.08.27-1.83.68-3.99,1.08-6.36.14-.81.2-1.69.41-2.57.27-1.69.68-3.52,1.02-5.35.47-1.9.95-3.45,1.42-5.49.07-.27.27-.34.61-.34h1.02c.47-.14,2.1-.2,3.72-.2,1.83,0,3.66.07,4.2.14.41,0,.74.07,1.02.07.88,0,1.96-.07,3.05-.07,1.9,0,3.86.14,4.94.81.14.2.14.34.14.54.47,1.96.34,2.51.95,4.4.2.81.54,2.91.74,3.66.34,1.76.68,3.45,1.08,5.21.2.95.34,1.9.61,2.84,1.62,6.91,2.84,13.88,4.6,20.52.14.81.2,1.22.41,2.03v.14c.27,1.22.47,2.03.74,3.32,0,.07.54,3.05.54,3.11.07.07.41,2.23.41,2.3v.14c0,.34-.61.41-1.35.41-.68,0-1.56-.07-2.3-.07h-.41c-1.22.07-3.59.07-4.81.07h-5.15c-.41,0-.68-2.57-1.02-4.33-.34-1.56-.61-3.52-.68-4.06-.14-1.02-.27-2.03-.47-2.98-.07-.2-.14-.41-.14-.61-.27-1.9-.47-3.05-.88-4.94-.07-.47-.27-.75-.75-.81-.2-.07-3.25-.2-3.52-.2-.34-.07-.75-.14-1.08-.14-.41,0-.81.07-1.29.14-.47.07-.47,3.52-.54,4.88-.07,1.02-.07,2.17-.14,3.39,0,1.22-.07,2.44-.07,3.59-.07.88-.07,1.69-.14,2.37,0,.81-.07,1.42-.07,1.96-.14,1.29-.27,1.56-1.15,1.62-.75.07-3.39.07-5.62.27-.68.14-1.35.07-1.96.14h-1.35c-.27.07-.54.07-.75.07-1.15,0-1.49-.27-1.49-1.02,0-.34.07-.75.14-1.29.54-3.59,1.35-10.43,1.56-11.11Zm17.33-11.65c-.68-5.08-1.02-7.92-1.69-13-.07-.2,0-.41-.2-.47-.2-.14-.61-.34-.95-.34h-.07c-.2,0-.41.07-.41.14-.34,1.76-1.83,12.05-1.9,13.81v.07c0,.2,0,.34.07.47s.2.27.41.27h.07c.47-.07,1.49-.07,2.37-.07h1.42c.74,0,1.08-.2.88-.88Z"/>
      <path class="cls-2" d="m96.18,1.76h.68c.75.07,1.35.07,1.96.07h2.98c1.29,0,2.57,0,3.93.2.34.07.68,0,.95.27.47.47,3.39,11.38,3.59,11.99.68,1.96,1.49,6.16,1.96,8.13.07.2.2.41.34.68.34-.47.47-.88.61-1.35.68-2.3,1.42-4.54,2.03-6.84.07-.34.2-.61.27-.88.14-.41,2.03-8.13,2.98-11.44.27-.88.34-1.22.54-1.35.14-.07.27-.07.41-.07.2,0,.54,0,.95.07,1.49.07,2.84.14,4.13.27,2.71.27,6.09,0,8.33.75.74.41.81,1.56.81,2.71v1.42c0,3.05.07,6.37.07,9.48,0,4.13-.07,8.33-.07,12.53v18.82c0,1.15-.07,2.51-.34,3.39-.2.47-1.49.47-2.57.47h-4.94c-.88,0-1.76,0-2.78-.07-.34,0-.54-.2-.81-.34s-.47-.41-.47-.81c-.07-1.49-.07-2.98-.14-4.54v-3.18c0-2.03,0-4.06.07-6.03.2-3.12.2-4.81.27-7.85,0-.68.07-1.22.07-1.76,0-.81-.07-1.69-.07-2.51-2.98,9.28-3.39,12.87-5.89,20.59-.27.95-.41,1.49-1.15,1.49h-.34c-.47-.14-.61-.34-.81-.95-1.29-3.66-3.79-9.89-5.21-14.96-.27-1.02-.54-1.96-1.15-3.12-.27-.54-.81-1.76-1.08-1.76-.07,0-.14.07-.14.2-.27,1.42-.34,2.84-.34,4.2,0,6.91-.07,12.53-.07,19.91,0,.41-.14.61-.41.68-4.67.54-2.1.75-7.38.75-.34,0-.81-.07-1.22-.14-.81-.2-1.02-.54-1.08-1.42,0-1.29-.07-2.71-.07-4.13v-.41c0-1.56-.07-3.12-.07-4.74v-1.35c0-1.69-.07-3.39-.07-5.08-.07-1.63-.07-3.39-.07-5.01s0-2.98.14-4.4c.14-1.35.2-2.64.2-4-.07-2.17-.07-4.4-.14-6.64,0-2.23-.07-4.67-.07-7.11,0-.75-.07-1.42-.07-2.17s.07-1.49.27-2.37c.07-.2.27-.27.47-.27Z"/>
      <path class="cls-2" d="m137.21,7.52c0-1.63.07-2.84.07-4.27,0-1.15.07-1.35.41-1.56.54-.41,1.69-.41,3.12-.41h1.22c.81,0,1.69,0,2.78-.07h3.45c1.63,0,2.3.07,2.84.2s.68.34.68.54v.54c0,1.08.07,2.1.07,3.05,0,2.3-.14,4.27-.14,6.97-.14,5.49-.07,8.6-.14,14.15v3.05c0,6.43.27,10.83.27,17.33v3.12c0,.61-.54.74-1.15.74-3.93,0-7.85.07-11.38.07-.41,0-.81-.07-1.29-.2-.27-.07-.34-1.02-.34-1.29,0-2.17-.2-3.79-.2-6.3-.14-13.81-.2-21.6-.27-35.42v-.27Z"/>
      <path class="cls-2" d="m164.84,22.89c.07.81.07,1.56.07,2.37v1.02c-.07,3.66-.2,6.97-.2,10.36v5.15c0,2.51-.14,4.67-.14,6.77v.2c0,.61,0,.95-.47,1.15-.14.07-.34.07-.47.14,0,0-1.49.14-1.56.14h-1.63c-.95,0-1.9-.07-2.91-.07h-1.42c-.81,0-1.42-.54-1.42-1.35,0-1.29.14-2.57.14-3.93.07-1.15.07-2.3.07-3.45,0-2.23.27-4.4.27-6.57v-1.02c0-1.49.14-2.78.14-4.6.14-7.92.14-12.39.27-20.31.07-2.17.14-3.79.2-5.62v-1.15c0-.2.07-.34.27-.47.34-.2.54-.27.95-.27h1.56c1.49,0,3.66.27,5.01.27.2,0,4.13.07,4.33.07s1.49.07,1.76.14.47.27.54.61c3.79,12.39,8.06,28.78,9.07,31.83.07,0,.07.07.07.07.07,0,.07-.54.07-1.42,0-1.9-.14-5.28-.14-7.52,0-2.1-.2-3.59-.2-5.42,0-3.79-.07-2.91-.07-4.81,0-2.78-.2-5.62-.2-8.46,0-1.29,0-2.71.07-4.33,0-.07,0-.14.07-.2.2-.95.41-.88,1.35-.88,3.59,0,5.28.14,9.07.14h1.83c.41,0,.88.07,1.29.2.34.14.54.27.54.68v.2c-.07.54,0,1.02-.07,1.62-.2,5.96-.27,9.28-.41,15.24v6.16c.14,3.25.27,6.64.27,9.82v5.62c0,1.62.07,3.18.2,4.81.14,1.35.2,2.64.27,4v.27c0,.54-.2.68-.88.81-.2.07-.47.07-.68.07-.34,0-.61,0-.95-.07-1.76-.2-12.19-.2-13.75-.2h-.41c-.47-.07-.74-.34-.88-.81-.27-1.22-.61-2.37-.95-3.52-.54-2.03-1.29-3.99-1.96-6.03-.54-1.49-1.08-3.05-1.62-4.61-.68-1.96-1.29-3.93-1.96-5.89-.54-1.49-1.02-3.05-1.49-4.54-.27-1.22-.75-2.37-1.15-3.59-.54-1.49-1.15-3.05-1.62-4.54-.2-.47-.2-.61-.2-.68v-.14c-.07,0-.07-.07-.07-.07v.14c0,.41.14,1.83.14,3.79v2.71Z"/>
      <path class="cls-2" d="m213.26,10.5c-.74.54-2.37,2.37-2.64,3.72-.68,3.32-.81,5.55-.81,7.92,0,1.56.07,3.18.07,5.21v.54c0,.61,0,1.35.07,1.96.14,1.9.14,2.71.47,4.54.41,2.3,1.02,3.18,2.84,4.13.41.2.88.27,1.29.41h.27c.75,0,1.29-.34,1.9-.54,1.08-.47,1.69-1.83,1.69-2.84,0-.74-.2-1.35-.81-1.62l-.81-.41c-.41-.2-.95-.34-1.42-.34-.2,0-.41,0-.61.07-.14,0-.2.07-.34.07-.41,0-.75-.2-1.08-.54-.07-.14-.2-.27-.2-.47-.07-.81-.14-1.49-.14-2.17,0-.41,0-.81.14-1.29.14-.47.47-.75.95-.75h1.69c3.72,0,7.38.2,10.77.2.54,0,.95.07,1.35.2s1.02.88,1.02,1.35c0,2.23,0,3.25.07,4.27.14,2.98.2,7.31.54,11.04.07.81.07,1.62.07,2.51v1.9c0,.34,0,1.42-.27,1.42-.88,0-1.35,0-2.1.14-.27.07-.61.07-.88.07-.47,0-1.02-.07-1.49-.07-.2,0-.34.07-.54.07h-.27c-.61,0-1.02-.41-1.15-1.08,0-.27-.07-.54-.07-.95-.2.07-.41,0-.54.07-1.29.61-2.64,1.02-4,1.35-.88.2-1.76.27-2.57.41-.95.07-1.83.14-2.71.14-.54,0-1.08.07-1.62.07-4.88,0-8.8-2.3-11.24-5.15-.88-1.08-1.42-2.3-1.9-3.59-.68-1.76-1.22-3.52-1.49-5.35-.68-2.91-.88-6.77-.88-10.16v-2.98c0-.68.07-1.42.14-2.03.47-5.21.88-9.28,2.44-13.2,1.22-2.98,3.59-5.21,6.37-6.7.34-.2.74-.34,1.08-.47,1.02-.47,2.03-.74,3.12-.95,2.1-.34,4.47-.61,6.84-.61s4.67.27,6.64,1.02c.88.27,1.69.68,2.51,1.08.95.47,1.76,1.22,2.3,2.17.47.68.81,1.42,1.08,2.23.81,2.23,1.08,4.74,1.08,7.72-.07,1.02-.07,2.1-.07,3.11,0,.95-.14,1.96-.27,2.91-.14.81-.34,2.91-.47,3.72-.14.61-.2,1.02-.81,1.22-.54.14-1.15.14-1.69.14h-2.17c-.75,0-1.22.07-1.96.14-.95.07-1.42.07-2.37.14h-.47c-.75-.07-1.15,0-1.83-.2-.47-.14-.68-.34-1.02-.68-.14-.14-.14-.34-.2-.54-.07-1.22-.14-3.66-.14-4.88,0-.81.14-1.42.14-2.37.07-1.56.07-2.44.07-4,0-2.17,0-2.78-1.35-2.78-.54,0-1.15.07-1.56.34Z"/>
      <path class="cls-2" d="m3.92,111.96c0-2.05.09-4,.09-6.05,0-.98-.09-2.05-.09-3.03-.09-1.69-.09-3.47-.09-5.16,0-2.4,0-4.72.09-7.12,0-4,.27-8.01.36-12.01v-6.23c.09-2.67.36-4.72.36-7.3v-.98c-.09-1.34-.18-2.76-.18-4.18v-.71c0-.62.18-1.07.71-1.42.36-.27.62-.27.98-.27h.8c1.25,0,2.58-.09,3.83-.09s2.4.09,2.94.09c1.25.09,3.65.09,4.89.18h.62c1.07,0,1.78.71,1.78,1.69,0,.18,0,.36-.09.62-.36,1.51-.36,3.03-.44,4.54-.18,2.58-.27,3.83-.27,6.5v3.56c0,.62-.09,1.33-.09,2.05,0,.27-.18,1.42-.18,2.4v.36c0,1.78.09,2.14.09,4.81,0,.18.18.27.36.27s.44-.09.62-.09h1.07c3.47.36,5.61.53,8.81.53h.36v-.18c0-3.12,0-4.81-.09-7.92v-.89c.09-2.4.27-4.18.27-6.14,0-.62-.09-1.25-.09-1.87-.09-1.25-.09-.98-.09-2.23-.09-1.78-.27-3.56-.27-5.25,0-.53.09-1.07.09-1.6,0-.36.09-.62.27-.89.09-.18.36-.36.62-.36h.09c.27,0,.71-.09,1.16-.09,2.94-.09,6.14-.09,9.08-.18h.98c.89,0,1.69.09,1.69,1.25,0,.71-.09,1.42-.09,2.14,0,1.51.18,2.94.18,4.36,0,.62,0,1.25-.09,1.87-.18,2.05-.18,3.65-.18,4.89v2.23c0,3.12.18,3.74.18,7.74v25.1c0,2.31-.18,3.92-.18,5.7,0,.62,0,1.42.09,2.14,0,.36.09.8.09,1.33,0,.98-.09,2.23-.09,3.38v1.16c0,.71-.09,1.34-.44,1.34h-9.79c-.18,0-.98-.09-1.16-.09s-.44-.09-.62-.18c-.62-.27-.98-1.16-1.07-2.14v-6.23c0-1.07-.09-2.14-.09-3.2-.09-1.33-.09-2.58-.18-3.92-.09-1.69-.09-2.85-.09-3.92v-5.25c0-.09-.27-.18-.36-.18h-.71c-2.05,0-2.31-.27-3.47-.27-.36,0-.8,0-1.42.09-1.33.09-2.22.18-3.38.18h-.8c-.53,0-1.07.09-1.07.53v.44c0,1.25-.09,2.23-.09,3.74v.98c0,.98-.09,1.34-.09,1.87,0,.36,0,.62.09,1.16.18,3.47.18,7.21.36,11.04v3.92c0,.71-.62,1.25-1.33,1.34-.62.09-1.25.09-1.87.09-2.76,0-5.96-.45-8.46-.53h-4.18c-.36-.27-.71-.53-.71-1.07v-8.37Z"/>
      <path class="cls-2" d="m76.1,120.6c-1.96,1.16-5.61,2.14-9.08,2.4h-1.07c-2.85,0-5.25-.71-7.39-1.96-4.18-2.49-6.5-6.68-7.83-11.75-.53-2.23-.98-4.63-1.25-7.12-.36-3.65-.53-7.57-.71-11.48-.09-1.25-.09-2.67-.09-3.92,0-1.87.09-3.74.18-5.7.09-1.51.36-3.03.45-4.54.71-6.94,1.42-11.48,4.72-15.66,1.42-2.14,3.56-4.27,6.68-4.63,1.78-.27,3.83-.53,5.87-.53,3.56,0,7.3.62,9.88,2.31,1.07.62,2.23,1.25,3.12,2.14,5.79,5.07,7.3,12.37,7.3,25.01v1.87c.09,1.6.09,3.2.09,4.81,0,11.04-1.33,20.38-7.3,26.17-1.07,1.07-2.31,1.87-3.56,2.58Zm-4.72-44.05c-.27-.45-1.42-.98-2.58-.98h-.36c-1.6.18-2.94.89-3.65,1.78-1.69,2.14-2.67,4.63-3.12,7.39-.09.89-.27,1.96-.27,3.03v.98c.18,3.2,1.33,11.12,5.61,11.12,5.7,0,6.68-7.74,6.68-13.88,0-1.07-.18-1.96-.18-2.94,0-.8-.09-1.78-.36-2.76-.44-1.87-.8-2.67-1.78-3.74Z"/>
      <path class="cls-2" d="m91.85,57.23h.89c.98.09,1.78.09,2.58.09h3.92c1.69,0,3.38,0,5.16.27.44.09.89,0,1.25.36.62.62,4.45,14.95,4.72,15.75.89,2.58,1.96,8.1,2.58,10.68.09.27.27.53.44.89.44-.62.62-1.16.8-1.78.89-3.03,1.87-5.96,2.67-8.99.09-.44.27-.8.36-1.16.18-.53,2.67-10.68,3.92-15.04.36-1.16.44-1.6.71-1.78.18-.09.36-.09.53-.09.27,0,.71,0,1.25.09,1.96.09,3.74.18,5.43.36,3.56.36,8.01,0,10.95.98.98.53,1.07,2.05,1.07,3.56v1.87c0,4,.09,8.37.09,12.46,0,5.43-.09,10.95-.09,16.47v24.74c0,1.51-.09,3.29-.45,4.45-.27.62-1.96.62-3.38.62h-6.5c-1.16,0-2.31,0-3.65-.09-.44,0-.71-.27-1.07-.45-.36-.18-.62-.53-.62-1.07-.09-1.96-.09-3.92-.18-5.96v-4.18c0-2.67,0-5.34.09-7.92.27-4.09.27-6.32.36-10.32,0-.89.09-1.6.09-2.31,0-1.07-.09-2.23-.09-3.29-3.92,12.19-4.45,16.91-7.74,27.06-.36,1.25-.53,1.96-1.51,1.96h-.44c-.62-.18-.8-.44-1.07-1.25-1.69-4.81-4.98-12.99-6.85-19.67-.36-1.34-.71-2.58-1.51-4.09-.36-.71-1.07-2.31-1.42-2.31-.09,0-.18.09-.18.27-.36,1.87-.44,3.74-.44,5.52,0,9.08-.09,16.46-.09,26.17,0,.53-.18.8-.53.89-6.14.71-2.76.98-9.7.98-.44,0-1.07-.09-1.6-.18-1.07-.27-1.33-.71-1.42-1.87,0-1.69-.09-3.56-.09-5.43v-.53c0-2.05-.09-4.09-.09-6.23v-1.78c0-2.23-.09-4.45-.09-6.68-.09-2.14-.09-4.45-.09-6.59s0-3.92.18-5.78c.18-1.78.27-3.47.27-5.25-.09-2.85-.09-5.78-.18-8.72,0-2.94-.09-6.14-.09-9.35,0-.98-.09-1.87-.09-2.85s.09-1.96.36-3.12c.09-.27.36-.36.62-.36Z"/>
      <path class="cls-2" d="m166.16,121.84h-1.16c-1.69,0-2.94-.18-4.63-.18h-.8c-1.6.09-4.72.18-6.05.18-1.07,0-2.14-.09-3.2-.27-1.07-.18-2.05-.45-3.12-.71-.71-.18-1.07-.71-1.16-1.42-.09-.27-.09-.44-.09-.71,0-1.6-.09-3.2-.09-4.72v-11.12c0-3.03,0-6.05-.09-9.08-.18-3.56-.18-6.94-.18-10.24,0-4.98.09-9.79.09-15.04,0-3.47.09-7.3.09-10.86.09-.71.45-1.07,1.16-1.07,2.31,0,5.34.44,7.39.44,3.2.09,6.5.09,9.7.09,4,0,8.37-.09,12.19-.27h.89c.89,0,1.6.09,2.23.71.27.18.27,1.25.27,1.6v.89c0,1.78.09,3.29.09,4.72,0,1.25,0,2.49-.18,4.09v3.38c.09.89.09,1.78.09,2.76,0,.89-1.16,1.07-2.14,1.07-.62,0-1.25-.09-1.78-.09-2.94,0-7.03-.45-10.5-.45h-2.67c-.36.09-.62.27-.71.62,0,.09,0,.18-.09.27v3.47c0,.36,0,.62.09.98.18,0,3.03-.18,4.45-.18h5.16c.8,0,1.6,0,2.67.09.62,0,1.07,0,1.69.09.45,0,1.6,0,1.96.18.89.27,1.25,2.22,1.25,3.29v1.34c0,3.03-.09,1.69-.09,5.07v.18c0,.36,0,.45-.27.71-.09.09-.62.18-.8.18-4.36.18-8.63.27-13.26.27-.8,0-1.51.18-2.23.36-.53.09-.71.36-.71.89-.09,1.78-.18,3.56-.18,5.34,0,.53.18.71.71.71,1.6.09,3.2.18,4.81.18h1.16c3.2,0,5.87.44,9.08.71.45.09.98,0,1.42.09.89.18,1.16.71,1.16,1.6,0,1.16.09,2.31.09,3.47v5.61c.09,2.31.18,5.52.27,7.83v.98c0,.98-.09,1.07-.8,1.34-.27.09-.45.18-.71.18-2.85.27-6.32.36-9.7.36-.89,0-1.69,0-2.76.09Z"/>
      <path class="cls-2" d="m221.34,103.06c1.96,3.74,4.89,8.01,6.59,11.3.53.89.98,1.78,1.34,2.67.44.89.8,1.87,1.25,2.85.09.18.09.27.09.44,0,.27-.09.45-.27.71-.18.36-1.96,1.07-3.47,1.07h-.27c-1.07-.09-3.47-.18-4.63-.18-.8,0-1.34-.09-2.14-.09-.89,0-1.78.27-2.49.27-.27,0-.45-.09-.62-.18-.45-.45-1.16-2.23-2.23-4.18-.36-.71-.8-1.42-1.07-2.05-1.07-2.14-2.58-4.27-3.65-6.32-.89-1.6-1.78-3.29-2.67-4.89-.71-1.16-1.42-2.31-2.14-3.56-.44-.71-4.36-7.3-5.96-8.28,0,.36-.09,1.42-.09,1.6-.09,1.78-.09,2.85-.09,3.65,0,1.69.09,2.05.09,4.89,0,4.54.09,8.54.09,13.26v3.29c0,1.07-.09,2.05-1.07,2.05-3.74,0-6.5-.09-10.86-.09h-1.6c-.98,0-1.34-.36-1.34-1.51v-2.94c.09-8.81.45-17,.45-27.32,0-5.43-.09-10.68-.09-16.02v-3.56c0-1.87-.09-3.38-.09-5.52v-6.32c0-.27.09-.45.09-.71.09-.53.27-.62.62-.62h.8c.45,0,1.16-.09,1.78-.09,2.05,0,3.38-.09,4.98-.09,1.07,0,2.05.09,3.38.09,2.58.09,5.52.09,8.37.09h7.39c5.87.09,11.93.09,14.86,3.65,1.78,2.31,2.85,4.36,3.83,7.21.36,1.25.45,2.4.45,3.56,0,8.99-4.98,19.58-12.02,21.54-.98.27-2.94.36-4,.36-.09,0-.09.09-.09.18,0,.89,4.45,6.23,5.87,8.63.27.53.36.71.62,1.16Zm-8.99-25.01c.45-.71.62-4.98.62-5.61,0-.89-.36-1.69-1.16-2.31-2.22-1.51-5.16-2.14-7.92-2.14-1.96,0-2.76.44-3.2.71-.18.09-.18.27-.18.45v.09c0,.98.09,2.23.09,3.47,0,.89-.09,5.34-.09,6.23,0,.71.09,1.42.09,2.05.45.09,1.78.09,2.67.09h.8c2.94-.27,1.16,0,4.81-.71,1.34-.27,2.58-.98,3.47-2.31Z"/>
    </g>
  </g>
</svg>