<?xml version="1.0" encoding="utf-8"?>
<!-- Generator: Adobe Illustrator 27.9.0, SVG Export Plug-In . SVG Version: 6.00 Build 0)  -->
<svg version="1.1" id="Layer_1" xmlns="http://www.w3.org/2000/svg" xmlns:xlink="http://www.w3.org/1999/xlink" x="0px" y="0px"
	 viewBox="0 0 517 131.8" style="enable-background:new 0 0 517 131.8;" xml:space="preserve">
<style type="text/css">
	.st0{fill:#F0B7DB;}
	.st1{fill:none;stroke:#000000;stroke-width:4;}
	.st2{enable-background:new    ;}
	.st3{fill:#FFFFFF;}
</style>
<g id="Group_22" transform="translate(-701.5 -2450.191)">
	<g id="Rectangle_13" transform="translate(714.809 2450.191)">
		<path class="st0" d="M65.9,0h357.6c36.4,0,65.9,29.5,65.9,65.9l0,0c0,36.4-29.5,65.9-65.9,65.9H65.9C29.5,131.8,0,102.3,0,65.9
			l0,0C0,29.5,29.5,0,65.9,0z"/>
		<path class="st1" d="M65.9,2h357.6c35.3,0,63.9,28.6,63.9,63.9l0,0c0,35.3-28.6,63.9-63.9,63.9H65.9C30.6,129.8,2,101.2,2,65.9
			l0,0C2,30.6,30.6,2,65.9,2z"/>
	</g>
	<g class="st2">
		<path class="st3" d="M769.9,2518.6c0,1.1,0.1,3.5,0.1,5.5c0,1-0.1,1.4-0.1,2.4c0,8.3-6.1,9.8-12.2,10.2h-0.6
			c-0.8,0-1.5-0.1-2.3-0.2c-0.6-0.1-2.3-0.3-3-0.4c-0.4-0.1-0.7-0.3-1.1-0.4c-5.5-2-5.8-10.9-5.8-18.4c0-2.4,0-5.4,0.1-7.8v-2
			c0-4.1,1.5-6.9,3.6-9c0.4-0.3,0.8-0.5,1.2-0.7c2.3-1.1,5.8-1.6,8.8-1.6c5,0,8.1,0.6,10.5,3.3c0.5,0.6,0.8,1.3,1,2
			c0.3,1.3,0.3,3.1,0.3,4.6v1.3c0,1.3-0.1,2.4-0.1,3.9c-0.1,0.7,0.1,2.3-0.7,2.5c-0.2,0.1-0.4,0.1-0.5,0.1c-3.3,0-7.3-0.7-8.6-0.7
			c-1,0-1-1.2-1-2.1v-2c0-1.7,0.2-3.1,0.2-4.8c0-0.9-0.9-2-2.2-2c-1.1,0-1.5,0.6-2.1,1.4c-0.6,0.8-0.5,2.2-0.6,2.6
			c-0.4,2.9-0.5,5.1-0.5,7.7c0,1.2,0,2.4,0,3.9c0,0.7,0.1,1.4,0.1,2.1c0.2,2.4,0.7,5.9,3.3,5.9h0.3c0.8-0.3,1.9-1.6,1.9-2.4
			c0-0.2-0.1-0.4-0.1-0.6h-1.2c-0.3,0-0.6-0.1-1-0.3c-0.3-0.2-0.3-1.8-0.3-2.9v-0.6c0-0.6,0-1.1,0.1-1.5c0.1-0.5,0.1-0.7,0.1-0.8
			c0.1-0.2,0.3-0.2,0.8-0.2c1.3,0,2.2,0.3,3.4,0.4c1.2,0.1,1.8,0.1,3,0.2c0.3,0,0.5,0.1,0.7,0.1c1.2,0.1,2.1,0.3,3.1,0.3
			C769.4,2517.6,769.9,2517.7,769.9,2518.6z"/>
		<path class="st3" d="M788.9,2535.2c-1.2,0.7-3.3,1.3-5.4,1.4h-0.6c-1.7,0-3.1-0.4-4.4-1.2c-2.5-1.5-3.9-4-4.7-7
			c-0.3-1.3-0.6-2.8-0.7-4.2c-0.2-2.2-0.3-4.5-0.4-6.8c-0.1-0.7-0.1-1.6-0.1-2.3c0-1.1,0.1-2.2,0.1-3.4c0.1-0.9,0.2-1.8,0.3-2.7
			c0.4-4.1,0.8-6.8,2.8-9.3c0.8-1.3,2.1-2.5,4-2.8c1.1-0.2,2.3-0.3,3.5-0.3c2.1,0,4.3,0.4,5.9,1.4c0.6,0.4,1.3,0.7,1.9,1.3
			c3.4,3,4.3,7.4,4.3,14.9v1.1c0.1,1,0.1,1.9,0.1,2.9c0,6.6-0.8,12.1-4.3,15.6C790.3,2534.3,789.6,2534.8,788.9,2535.2z M786.1,2509
			c-0.2-0.3-0.8-0.6-1.5-0.6h-0.2c-1,0.1-1.7,0.5-2.2,1.1c-1,1.3-1.6,2.8-1.9,4.4c-0.1,0.5-0.2,1.2-0.2,1.8v0.6
			c0.1,1.9,0.8,6.6,3.3,6.6c3.4,0,4-4.6,4-8.3c0-0.6-0.1-1.2-0.1-1.7c0-0.5-0.1-1.1-0.2-1.6C786.8,2510.1,786.6,2509.6,786.1,2509z"
			/>
		<path class="st3" d="M840.4,2524.3c0,0.5,0,0.9-0.1,1.3c-0.1,0.8-0.3,1.6-0.5,2.4c-0.2,0.4-0.4,0.8-0.6,1.2
			c-0.2,0.3-0.4,0.6-0.6,0.9c-0.6,1-1.2,1.9-2,2.6c-0.3,0.3-0.6,0.6-1,1c-0.5,0.4-1.1,0.7-1.7,1c-1.1,0.5-2.2,0.8-3.3,1
			c-1,0.2-2.1,0.2-3.2,0.2c-1,0-2.1-0.1-3.2-0.1c-1.9,0-3.1,0.1-4.8,0.1c-0.2,0-0.5,0-0.7,0c-0.4,0-0.6-0.1-1-0.1
			c-0.9-0.2-1.7-0.2-2.5-0.4c-0.7-0.2-1-0.4-1.1-1.4l-0.2-1.7c0-1.1-0.1-2.1-0.1-3.1c0.1-1.1,0.1-2.1,0.1-3.2
			c0-8.2-0.4-17.1-0.4-25.1c0-0.7,0-1.5,0.1-2.3c0.1-0.4,0-0.7,0.1-1.1c0.1-0.4,0.2-0.5,0.5-0.5h0.1h0.1c4.4-0.1,6.9-0.1,11.3-0.2
			c1.5-0.1,2.6-0.2,3.9-0.2h0.3c1.3,0,3.2,0.3,4.3,0.7c0.7,0.2,1.5,0.6,2.1,1.2c0.4,0.4,0.8,0.8,1.2,1.2c0.5,0.5,0.8,1,1.1,1.6
			c0.8,1.9,1,3.4,1.1,5.3c0,0.3,0,0.5,0,0.8c0,3.7-1,5.4-3.5,7.5c-0.2,0.2-0.4,0.3-0.5,0.5c0.2,0.3,0.5,0.4,0.7,0.6
			c0.7,0.3,1.3,0.8,1.9,1.3c0.5,0.4,0.7,0.9,1,1.4c0.5,1.3,0.9,2.7,1,4.1C840.4,2523.4,840.4,2523.8,840.4,2524.3z M823.8,2512.7
			h1.1c0.5,0,2,0,2.5-0.1c1-0.2,1.5-0.8,1.8-1.7c0.1-0.5,0.2-1.2,0.2-1.9c0-0.6-0.1-1.3-0.1-1.9v-0.3c-0.1-0.6-1-1.1-1.6-1.1
			c-0.4-0.1-1.7-0.1-2.2-0.1c-0.3,0-0.6,0.1-0.9,0.1c-0.2,0-0.5,0.1-0.7,0.2c-0.1,0.4-0.1,0.8-0.2,1.3c-0.1,0.3-0.1,0.6-0.1,1v0.6
			c0.1,1,0.1,2,0.1,3C823.7,2512.1,823.8,2512.4,823.8,2512.7z M828.9,2523c0-0.4,0-0.7-0.1-1.1c-0.1-0.8-1.2-1.4-2-1.5h-0.3
			c-0.6,0-1.3,0.2-2,0.3c-0.3,0.1-0.4,0.2-0.4,0.5c0,0.3,0.1,1.1,0.1,1.7c0.1,1.2,0.1,1.7,0.1,3v0.8c0.1,0.1,0.2,0.3,0.3,0.3h0.1
			c2.1,0,4.2-0.1,4.2-2.5V2523z"/>
		<path class="st3" d="M842.3,2525.8c0.2-0.5,0.9-5.3,1-5.9c0.1-0.5,0.2-0.9,0.3-1.4c0.3-0.8,0.4-3.8,0.6-4.6
			c0.1-0.3,0.2-0.6,0.2-0.8c0.2-1.4,0.5-3.1,0.8-5c0.1-0.6,0.2-1.3,0.3-2c0.2-1.3,0.5-2.8,0.8-4.2c0.4-1.5,0.7-2.7,1.1-4.3
			c0.1-0.2,0.2-0.3,0.5-0.3h0.8c0.4-0.1,1.6-0.2,2.9-0.2c1.4,0,2.9,0.1,3.3,0.1c0.3,0,0.6,0.1,0.8,0.1c0.7,0,1.5-0.1,2.4-0.1
			c1.5,0,3,0.1,3.9,0.6c0.1,0.2,0.1,0.3,0.1,0.4c0.4,1.5,0.3,2,0.7,3.4c0.2,0.6,0.4,2.3,0.6,2.9c0.3,1.4,0.5,2.7,0.8,4.1
			c0.2,0.7,0.3,1.5,0.5,2.2c1.3,5.4,2.2,10.9,3.6,16.1c0.1,0.6,0.2,1,0.3,1.6v0.1c0.2,1,0.4,1.6,0.6,2.6c0,0.1,0.4,2.4,0.4,2.4
			c0.1,0.1,0.3,1.7,0.3,1.8v0.1c0,0.3-0.5,0.3-1.1,0.3c-0.5,0-1.2-0.1-1.8-0.1h-0.3c-1,0.1-2.8,0.1-3.8,0.1h-4c-0.3,0-0.5-2-0.8-3.4
			c-0.3-1.2-0.5-2.8-0.5-3.2c-0.1-0.8-0.2-1.6-0.4-2.3c-0.1-0.2-0.1-0.3-0.1-0.5c-0.2-1.5-0.4-2.4-0.7-3.9c-0.1-0.4-0.2-0.6-0.6-0.6
			c-0.2-0.1-2.5-0.2-2.8-0.2c-0.3-0.1-0.6-0.1-0.8-0.1c-0.3,0-0.6,0.1-1,0.1c-0.4,0.1-0.4,2.8-0.4,3.8c-0.1,0.8-0.1,1.7-0.1,2.6
			c0,1-0.1,1.9-0.1,2.8c-0.1,0.7-0.1,1.3-0.1,1.9c0,0.6-0.1,1.1-0.1,1.5c-0.1,1-0.2,1.2-0.9,1.3c-0.6,0.1-2.6,0.1-4.4,0.2
			c-0.5,0.1-1.1,0.1-1.5,0.1h-1.1c-0.2,0.1-0.4,0.1-0.6,0.1c-0.9,0-1.2-0.2-1.2-0.8c0-0.3,0.1-0.6,0.1-1
			C841.5,2531.7,842.2,2526.3,842.3,2525.8z M855.9,2516.7c-0.5-4-0.8-6.2-1.3-10.2c-0.1-0.2,0-0.3-0.2-0.4
			c-0.2-0.1-0.5-0.3-0.7-0.3h-0.1c-0.2,0-0.3,0.1-0.3,0.1c-0.3,1.4-1.4,9.4-1.5,10.8v0.1c0,0.2,0,0.3,0.1,0.4
			c0.1,0.1,0.2,0.2,0.3,0.2h0.1c0.4-0.1,1.2-0.1,1.9-0.1h1.1C855.8,2517.3,856.1,2517.2,855.9,2516.7z"/>
		<path class="st3" d="M870.2,2508.7c0.4-6.4,3.8-10,9-11.7c0.5-0.2,1.1-0.3,1.6-0.4c0.6-0.1,1.1-0.2,1.7-0.2c1.7,0,3,0,4.9,0.3
			c3,0.4,4.4,0.4,7.1,3.1c0.7,0.7,1,1.3,1.2,2.1c0.2,0.7,0.4,1.3,0.5,2c0.1,0.8,0.2,1.7,0.2,2.6c0,2.3-0.1,3.5-0.3,5.5
			c-0.1,0.6-0.2,1.3-0.3,1.9c-0.1,0.5-0.3,0.8-0.8,1c-0.4,0.1-0.9,0.1-1.3,0.1h-4.7c-0.2,0-0.7,0.1-1.3,0.1c-0.9,0-1.9-0.2-1.9-1
			c-0.1-0.6-0.1-1.2-0.1-1.8c0-1.9,0.1-2.8,0.1-4.6c0-1-0.1-1.8-0.5-2.6c-0.1-0.1-0.1-0.2-0.2-0.3c-0.4-0.4-1.1-0.6-1.8-0.6
			c-0.3,0-0.5,0.1-0.8,0.2c-1.1,0.6-1.5,1.3-2.1,2.3c-0.5,1-0.7,2.1-0.7,3.1c-0.1,1.5-0.2,2.6-0.3,4.3v0.6c0.1,1,0.1,1.7,0.1,2.5
			v2.3c0,1.1,0,2.2,0.1,2.7c0.2,0.7,0.2,1.6,0.7,2.5c0.5,0.7,1.1,1.1,1.7,1.1h0.1c0.6,0,1.2-0.3,1.6-0.7c0.3-0.3,0.4-0.7,0.5-1.2
			c0.1-0.5,0.2-2.6,0.2-3.1c0.1-0.4,0.1-1.8,0.3-2.2c0.1-0.2,0.4-0.3,0.6-0.3h0.2c0.9,0.1,1.4,0.1,2.3,0.2c1.2,0.1,1.9,0.2,3.1,0.2
			h0.3c1,0,1.6-0.1,2.5-0.1h0.4c0.5,0,0.8,0.2,1.2,0.3c0.3,0.1,0.5,0.4,0.5,0.7c0.1,0.2,0.1,0.4,0.1,0.6c-0.1,1.9-0.1,4.5-0.2,6.4
			c-0.3,2.9-1.2,4.8-2.4,6.7c-0.5,0.7-1,1.3-1.8,1.7c-0.7,0.3-1.3,0.6-2,0.8c-0.2,0.1-0.3,0.1-0.4,0.1c-1.2,0.2-2.4,0.4-3.6,0.6
			c-0.9,0.1-1.7,0.2-2.6,0.2s-1.8-0.1-2.6-0.3c-0.7-0.2-1.5-0.3-2.2-0.4c-1.9-0.5-3.5-1.5-4.7-3.3c-0.4-0.6-0.9-1.4-1.2-2.1
			c-0.2-0.5-0.4-1-0.5-1.5c-0.4-1.3-0.7-2.6-0.8-4c-0.1-1.2-0.3-2.3-0.4-3.5c-0.1-0.2-0.1-0.5-0.1-0.7c-0.1-1.6-0.2-3.3-0.3-4.9
			v-0.6c0-1.1,0.1-2.2,0.1-3.3C870.1,2511.1,870.1,2509.9,870.2,2508.7z"/>
		<path class="st3" d="M909.5,2521.8v0.1c0,4.1-0.1,8.2-0.1,12.3v0.8c0,0.2-0.1,0.4-0.3,0.5c-0.3,0.2-0.5,0.2-0.9,0.2h-0.1
			c-0.2,0-0.3-0.1-0.5-0.1c-1.1-0.1-1.7-0.1-2.9-0.1h-0.3c-1.4,0-3.5,0.1-4.5,0.1c-0.3,0-0.6-0.1-0.9-0.1c-0.5-0.1-0.5-0.2-0.5-0.7
			c-0.1-5.1-0.1-9.9-0.1-15c0.1-1,0.1-2,0.1-3v-0.8c0-5.5,0.2-11.1,0.2-16.4c0-0.6,0-1.2-0.1-1.7c0-0.1,0-0.3,0.1-0.4
			c0.1-0.3,0.3-0.4,0.6-0.4h0.5c0.8,0,1.5,0.1,2.5,0.2h1.7c1.4,0,1.9,0.1,2.8,0.1h0.6c0.2-0.1,0.4-0.1,0.5-0.1c0.2,0,0.3,0,0.4,0.2
			c0.3,0.3,0.3,0.6,0.3,1v0.3c-0.1,1.2-0.1,2.3-0.2,3.5c-0.1,0.5-0.1,1-0.1,1.5c0,3-0.5,8.6-0.5,9.2c0,0,1.5-2.5,2.3-3.6
			c0.8-1.1,1.2-1.9,2-2.9c0.8-1.1,1.6-3.1,2.4-4.3c0.5-0.8,1.1-2.3,1.6-3.2c0.4-0.7,0.5-0.5,1-1.3c0-0.1,0.1-0.2,0.1-0.2
			c0.2-0.2,0.4-0.3,0.5-0.3h1.2c0.9,0,1.3,0.1,2.3,0.2h0.3c0.7,0,1.6-0.1,2.4-0.1c0.5,0,0.9,0,1.2,0.1c0.3,0.2,0.6,0.4,0.9,0.6
			c0.1,0.1,0.1,0.2,0.1,0.3c0,0.1-0.1,0.2-0.1,0.3c-2.8,6.2-7,13.8-8.9,16.3c2.1,4.7,5.6,13.1,8.8,19.6c0.1,0.1,0.1,0.4,0.1,0.7
			c0,0.1,0,0.2-0.1,0.2c-0.3,0.3-1.4,0.4-2,0.5c-0.4,0.1-0.8,0.1-1.1,0.1c-0.7,0-1.1-0.1-1.7-0.1c-0.2,0-0.5,0-0.8,0.1
			c-0.2,0.1-0.5,0.1-0.8,0.1c-0.4,0-0.8-0.1-1.3-0.1c-0.4-0.1-0.7-0.2-0.9-0.5l-0.1-0.1c-0.1-0.2-0.1-0.4-0.2-0.6
			c-0.4-1-0.8-1.8-1.2-2.6c-0.6-1.3-1.2-2.5-1.9-4c-0.3-0.5-0.4-1-0.7-1.6c-1-2.2-2.1-3.9-2.9-5.8l-0.6,0.6
			C909.8,2521.5,909.5,2521.6,909.5,2521.8z"/>
		<path class="st3" d="M948.5,2509.3c-0.7,0-1.1,0.2-2.1,0.2c-0.6,0.1-0.7,0.1-1.3,0.1c-0.1,0-0.3,0-0.4-0.1l-1-0.2
			c-0.2,0-0.4-0.1-0.5-0.1c-0.3-0.2-0.5-0.4-0.5-0.7c0-3.9,0.1-3.5,0.1-7.7v-2.1c0-0.6,0.1-1,0.2-1.6c0-0.4,0.3-0.4,0.6-0.4h2
			c0.9-0.1,1.8-0.1,2.6-0.1c0.6,0,1.5,0.1,2.1,0.1c0.6,0.1,1.2,0.1,1.9,0.1c1.3,0.1,2.6,0,3.9,0.1c1.3,0.2,3,0.1,4.3,0.2
			c0.8,0.1,1.6,0.1,2.4,0.1c0.3,0,0.6,0.1,0.7,0.2c0.3,0.4,0.3,0.7,0.3,1.3c0.1,0.6,0.1,1.2,0.1,1.8c0,0.6-0.1,1.2-0.1,1.8v1.1
			c0,3.4,0.3,2,0.3,5.5c0,0,0,0.1-0.1,0.1c-0.1,0.3-0.7,0.4-1.4,0.4c-1.2,0-1,0-2.1,0.1c-0.4,0-0.7,0.1-1,0.1h-0.2
			c-0.2-0.1-0.4-0.1-0.5-0.1c-0.5,0-0.7,0.1-0.7,0.4c-0.4,1-0.4,2.1-0.4,3.2c0,0.5,0.1,1,0.1,1.5c0.1,0.2,0.1,0.4,0.1,0.7
			c0,3.2-0.1,5.1-0.1,8.5v2.8c0,2.2-0.1,4.5-0.1,6.8c0,0.5,0,1,0.1,1.5c0,0.3,0,0.4,0.1,0.6c0,0.3-0.1,0.4-0.3,0.4
			c-0.5,0.1-1,0.1-1.4,0.1c-0.7,0-1.4-0.1-2.1-0.1c-0.8-0.1-1.2-0.1-2.1-0.2c-0.8-0.1-2.2-0.1-2.4-0.5c-0.1-0.1-0.2-0.5-0.2-0.7h0.1
			v-5.6c0-2-0.1-3.6-0.1-5.9c-0.1-0.1-0.1-0.1-0.1-0.1c0,0,0-0.1,0.1-0.1c0.1-4.1,0.1-5.5,0.1-10.4c0-0.7,0.1-1.5,0.1-2.3v-0.4
			c0-0.2-0.1-0.3-0.2-0.4C949.1,2509.4,948.8,2509.3,948.5,2509.3z"/>
		<path class="st3" d="M982.3,2535.2c-1.2,0.7-3.3,1.3-5.4,1.4h-0.6c-1.7,0-3.1-0.4-4.4-1.2c-2.5-1.5-3.9-4-4.7-7
			c-0.3-1.3-0.6-2.8-0.7-4.2c-0.2-2.2-0.3-4.5-0.4-6.8c-0.1-0.7-0.1-1.6-0.1-2.3c0-1.1,0.1-2.2,0.1-3.4c0.1-0.9,0.2-1.8,0.3-2.7
			c0.4-4.1,0.8-6.8,2.8-9.3c0.8-1.3,2.1-2.5,4-2.8c1.1-0.2,2.3-0.3,3.5-0.3c2.1,0,4.3,0.4,5.9,1.4c0.6,0.4,1.3,0.7,1.9,1.3
			c3.4,3,4.3,7.4,4.3,14.9v1.1c0.1,1,0.1,1.9,0.1,2.9c0,6.6-0.8,12.1-4.3,15.6C983.7,2534.3,983,2534.8,982.3,2535.2z M979.4,2509
			c-0.2-0.3-0.8-0.6-1.5-0.6h-0.2c-1,0.1-1.7,0.5-2.2,1.1c-1,1.3-1.6,2.8-1.9,4.4c-0.1,0.5-0.2,1.2-0.2,1.8v0.6
			c0.1,1.9,0.8,6.6,3.3,6.6c3.4,0,4-4.6,4-8.3c0-0.6-0.1-1.2-0.1-1.7c0-0.5-0.1-1.1-0.2-1.6C980.2,2510.1,980,2509.6,979.4,2509z"/>
		<path class="st3" d="M1029.4,2524.8c1.2,2.2,2.9,4.8,3.9,6.7c0.3,0.5,0.6,1.1,0.8,1.6c0.3,0.5,0.5,1.1,0.7,1.7
			c0.1,0.1,0.1,0.2,0.1,0.3c0,0.2-0.1,0.3-0.2,0.4c-0.1,0.2-1.2,0.6-2.1,0.6h-0.2c-0.6-0.1-2.1-0.1-2.8-0.1c-0.5,0-0.8-0.1-1.3-0.1
			c-0.5,0-1.1,0.2-1.5,0.2c-0.2,0-0.3-0.1-0.4-0.1c-0.3-0.3-0.7-1.3-1.3-2.5c-0.2-0.4-0.5-0.8-0.6-1.2c-0.6-1.3-1.5-2.5-2.2-3.8
			c-0.5-1-1.1-2-1.6-2.9c-0.4-0.7-0.8-1.4-1.3-2.1c-0.3-0.4-2.6-4.3-3.6-4.9c0,0.2-0.1,0.8-0.1,1c-0.1,1.1-0.1,1.7-0.1,2.2
			c0,1,0.1,1.2,0.1,2.9c0,2.7,0.1,5.1,0.1,7.9v2c0,0.6-0.1,1.2-0.6,1.2c-2.2,0-3.9-0.1-6.5-0.1h-1c-0.6,0-0.8-0.2-0.8-0.9v-1.7
			c0.1-5.2,0.3-10.1,0.3-16.3c0-3.2-0.1-6.4-0.1-9.5v-2.1c0-1.1-0.1-2-0.1-3.3v-3.8c0-0.2,0.1-0.3,0.1-0.4c0.1-0.3,0.2-0.4,0.4-0.4
			h0.5c0.3,0,0.7-0.1,1.1-0.1c1.2,0,2-0.1,3-0.1c0.6,0,1.2,0.1,2,0.1c1.5,0.1,3.3,0.1,5,0.1h4.4c3.5,0.1,7.1,0.1,8.8,2.2
			c1.1,1.4,1.7,2.6,2.3,4.3c0.2,0.7,0.3,1.4,0.3,2.1c0,5.4-3,11.7-7.2,12.8c-0.6,0.2-1.7,0.2-2.4,0.2c-0.1,0-0.1,0.1-0.1,0.1
			c0,0.5,2.6,3.7,3.5,5.1C1029.2,2524.4,1029.3,2524.5,1029.4,2524.8z M1024.1,2509.9c0.3-0.4,0.4-3,0.4-3.3c0-0.5-0.2-1-0.7-1.4
			c-1.3-0.9-3.1-1.3-4.7-1.3c-1.2,0-1.6,0.3-1.9,0.4c-0.1,0.1-0.1,0.2-0.1,0.3v0.1c0,0.6,0.1,1.3,0.1,2.1c0,0.5-0.1,3.2-0.1,3.7
			c0,0.4,0.1,0.8,0.1,1.2c0.3,0.1,1.1,0.1,1.6,0.1h0.5c1.7-0.2,0.7,0,2.9-0.4C1022.8,2511.1,1023.5,2510.7,1024.1,2509.9z"/>
		<path class="st3" d="M1049.4,2535.9h-0.7c-1,0-1.7-0.1-2.8-0.1h-0.5c-1,0.1-2.8,0.1-3.6,0.1c-0.6,0-1.3-0.1-1.9-0.2
			c-0.6-0.1-1.2-0.3-1.9-0.4c-0.4-0.1-0.6-0.4-0.7-0.8c-0.1-0.2-0.1-0.3-0.1-0.4c0-1-0.1-1.9-0.1-2.8v-6.6c0-1.8,0-3.6-0.1-5.4
			c-0.1-2.1-0.1-4.1-0.1-6.1c0-3,0.1-5.8,0.1-9c0-2.1,0.1-4.3,0.1-6.5c0.1-0.4,0.3-0.6,0.7-0.6c1.4,0,3.2,0.3,4.4,0.3
			c1.9,0.1,3.9,0.1,5.8,0.1c2.4,0,5-0.1,7.3-0.2h0.5c0.5,0,1,0.1,1.3,0.4c0.2,0.1,0.2,0.7,0.2,1v0.5c0,1.1,0.1,2,0.1,2.8
			c0,0.7,0,1.5-0.1,2.4v2c0.1,0.5,0.1,1.1,0.1,1.6c0,0.5-0.7,0.6-1.3,0.6c-0.4,0-0.7-0.1-1.1-0.1c-1.7,0-4.2-0.3-6.3-0.3h-1.6
			c-0.2,0.1-0.4,0.2-0.4,0.4c0,0.1,0,0.1-0.1,0.2v1.2c0,0.5,0,0.7,0,0.9c0,0.2,0,0.4,0.1,0.6c0.1,0,1.8-0.1,2.6-0.1h3.1
			c0.5,0,1,0,1.6,0.1c0.4,0,0.6,0,1,0.1c0.3,0,1,0,1.2,0.1c0.5,0.2,0.7,1.3,0.7,2v0.8c0,1.8-0.1,1-0.1,3v0.1c0,0.2,0,0.3-0.2,0.4
			c-0.1,0.1-0.4,0.1-0.5,0.1c-2.6,0.1-5.1,0.2-7.9,0.2c-0.5,0-0.9,0.1-1.3,0.2c-0.3,0.1-0.4,0.2-0.4,0.5c-0.1,1.1-0.1,2.1-0.1,3.2
			c0,0.3,0.1,0.4,0.4,0.4c1,0.1,1.9,0.1,2.9,0.1h0.7c1.9,0,3.5,0.3,5.4,0.4c0.3,0.1,0.6,0,0.8,0.1c0.5,0.1,0.7,0.4,0.7,1
			c0,0.7,0.1,1.4,0.1,2.1v3.3c0.1,1.4,0.1,3.3,0.2,4.7v0.6c0,0.6-0.1,0.6-0.5,0.8c-0.2,0.1-0.3,0.1-0.4,0.1
			c-1.7,0.2-3.8,0.2-5.8,0.2C1050.5,2535.9,1050,2535.9,1049.4,2535.9z"/>
		<path class="st3" d="M1059.6,2508.7c0.4-6.4,3.8-10,9-11.7c0.5-0.2,1.1-0.3,1.6-0.4c0.6-0.1,1.1-0.2,1.7-0.2c1.7,0,3,0,4.9,0.3
			c3,0.4,4.4,0.4,7.1,3.1c0.7,0.7,1,1.3,1.2,2.1c0.2,0.7,0.4,1.3,0.5,2c0.1,0.8,0.2,1.7,0.2,2.6c0,2.3-0.1,3.5-0.3,5.5
			c-0.1,0.6-0.2,1.3-0.3,1.9c-0.1,0.5-0.3,0.8-0.8,1c-0.4,0.1-0.9,0.1-1.3,0.1h-4.7c-0.2,0-0.7,0.1-1.3,0.1c-0.9,0-1.9-0.2-1.9-1
			c-0.1-0.6-0.1-1.2-0.1-1.8c0-1.9,0.1-2.8,0.1-4.6c0-1-0.1-1.8-0.5-2.6c-0.1-0.1-0.1-0.2-0.2-0.3c-0.4-0.4-1.1-0.6-1.8-0.6
			c-0.3,0-0.5,0.1-0.8,0.2c-1.1,0.6-1.5,1.3-2.1,2.3c-0.5,1-0.7,2.1-0.7,3.1c-0.1,1.5-0.2,2.6-0.3,4.3v0.6c0.1,1,0.1,1.7,0.1,2.5
			v2.3c0,1.1,0,2.2,0.1,2.7c0.2,0.7,0.2,1.6,0.7,2.5c0.5,0.7,1.1,1.1,1.7,1.1h0.1c0.6,0,1.2-0.3,1.6-0.7c0.3-0.3,0.4-0.7,0.5-1.2
			c0.1-0.5,0.2-2.6,0.2-3.1s0.1-1.8,0.3-2.2c0.1-0.2,0.4-0.3,0.6-0.3h0.2c0.9,0.1,1.4,0.1,2.3,0.2c1.2,0.1,1.9,0.2,3.1,0.2h0.3
			c1,0,1.6-0.1,2.5-0.1h0.4c0.5,0,0.8,0.2,1.2,0.3c0.3,0.1,0.5,0.4,0.5,0.7c0.1,0.2,0.1,0.4,0.1,0.6c-0.1,1.9-0.1,4.5-0.2,6.4
			c-0.3,2.9-1.2,4.8-2.4,6.7c-0.5,0.7-1,1.3-1.8,1.7c-0.7,0.3-1.3,0.6-2,0.8c-0.2,0.1-0.3,0.1-0.4,0.1c-1.2,0.2-2.4,0.4-3.6,0.6
			c-0.9,0.1-1.7,0.2-2.6,0.2c-0.9,0-1.8-0.1-2.6-0.3c-0.7-0.2-1.5-0.3-2.2-0.4c-1.9-0.5-3.5-1.5-4.7-3.3c-0.4-0.6-0.9-1.4-1.2-2.1
			c-0.2-0.5-0.4-1-0.5-1.5c-0.4-1.3-0.7-2.6-0.8-4c-0.1-1.2-0.3-2.3-0.4-3.5c-0.1-0.2-0.1-0.5-0.1-0.7c-0.1-1.6-0.2-3.3-0.3-4.9
			v-0.6c0-1.1,0.1-2.2,0.1-3.3C1059.5,2511.1,1059.5,2509.9,1059.6,2508.7z"/>
		<path class="st3" d="M1087.9,2502c0-1.3,0.1-2.2,0.1-3.3c0-0.9,0.1-1.1,0.3-1.2c0.4-0.3,1.3-0.3,2.4-0.3h1c0.6,0,1.3,0,2.2-0.1
			h2.7c1.3,0,1.8,0.1,2.2,0.2c0.4,0.1,0.5,0.3,0.5,0.4v0.4c0,0.8,0.1,1.6,0.1,2.4c0,1.8-0.1,3.3-0.1,5.5c-0.1,4.3-0.1,6.7-0.1,11.1
			v2.4c0,5,0.2,8.5,0.2,13.6v2.4c0,0.5-0.4,0.6-0.9,0.6c-3.1,0-6.1,0.1-8.9,0.1c-0.3,0-0.6-0.1-1-0.2c-0.2-0.1-0.3-0.8-0.3-1
			c0-1.7-0.2-3-0.2-4.9c-0.1-10.8-0.2-16.9-0.2-27.7C1087.9,2502.1,1087.9,2502,1087.9,2502z"/>
		<path class="st3" d="M1120.9,2514.9c-1.9,2.4-5.6,2.3-9.3,2.7h-0.7c-0.1,0.2-0.1,0.4-0.1,0.5v0.1c-0.1,3.7-0.2,5.8-0.2,9.5v0.7
			c0,1.2,0.1,2.7,0.1,3.9v2.6c0,0.1,0.1,0.5,0.1,0.6c0,0.5-0.5,0.5-1,0.5h-4c-0.7,0-1.7-0.1-2.4-0.1c-0.3,0-0.5-0.1-0.8-0.1
			c-0.1,0-0.2-0.1-0.3-0.1c-0.3-0.2-0.5-0.3-0.5-0.7v-0.1c0-0.5,0.1-1,0.1-1.5v-0.6c0.1-1.5,0.1-3.1,0.1-4.6v-0.1
			c0-0.8-0.1-1.7-0.1-2.5c0-0.5,0-1,0.1-1.5c0.1-1,0.1-2,0.1-3c0.1-0.8,0.1-1.6,0.1-2.4c0-1.1-0.1-2.2-0.1-3.3c0-1,0-1.9-0.1-2.8
			v-0.4c0-0.5,0.1-1.1,0.1-1.6v-1.3c0-3-0.1-5.8-0.1-8.8v-1.6c0-0.8,0.1-1.9,0.5-1.9h0.3c1.2-0.1,3-0.1,4.2-0.1h0.3
			c1,0,1.9-0.1,2.8-0.1h2.4c0.8,0,1.6,0,2.5,0.1c1.4,0.1,2.8,0.3,4.1,0.9c0.4,0.2,1,0.4,1.4,0.6c0.7,0.3,1.4,0.8,1.9,1.4
			c0.2,0.2,0.3,0.4,0.5,0.5c1.2,1.3,1.7,3.3,1.7,5.4c0,0.4,0,0.8-0.1,1.3c-0.2,2.4-1,4.9-2.1,6.1
			C1121.9,2513.7,1121.4,2514.3,1120.9,2514.9z M1115.2,2506.7c0-0.7-0.4-1.3-1-1.7c-0.5-0.3-1-0.4-1.6-0.4c-0.9,0-1.7,0-2.7,0.1
			c-0.2,0-0.4,0.1-0.4,0.3c-0.3,1-0.2,2.3-0.2,3.3v0.5c0,0.3,0,0.7,0.1,1.1c0.3,0.1,0.5,0.1,0.7,0.1c0.7-0.1,1.3-0.2,2-0.3
			c0.5-0.1,1-0.2,1.4-0.4c1-0.4,1.6-1,1.7-2.1V2506.7z"/>
		<path class="st3" d="M1138.5,2535.9h-0.7c-1,0-1.7-0.1-2.8-0.1h-0.5c-1,0.1-2.8,0.1-3.6,0.1c-0.6,0-1.3-0.1-1.9-0.2
			c-0.6-0.1-1.2-0.3-1.9-0.4c-0.4-0.1-0.6-0.4-0.7-0.8c-0.1-0.2-0.1-0.3-0.1-0.4c0-1-0.1-1.9-0.1-2.8v-6.6c0-1.8,0-3.6-0.1-5.4
			c-0.1-2.1-0.1-4.1-0.1-6.1c0-3,0.1-5.8,0.1-9c0-2.1,0.1-4.3,0.1-6.5c0.1-0.4,0.3-0.6,0.7-0.6c1.4,0,3.2,0.3,4.4,0.3
			c1.9,0.1,3.9,0.1,5.8,0.1c2.4,0,5-0.1,7.3-0.2h0.5c0.5,0,1,0.1,1.3,0.4c0.2,0.1,0.2,0.7,0.2,1v0.5c0,1.1,0.1,2,0.1,2.8
			c0,0.7,0,1.5-0.1,2.4v2c0.1,0.5,0.1,1.1,0.1,1.6c0,0.5-0.7,0.6-1.3,0.6c-0.4,0-0.7-0.1-1.1-0.1c-1.7,0-4.2-0.3-6.3-0.3h-1.6
			c-0.2,0.1-0.4,0.2-0.4,0.4c0,0.1,0,0.1-0.1,0.2v1.2c0,0.5,0,0.7,0,0.9c0,0.2,0,0.4,0.1,0.6c0.1,0,1.8-0.1,2.6-0.1h3.1
			c0.5,0,1,0,1.6,0.1c0.4,0,0.6,0,1,0.1c0.3,0,1,0,1.2,0.1c0.5,0.2,0.7,1.3,0.7,2v0.8c0,1.8-0.1,1-0.1,3v0.1c0,0.2,0,0.3-0.2,0.4
			c-0.1,0.1-0.4,0.1-0.5,0.1c-2.6,0.1-5.1,0.2-7.9,0.2c-0.5,0-0.9,0.1-1.3,0.2c-0.3,0.1-0.4,0.2-0.4,0.5c-0.1,1.1-0.1,2.1-0.1,3.2
			c0,0.3,0.1,0.4,0.4,0.4c1,0.1,1.9,0.1,2.9,0.1h0.7c1.9,0,3.5,0.3,5.4,0.4c0.3,0.1,0.6,0,0.8,0.1c0.5,0.1,0.7,0.4,0.7,1
			c0,0.7,0.1,1.4,0.1,2.1v3.3c0.1,1.4,0.1,3.3,0.2,4.7v0.6c0,0.6-0.1,0.6-0.5,0.8c-0.2,0.1-0.3,0.1-0.4,0.1
			c-1.7,0.2-3.8,0.2-5.8,0.2C1139.6,2535.9,1139.1,2535.9,1138.5,2535.9z"/>
		<path class="st3" d="M1162.9,2510.1c-0.4,0.4-0.6,0.8-0.6,1.3c0,0.2,0,0.3,0.1,0.5c0.2,0.7,0.4,1.4,1.1,1.9
			c0.9,0.6,1.8,1.1,2.8,1.6c1.6,0.9,3.3,1.9,4.8,3.1c1.3,1,2.5,2.4,3.2,4.2c0.5,1.1,0.7,2.3,0.7,3.7c0,0.4,0,0.7-0.1,1.1
			c-0.3,3.2-2.1,6.1-4.7,7.4c-1.1,0.5-2.1,0.6-3.4,0.8c-1.7,0.3-3.5,0.4-5.4,0.4c-1.8,0-3.6-0.1-5.2-0.1c-1.5-0.1-3.7-0.1-5-0.5
			c-0.6-0.2-1.1-0.3-1.5-0.6c-0.2-0.2-0.3-0.4-0.3-0.6c-0.1-0.2-0.1-0.4-0.1-0.6c0-1-0.1-2-0.1-3v-3c0-0.5-0.1-0.9-0.1-1.4
			c0-0.7-0.1-1.2-0.1-1.6c0-0.6,0.2-0.7,1.1-0.8c0.2-0.1,0.8-0.1,1.1-0.1c1.7,0,3.3,0.1,5.1,0.1h1.2c0.6,0,1.5-0.2,1.5-0.2
			c0.2-0.1,0.3-0.1,0.5-0.2c0.6-0.4,1.2-0.8,1.7-1.3c0.4-0.4,0.6-1,0.6-1.5c0-1-0.8-1.8-1.9-2.5c-1.2-0.8-2.7-1.5-3.5-1.8
			c-0.7-0.3-1.5-0.5-2.3-0.8c-1.2-0.6-2.3-1.4-3.1-2.4c-0.6-0.7-1.1-1.5-1.4-2.3c-0.3-0.7-0.4-1.4-0.6-2.3c-0.1-0.3-0.1-0.6-0.1-0.8
			c0-0.4,0-0.7,0.1-1.2c0.1-0.5,0.2-0.8,0.3-1.3c0.1-0.2,0.1-0.2,0.1-0.4c1.4-2.9,3.2-4.7,6.1-6.1c0.2-0.1,0.4-0.2,0.6-0.3
			c2.3-0.8,5.1-1,8-1h2.9c1.9,0,4.2,0.1,5.9,0.3c0.3,0.1,1,0.1,1.2,0.4c0.4,0.4,0.5,0.7,0.6,1.2c0.1,0.3,0,0.6,0.1,1v2.2
			c0,0.7,0.1,1.5,0.1,2.3c0,2.9-0.1,0.7-0.1,3.6c0,0.2,0,0.4-0.1,0.5c-0.1,0.4-0.4,0.4-0.8,0.4h-1.1c-0.4,0-1.3,0.1-2.2,0.1h-0.8
			c-0.6-0.1-1.3-0.1-2-0.1c-0.7,0-1.4,0-2.1,0.1C1164.3,2509.4,1164,2509.1,1162.9,2510.1z"/>
	</g>
</g>
</svg>
