<?xml version="1.0" encoding="UTF-8"?>
<svg id="Layer_2" data-name="Layer 2" xmlns="http://www.w3.org/2000/svg" viewBox="0 0 407.8 223.71">
  <defs>
    <style>
      .cls-1, .cls-2 {
        stroke-width: 0px;
      }

      .cls-2 {
        fill: #fff;
      }
    </style>
  </defs>
  <g id="good_morning_burger_logo" data-name="good morning burger logo">
    <g>
      <path class="cls-1" d="m.12,84.28c0-2.81.12-5.49.12-8.3,0-1.34-.12-2.81-.12-4.15-.12-2.32-.12-4.76-.12-7.08,0-3.29,0-6.47.12-9.76,0-5.49.37-10.98.49-16.47v-8.54c.12-3.66.49-6.47.49-10v-1.34c-.12-1.83-.24-3.78-.24-5.73v-.98c0-.85.24-1.46.98-1.95.49-.37.85-.37,1.34-.37h1.1c1.71,0,3.54-.12,5.25-.12s3.29.12,4.03.12c1.71.12,5,.12,6.71.24h.85c1.46,0,2.44.98,2.44,2.32,0,.24,0,.49-.12.85-.49,2.07-.49,4.15-.61,6.22-.24,3.54-.37,5.25-.37,8.91v4.88c0,.85-.12,1.83-.12,2.81,0,.37-.24,1.95-.24,3.29v.49c0,2.44.12,2.93.12,6.59,0,.24.24.37.49.37s.61-.12.85-.12h1.46c4.76.49,7.69.73,12.08.73h.49v-.24c0-4.27,0-6.59-.12-10.86v-1.22c.12-3.29.37-5.73.37-8.42,0-.85-.12-1.71-.12-2.56-.12-1.71-.12-1.34-.12-3.05-.12-2.44-.37-4.88-.37-7.2,0-.73.12-1.46.12-2.2,0-.49.12-.85.37-1.22.12-.24.49-.49.85-.49h.12c.37,0,.98-.12,1.59-.12,4.03-.12,8.42-.12,12.44-.24h1.34c1.22,0,2.32.12,2.32,1.71,0,.98-.12,1.95-.12,2.93,0,2.07.24,4.03.24,5.98,0,.85,0,1.71-.12,2.56-.24,2.81-.24,5-.24,6.71v3.05c0,4.27.24,5.12.24,10.61v34.4c0,3.17-.24,5.37-.24,7.81,0,.85,0,1.95.12,2.93,0,.49.12,1.1.12,1.83,0,1.34-.12,3.05-.12,4.64v1.59c0,.98-.12,1.83-.61,1.83h-13.42c-.24,0-1.34-.12-1.59-.12s-.61-.12-.85-.24c-.85-.37-1.34-1.59-1.46-2.93v-8.54c0-1.46-.12-2.93-.12-4.39-.12-1.83-.12-3.54-.24-5.37-.12-2.32-.12-3.9-.12-5.37v-7.2c0-.12-.37-.24-.49-.24h-.98c-2.81,0-3.17-.37-4.76-.37-.49,0-1.1,0-1.95.12-1.83.12-3.05.24-4.64.24h-1.1c-.73,0-1.46.12-1.46.73v.61c0,1.71-.12,3.05-.12,5.12v1.34c0,1.34-.12,1.83-.12,2.56,0,.49,0,.85.12,1.59.24,4.76.24,9.88.49,15.13v5.37c0,.98-.85,1.71-1.83,1.83-.85.12-1.71.12-2.56.12-3.78,0-8.17-.61-11.59-.73H1.1c-.49-.37-.98-.73-.98-1.46v-11.47Z"/>
      <path class="cls-1" d="m99.06,96.11c-2.68,1.59-7.69,2.93-12.44,3.29h-1.46c-3.9,0-7.2-.98-10.13-2.68-5.73-3.42-8.91-9.15-10.74-16.1-.73-3.05-1.34-6.34-1.71-9.76-.49-5-.73-10.37-.98-15.74-.12-1.71-.12-3.66-.12-5.37,0-2.56.12-5.12.24-7.81.12-2.07.49-4.15.61-6.22.98-9.52,1.95-15.74,6.47-21.47,1.95-2.93,4.88-5.86,9.15-6.34,2.44-.37,5.25-.73,8.05-.73,4.88,0,10,.85,13.54,3.17,1.46.85,3.05,1.71,4.27,2.93,7.93,6.95,10,16.96,10,34.28v2.56c.12,2.2.12,4.39.12,6.59,0,15.13-1.83,27.94-10,35.87-1.46,1.46-3.17,2.56-4.88,3.54Zm-6.47-60.39c-.37-.61-1.95-1.34-3.54-1.34h-.49c-2.2.24-4.03,1.22-5,2.44-2.32,2.93-3.66,6.34-4.27,10.13-.12,1.22-.37,2.68-.37,4.15v1.34c.24,4.39,1.83,15.25,7.69,15.25,7.81,0,9.15-10.61,9.15-19.03,0-1.46-.24-2.68-.24-4.03,0-1.1-.12-2.44-.49-3.78-.61-2.56-1.1-3.66-2.44-5.12Z"/>
      <path class="cls-1" d="m120.65,9.25h1.22c1.34.12,2.44.12,3.54.12h5.37c2.32,0,4.64,0,7.08.37.61.12,1.22,0,1.71.49.85.85,6.1,20.5,6.47,21.59,1.22,3.54,2.68,11.1,3.54,14.64.12.37.37.73.61,1.22.61-.85.85-1.59,1.1-2.44,1.22-4.15,2.56-8.17,3.66-12.32.12-.61.37-1.1.49-1.59.24-.73,3.66-14.64,5.37-20.62.49-1.59.61-2.2.98-2.44.24-.12.49-.12.73-.12.37,0,.98,0,1.71.12,2.68.12,5.12.24,7.44.49,4.88.49,10.98,0,15.01,1.34,1.34.73,1.46,2.81,1.46,4.88v2.56c0,5.49.12,11.47.12,17.08,0,7.44-.12,15.01-.12,22.57v33.91c0,2.07-.12,4.51-.61,6.1-.37.85-2.68.85-4.64.85h-8.91c-1.59,0-3.17,0-5-.12-.61,0-.98-.37-1.46-.61-.49-.24-.85-.73-.85-1.46-.12-2.68-.12-5.37-.24-8.17v-5.73c0-3.66,0-7.32.12-10.86.37-5.61.37-8.66.49-14.15,0-1.22.12-2.2.12-3.17,0-1.46-.12-3.05-.12-4.51-5.37,16.71-6.1,23.18-10.61,37.09-.49,1.71-.73,2.68-2.07,2.68h-.61c-.85-.24-1.1-.61-1.46-1.71-2.32-6.59-6.83-17.81-9.39-26.96-.49-1.83-.98-3.54-2.07-5.61-.49-.98-1.46-3.17-1.95-3.17-.12,0-.24.12-.24.37-.49,2.56-.61,5.12-.61,7.56,0,12.44-.12,22.57-.12,35.87,0,.73-.24,1.1-.73,1.22-8.42.98-3.78,1.34-13.3,1.34-.61,0-1.46-.12-2.2-.24-1.46-.37-1.83-.98-1.95-2.56,0-2.32-.12-4.88-.12-7.44v-.73c0-2.81-.12-5.61-.12-8.54v-2.44c0-3.05-.12-6.1-.12-9.15-.12-2.93-.12-6.1-.12-9.03s0-5.37.24-7.93c.24-2.44.37-4.76.37-7.2-.12-3.9-.12-7.93-.24-11.96,0-4.03-.12-8.42-.12-12.81,0-1.34-.12-2.56-.12-3.9s.12-2.68.49-4.27c.12-.37.49-.49.85-.49Z"/>
      <path class="cls-1" d="m222.52,97.82h-1.59c-2.32,0-4.03-.24-6.34-.24h-1.1c-2.2.12-6.47.24-8.3.24-1.46,0-2.93-.12-4.39-.37s-2.81-.61-4.27-.98c-.98-.24-1.46-.98-1.59-1.95-.12-.37-.12-.61-.12-.98,0-2.2-.12-4.39-.12-6.47v-15.25c0-4.15,0-8.3-.12-12.44-.24-4.88-.24-9.52-.24-14.03,0-6.83.12-13.42.12-20.62,0-4.76.12-10,.12-14.88.12-.98.61-1.46,1.59-1.46,3.17,0,7.32.61,10.12.61,4.39.12,8.91.12,13.3.12,5.49,0,11.47-.12,16.71-.37h1.22c1.22,0,2.2.12,3.05.98.37.24.37,1.71.37,2.2v1.22c0,2.44.12,4.51.12,6.47,0,1.71,0,3.42-.24,5.61v4.64c.12,1.22.12,2.44.12,3.78,0,1.22-1.59,1.46-2.93,1.46-.85,0-1.71-.12-2.44-.12-4.03,0-9.64-.61-14.4-.61h-3.66c-.49.12-.85.37-.98.85,0,.12,0,.24-.12.37v4.76c0,.49,0,.85.12,1.34.24,0,4.15-.24,6.1-.24h7.08c1.1,0,2.2,0,3.66.12.85,0,1.46,0,2.32.12.61,0,2.2,0,2.68.24,1.22.37,1.71,3.05,1.71,4.51v1.83c0,4.15-.12,2.32-.12,6.95v.24c0,.49,0,.61-.37.98-.12.12-.85.24-1.1.24-5.98.24-11.83.37-18.18.37-1.1,0-2.07.24-3.05.49-.73.12-.98.49-.98,1.22-.12,2.44-.24,4.88-.24,7.32,0,.73.24.98.98.98,2.2.12,4.39.24,6.59.24h1.59c4.39,0,8.05.61,12.44.98.61.12,1.34,0,1.95.12,1.22.24,1.59.98,1.59,2.2,0,1.59.12,3.17.12,4.76v7.69c.12,3.17.24,7.56.37,10.74v1.34c0,1.34-.12,1.46-1.1,1.83-.37.12-.61.24-.98.24-3.9.37-8.66.49-13.3.49-1.22,0-2.32,0-3.78.12Z"/>
      <path class="cls-1" d="m298.16,72.08c2.68,5.12,6.71,10.98,9.03,15.49.73,1.22,1.34,2.44,1.83,3.66.61,1.22,1.1,2.56,1.71,3.9.12.24.12.37.12.61,0,.37-.12.61-.37.98-.24.49-2.68,1.46-4.76,1.46h-.37c-1.46-.12-4.76-.24-6.34-.24-1.1,0-1.83-.12-2.93-.12-1.22,0-2.44.37-3.42.37-.37,0-.61-.12-.85-.24-.61-.61-1.59-3.05-3.05-5.73-.49-.98-1.1-1.95-1.46-2.81-1.46-2.93-3.54-5.86-5-8.66-1.22-2.2-2.44-4.51-3.66-6.71-.98-1.59-1.95-3.17-2.93-4.88-.61-.98-5.98-10-8.17-11.34,0,.49-.12,1.95-.12,2.2-.12,2.44-.12,3.9-.12,5,0,2.32.12,2.81.12,6.71,0,6.22.12,11.71.12,18.18v4.51c0,1.46-.12,2.81-1.46,2.81-5.12,0-8.91-.12-14.88-.12h-2.2c-1.34,0-1.83-.49-1.83-2.07v-4.03c.12-12.08.61-23.3.61-37.45,0-7.44-.12-14.64-.12-21.96v-4.88c0-2.56-.12-4.64-.12-7.56v-8.66c0-.37.12-.61.12-.98.12-.73.37-.85.85-.85h1.1c.61,0,1.59-.12,2.44-.12,2.81,0,4.64-.12,6.83-.12,1.46,0,2.81.12,4.64.12,3.54.12,7.56.12,11.47.12h10.13c8.05.12,16.35.12,20.37,5,2.44,3.17,3.9,5.98,5.25,9.88.49,1.71.61,3.29.61,4.88,0,12.32-6.83,26.84-16.47,29.52-1.34.37-4.03.49-5.49.49-.12,0-.12.12-.12.24,0,1.22,6.1,8.54,8.05,11.83.37.73.49.98.85,1.59Zm-12.32-34.28c.61-.98.85-6.83.85-7.69,0-1.22-.49-2.32-1.59-3.17-3.05-2.07-7.08-2.93-10.86-2.93-2.68,0-3.78.61-4.39.98-.24.12-.24.37-.24.61v.12c0,1.34.12,3.05.12,4.76,0,1.22-.12,7.32-.12,8.54,0,.98.12,1.95.12,2.81.61.12,2.44.12,3.66.12h1.1c4.03-.37,1.59,0,6.59-.98,1.83-.37,3.54-1.34,4.76-3.17Z"/>
      <path class="cls-1" d="m331.22,37.43c-2.2,2.07-4.88,3.29-7.93,3.78-.24,0-.61.12-.98.12-2.32,0-4.76-1.59-5.73-3.42-.61-1.1-.49-2.32-.24-3.42.12-.24.37-.37.49-.49.73-.37,1.34-.73,2.07-.85,1.1-.24,1.83-.85,2.56-1.59.61-.49.61-1.1,0-1.59-.73-.73-1.46-1.34-2.2-1.95-1.34-.98-2.44-2.2-3.05-3.78-.12-.37-.24-.73-.49-1.1-.49-1.1-.73-2.2-.73-3.29,0-6.34,6.83-10.74,13.05-10.74,4.03.12,7.08,2.44,8.42,7.81.61,2.2.98,4.39.98,7.44-.24,4.64-2.07,9.39-6.22,13.05Z"/>
      <path class="cls-1" d="m372.82,38.41c-.98.85-1.46,1.83-1.46,3.05,0,.37,0,.73.12,1.1.37,1.71.98,3.17,2.56,4.27,2.07,1.34,4.15,2.56,6.34,3.78,3.78,2.07,7.56,4.27,10.98,7.08,2.93,2.2,5.73,5.61,7.44,9.64,1.1,2.56,1.71,5.37,1.71,8.42,0,.85,0,1.59-.12,2.44-.73,7.44-4.88,14.15-10.86,16.96-2.56,1.1-4.76,1.34-7.93,1.95-3.9.73-8.05.98-12.44.98-4.15,0-8.29-.12-12.08-.24-3.42-.12-8.42-.24-11.59-1.22-1.34-.37-2.44-.61-3.42-1.34-.49-.37-.73-.98-.73-1.46-.12-.49-.12-.98-.12-1.46,0-2.32-.12-4.64-.12-6.95v-6.95c0-1.1-.12-2.07-.12-3.17,0-1.71-.12-2.81-.12-3.66,0-1.46.37-1.59,2.44-1.95.49-.12,1.95-.12,2.44-.12,3.9,0,7.69.12,11.71.12h2.81c1.34,0,3.42-.37,3.42-.37.37-.12.73-.24,1.1-.49,1.46-.85,2.81-1.83,4.03-3.05.98-.98,1.46-2.2,1.46-3.42,0-2.2-1.95-4.15-4.27-5.86-2.81-1.95-6.1-3.42-8.05-4.15-1.71-.61-3.54-1.1-5.25-1.95-2.68-1.34-5.25-3.17-7.2-5.61-1.34-1.59-2.56-3.42-3.17-5.37-.61-1.71-.85-3.29-1.34-5.37-.12-.73-.12-1.34-.12-1.95,0-.85,0-1.71.24-2.68.24-1.1.49-1.83.73-2.93.12-.37.12-.49.24-.85,3.29-6.59,7.44-10.86,14.03-14.15.49-.24.85-.37,1.34-.61,5.25-1.83,11.71-2.32,18.42-2.32h6.71c4.27,0,9.64.12,13.54.73.73.12,2.32.12,2.81.85.85.85,1.1,1.59,1.34,2.81.12.73,0,1.46.12,2.32v5.12c0,1.71.12,3.54.12,5.25,0,6.59-.12,1.59-.12,8.17,0,.37,0,.85-.12,1.22-.12.85-.98.98-1.95.98h-2.44c-.98,0-2.93.12-5,.12h-1.83c-1.34-.12-2.93-.12-4.51-.12-1.71,0-3.29,0-4.76.24-3.78.49-4.39-.12-6.95,2.2Z"/>
      <path class="cls-1" d="m.72,205.48c0-3.38.15-6.62.15-10,0-1.62-.15-3.38-.15-5-.15-2.79-.15-5.73-.15-8.53,0-3.97,0-7.79.15-11.76,0-6.62.44-13.23.59-19.85v-10.29c.15-4.41.59-7.79.59-12.05v-1.62c-.15-2.21-.29-4.56-.29-6.91v-1.18c0-1.03.29-1.76,1.18-2.35.59-.44,1.03-.44,1.62-.44h1.32c2.06,0,4.26-.15,6.32-.15s3.97.15,4.85.15c2.06.15,6.03.15,8.09.29h1.03c1.76,0,2.94,1.18,2.94,2.79,0,.29,0,.59-.15,1.03-.59,2.5-.59,5-.73,7.5-.29,4.26-.44,6.32-.44,10.73v5.88c0,1.03-.15,2.21-.15,3.38,0,.44-.29,2.35-.29,3.97v.59c0,2.94.15,3.53.15,7.94,0,.29.29.44.59.44s.74-.15,1.03-.15h1.76c5.73.59,9.26.88,14.55.88h.59v-.29c0-5.15,0-7.94-.15-13.08v-1.47c.15-3.97.44-6.91.44-10.14,0-1.03-.15-2.06-.15-3.09-.15-2.06-.15-1.62-.15-3.68-.15-2.94-.44-5.88-.44-8.67,0-.88.15-1.76.15-2.65,0-.59.15-1.03.44-1.47.15-.29.59-.59,1.03-.59h.15c.44,0,1.18-.15,1.91-.15,4.85-.15,10.14-.15,14.99-.29h1.62c1.47,0,2.79.15,2.79,2.06,0,1.18-.15,2.35-.15,3.53,0,2.5.29,4.85.29,7.2,0,1.03,0,2.06-.15,3.09-.29,3.38-.29,6.03-.29,8.08v3.67c0,5.15.29,6.17.29,12.79v41.46c0,3.82-.29,6.47-.29,9.41,0,1.03,0,2.35.15,3.53,0,.59.15,1.32.15,2.21,0,1.62-.15,3.67-.15,5.59v1.91c0,1.18-.15,2.21-.73,2.21h-16.17c-.29,0-1.62-.15-1.91-.15s-.73-.15-1.03-.29c-1.03-.44-1.62-1.91-1.76-3.53v-10.29c0-1.76-.15-3.53-.15-5.29-.15-2.21-.15-4.26-.29-6.47-.15-2.79-.15-4.7-.15-6.47v-8.67c0-.15-.44-.29-.59-.29h-1.18c-3.38,0-3.82-.44-5.73-.44-.59,0-1.32,0-2.35.15-2.21.15-3.68.29-5.59.29h-1.32c-.88,0-1.76.15-1.76.88v.74c0,2.06-.15,3.67-.15,6.17v1.62c0,1.62-.15,2.21-.15,3.09,0,.59,0,1.03.15,1.91.29,5.73.29,11.91.59,18.23v6.47c0,1.18-1.03,2.06-2.21,2.21-1.03.15-2.06.15-3.09.15-4.56,0-9.85-.74-13.97-.88H1.9c-.59-.44-1.18-.88-1.18-1.76v-13.82Z"/>
      <path class="cls-1" d="m119.94,219.74c-3.23,1.91-9.26,3.53-14.99,3.97h-1.76c-4.7,0-8.67-1.18-12.2-3.23-6.91-4.12-10.73-11.03-12.94-19.4-.88-3.68-1.62-7.64-2.06-11.76-.59-6.03-.88-12.5-1.18-18.96-.15-2.06-.15-4.41-.15-6.47,0-3.09.15-6.17.29-9.41.15-2.5.59-5,.74-7.5,1.18-11.47,2.35-18.96,7.79-25.87,2.35-3.53,5.88-7.06,11.03-7.64,2.94-.44,6.32-.88,9.7-.88,5.88,0,12.05,1.03,16.32,3.82,1.76,1.03,3.67,2.06,5.14,3.53,9.56,8.38,12.05,20.43,12.05,41.31v3.09c.15,2.65.15,5.29.15,7.94,0,18.23-2.21,33.66-12.05,43.22-1.76,1.76-3.82,3.09-5.88,4.26Zm-7.79-72.77c-.44-.74-2.35-1.62-4.26-1.62h-.59c-2.65.29-4.85,1.47-6.03,2.94-2.79,3.53-4.41,7.64-5.15,12.2-.15,1.47-.44,3.23-.44,5v1.62c.29,5.29,2.21,18.38,9.26,18.38,9.41,0,11.03-12.79,11.03-22.93,0-1.76-.29-3.23-.29-4.85,0-1.32-.15-2.94-.59-4.56-.74-3.09-1.32-4.41-2.94-6.17Z"/>
      <path class="cls-1" d="m142.87,193.57c.59-1.47,2.5-14.7,2.79-16.32.29-1.32.59-2.5.88-3.82.74-2.35,1.03-10.44,1.76-12.64.29-.88.44-1.62.44-2.35.59-3.97,1.47-8.67,2.35-13.82.29-1.76.44-3.68.88-5.59.59-3.67,1.47-7.64,2.21-11.61,1.03-4.12,2.06-7.5,3.09-11.91.15-.59.59-.73,1.32-.73h2.21c1.03-.29,4.56-.44,8.09-.44,3.97,0,7.94.15,9.11.29.88,0,1.62.15,2.21.15,1.91,0,4.26-.15,6.61-.15,4.12,0,8.38.29,10.73,1.76.29.44.29.73.29,1.18,1.03,4.26.74,5.44,2.06,9.55.44,1.76,1.18,6.32,1.62,7.94.73,3.82,1.47,7.5,2.35,11.32.44,2.06.74,4.12,1.32,6.17,3.53,14.99,6.17,30.14,10,44.54.29,1.76.44,2.65.88,4.41v.29c.59,2.65,1.03,4.41,1.62,7.2,0,.15,1.18,6.62,1.18,6.76.15.15.88,4.85.88,5v.29c0,.73-1.32.88-2.94.88-1.47,0-3.38-.15-5-.15h-.88c-2.65.15-7.79.15-10.44.15h-11.17c-.88,0-1.47-5.59-2.21-9.41-.74-3.38-1.32-7.64-1.47-8.82-.29-2.21-.59-4.41-1.03-6.47-.15-.44-.29-.88-.29-1.32-.59-4.12-1.03-6.62-1.91-10.73-.15-1.03-.59-1.62-1.62-1.76-.44-.15-7.06-.44-7.64-.44-.74-.15-1.62-.29-2.35-.29-.88,0-1.76.15-2.79.29-1.03.15-1.03,7.64-1.18,10.58-.15,2.21-.15,4.7-.29,7.35,0,2.65-.15,5.29-.15,7.79-.15,1.91-.15,3.67-.29,5.15,0,1.76-.15,3.09-.15,4.26-.29,2.79-.59,3.38-2.5,3.53-1.62.15-7.35.15-12.2.59-1.47.29-2.94.15-4.26.29h-2.94c-.59.15-1.18.15-1.62.15-2.5,0-3.23-.59-3.23-2.21,0-.74.15-1.62.29-2.79,1.18-7.79,2.94-22.64,3.38-24.11Zm37.63-25.28c-1.47-11.03-2.21-17.2-3.68-28.22-.15-.44,0-.88-.44-1.03-.44-.29-1.32-.73-2.06-.73h-.15c-.44,0-.88.15-.88.29-.74,3.82-3.97,26.17-4.12,29.99v.15c0,.44,0,.73.15,1.03.15.29.44.59.88.59h.15c1.03-.15,3.23-.15,5.15-.15h3.09c1.62,0,2.35-.44,1.91-1.91Z"/>
      <path class="cls-1" d="m256.06,134.04c-1.62,1.18-5.15,5.15-5.73,8.09-1.47,7.2-1.76,12.05-1.76,17.2,0,3.38.15,6.91.15,11.32v1.18c0,1.32,0,2.94.15,4.26.29,4.12.29,5.88,1.03,9.85.88,5,2.21,6.91,6.17,8.97.88.44,1.91.59,2.79.88h.59c1.62,0,2.79-.73,4.12-1.18,2.35-1.03,3.67-3.97,3.67-6.17,0-1.62-.44-2.94-1.76-3.53l-1.76-.88c-.88-.44-2.06-.74-3.09-.74-.44,0-.88,0-1.32.15-.29,0-.44.15-.73.15-.88,0-1.62-.44-2.35-1.18-.15-.29-.44-.59-.44-1.03-.15-1.76-.29-3.23-.29-4.7,0-.88,0-1.76.29-2.79.29-1.03,1.03-1.62,2.06-1.62h3.67c8.08,0,16.02.44,23.37.44,1.18,0,2.06.15,2.94.44.88.29,2.21,1.91,2.21,2.94,0,4.85,0,7.06.15,9.26.29,6.47.44,15.88,1.18,23.96.15,1.76.15,3.53.15,5.44v4.12c0,.73,0,3.09-.59,3.09-1.91,0-2.94,0-4.56.29-.59.15-1.32.15-1.91.15-1.03,0-2.21-.15-3.23-.15-.44,0-.73.15-1.18.15h-.59c-1.32,0-2.21-.88-2.5-2.35,0-.59-.15-1.18-.15-2.06-.44.15-.88,0-1.18.15-2.79,1.32-5.73,2.21-8.67,2.94-1.91.44-3.82.59-5.59.88-2.06.15-3.97.29-5.88.29-1.18,0-2.35.15-3.53.15-10.58,0-19.11-5-24.4-11.17-1.91-2.35-3.09-5-4.12-7.79-1.47-3.82-2.65-7.64-3.23-11.61-1.47-6.32-1.91-14.7-1.91-22.05v-6.47c0-1.47.15-3.09.29-4.41,1.03-11.32,1.91-20.14,5.29-28.67,2.65-6.47,7.79-11.32,13.82-14.55.74-.44,1.62-.74,2.35-1.03,2.21-1.03,4.41-1.62,6.76-2.06,4.56-.74,9.7-1.32,14.85-1.32s10.14.59,14.41,2.21c1.91.59,3.67,1.47,5.44,2.35,2.06,1.03,3.82,2.65,5,4.7,1.03,1.47,1.76,3.09,2.35,4.85,1.76,4.85,2.35,10.29,2.35,16.76-.15,2.2-.15,4.56-.15,6.76,0,2.06-.29,4.26-.59,6.32-.29,1.76-.74,6.32-1.03,8.08-.29,1.32-.44,2.21-1.76,2.65-1.18.29-2.5.29-3.68.29h-4.7c-1.62,0-2.65.15-4.26.29-2.06.15-3.09.15-5.14.29h-1.03c-1.62-.15-2.5,0-3.97-.44-1.03-.29-1.47-.73-2.21-1.47-.29-.29-.29-.74-.44-1.18-.15-2.65-.29-7.94-.29-10.58,0-1.76.29-3.09.29-5.14.15-3.38.15-5.29.15-8.67,0-4.7,0-6.03-2.94-6.03-1.18,0-2.5.15-3.38.73Z"/>
      <path class="cls-1" d="m298.69,127.57c0-3.53.15-6.17.15-9.26,0-2.5.15-2.94.88-3.38,1.18-.88,3.67-.88,6.76-.88h2.65c1.76,0,3.67,0,6.03-.15h7.5c3.53,0,5,.15,6.17.44,1.18.29,1.47.74,1.47,1.18v1.18c0,2.35.15,4.56.15,6.62,0,5-.29,9.26-.29,15.14-.29,11.91-.15,18.67-.29,30.72v6.62c0,13.97.59,23.52.59,37.63v6.76c0,1.32-1.18,1.62-2.5,1.62-8.53,0-17.05.15-24.7.15-.88,0-1.76-.15-2.79-.44-.59-.15-.73-2.21-.73-2.79,0-4.7-.44-8.23-.44-13.67-.29-29.99-.44-46.89-.59-76.88v-.59Z"/>
      <path class="cls-1" d="m371.16,221.8h-1.91c-2.79,0-4.85-.29-7.64-.29h-1.32c-2.65.15-7.79.29-10,.29-1.76,0-3.53-.15-5.29-.44s-3.38-.74-5.15-1.18c-1.18-.29-1.76-1.18-1.91-2.35-.15-.44-.15-.74-.15-1.18,0-2.65-.15-5.29-.15-7.79v-18.38c0-5,0-10-.15-14.99-.29-5.88-.29-11.47-.29-16.91,0-8.23.15-16.17.15-24.84,0-5.73.15-12.05.15-17.93.15-1.18.73-1.76,1.91-1.76,3.82,0,8.82.74,12.2.74,5.29.15,10.73.15,16.02.15,6.62,0,13.82-.15,20.14-.44h1.47c1.47,0,2.65.15,3.67,1.18.44.29.44,2.06.44,2.65v1.47c0,2.94.15,5.44.15,7.79,0,2.06,0,4.12-.29,6.76v5.59c.15,1.47.15,2.94.15,4.56,0,1.47-1.91,1.76-3.53,1.76-1.03,0-2.06-.15-2.94-.15-4.85,0-11.61-.74-17.35-.74h-4.41c-.59.15-1.03.44-1.18,1.03,0,.15,0,.29-.15.44v5.73c0,.59,0,1.03.15,1.62.29,0,5-.29,7.35-.29h8.53c1.32,0,2.65,0,4.41.15,1.03,0,1.76,0,2.79.15.73,0,2.65,0,3.23.29,1.47.44,2.06,3.67,2.06,5.44v2.21c0,5-.15,2.79-.15,8.38v.29c0,.59,0,.74-.44,1.18-.15.15-1.03.29-1.32.29-7.2.29-14.26.44-21.9.44-1.32,0-2.5.29-3.67.59-.88.15-1.18.59-1.18,1.47-.15,2.94-.29,5.88-.29,8.82,0,.88.29,1.18,1.18,1.18,2.65.15,5.29.29,7.94.29h1.91c5.29,0,9.7.73,14.99,1.18.74.15,1.62,0,2.35.15,1.47.29,1.91,1.18,1.91,2.65,0,1.91.15,3.82.15,5.73v9.26c.15,3.82.29,9.11.44,12.94v1.62c0,1.62-.15,1.76-1.32,2.21-.44.15-.74.29-1.18.29-4.7.44-10.44.59-16.02.59-1.47,0-2.79,0-4.56.15Z"/>
    </g>
    <g>
      <path class="cls-2" d="m7.41,77.1c0-2.81.12-5.49.12-8.3,0-1.34-.12-2.81-.12-4.15-.12-2.32-.12-4.76-.12-7.08,0-3.29,0-6.47.12-9.76,0-5.49.37-10.98.49-16.47v-8.54c.12-3.66.49-6.47.49-10v-1.34c-.12-1.83-.24-3.78-.24-5.73v-.98c0-.85.24-1.46.98-1.95.49-.37.85-.37,1.34-.37h1.1c1.71,0,3.54-.12,5.25-.12s3.29.12,4.03.12c1.71.12,5,.12,6.71.24h.85c1.46,0,2.44.98,2.44,2.32,0,.24,0,.49-.12.85-.49,2.07-.49,4.15-.61,6.22-.24,3.54-.37,5.25-.37,8.91v4.88c0,.85-.12,1.83-.12,2.81,0,.37-.24,1.95-.24,3.29v.49c0,2.44.12,2.93.12,6.59,0,.24.24.37.49.37s.61-.12.85-.12h1.46c4.76.49,7.69.73,12.08.73h.49v-.24c0-4.27,0-6.59-.12-10.86v-1.22c.12-3.29.37-5.73.37-8.42,0-.85-.12-1.71-.12-2.56-.12-1.71-.12-1.34-.12-3.05-.12-2.44-.37-4.88-.37-7.2,0-.73.12-1.46.12-2.2,0-.49.12-.85.37-1.22.12-.24.49-.49.85-.49h.12c.37,0,.98-.12,1.59-.12,4.03-.12,8.42-.12,12.44-.24h1.34c1.22,0,2.32.12,2.32,1.71,0,.98-.12,1.95-.12,2.93,0,2.07.24,4.03.24,5.98,0,.85,0,1.71-.12,2.56-.24,2.81-.24,5-.24,6.71v3.05c0,4.27.24,5.12.24,10.61v34.4c0,3.17-.24,5.37-.24,7.81,0,.85,0,1.95.12,2.93,0,.49.12,1.1.12,1.83,0,1.34-.12,3.05-.12,4.64v1.59c0,.98-.12,1.83-.61,1.83h-13.42c-.24,0-1.34-.12-1.59-.12s-.61-.12-.85-.24c-.85-.37-1.34-1.59-1.46-2.93v-8.54c0-1.46-.12-2.93-.12-4.39-.12-1.83-.12-3.54-.24-5.37-.12-2.32-.12-3.9-.12-5.37v-7.2c0-.12-.37-.24-.49-.24h-.98c-2.81,0-3.17-.37-4.76-.37-.49,0-1.1,0-1.95.12-1.83.12-3.05.24-4.64.24h-1.1c-.73,0-1.46.12-1.46.73v.61c0,1.71-.12,3.05-.12,5.12v1.34c0,1.34-.12,1.83-.12,2.56,0,.49,0,.85.12,1.59.24,4.76.24,9.88.49,15.13v5.37c0,.98-.85,1.71-1.83,1.83-.85.12-1.71.12-2.56.12-3.78,0-8.17-.61-11.59-.73h-5.73c-.49-.37-.98-.73-.98-1.46v-11.47Z"/>
      <path class="cls-2" d="m106.35,88.93c-2.68,1.59-7.69,2.93-12.44,3.29h-1.46c-3.9,0-7.2-.98-10.12-2.68-5.73-3.42-8.91-9.15-10.74-16.1-.73-3.05-1.34-6.34-1.71-9.76-.49-5-.73-10.37-.98-15.74-.12-1.71-.12-3.66-.12-5.37,0-2.56.12-5.12.24-7.81.12-2.07.49-4.15.61-6.22.98-9.52,1.95-15.74,6.47-21.47,1.95-2.93,4.88-5.86,9.15-6.34,2.44-.37,5.25-.73,8.05-.73,4.88,0,10,.85,13.54,3.17,1.46.85,3.05,1.71,4.27,2.93,7.93,6.95,10,16.96,10,34.28v2.56c.12,2.2.12,4.39.12,6.59,0,15.13-1.83,27.94-10,35.87-1.46,1.46-3.17,2.56-4.88,3.54Zm-6.47-60.39c-.37-.61-1.95-1.34-3.54-1.34h-.49c-2.2.24-4.03,1.22-5,2.44-2.32,2.93-3.66,6.34-4.27,10.13-.12,1.22-.37,2.68-.37,4.15v1.34c.24,4.39,1.83,15.25,7.69,15.25,7.81,0,9.15-10.61,9.15-19.03,0-1.46-.24-2.68-.24-4.03,0-1.1-.12-2.44-.49-3.78-.61-2.56-1.1-3.66-2.44-5.12Z"/>
      <path class="cls-2" d="m127.94,2.07h1.22c1.34.12,2.44.12,3.54.12h5.37c2.32,0,4.64,0,7.08.37.61.12,1.22,0,1.71.49.85.85,6.1,20.5,6.47,21.59,1.22,3.54,2.68,11.1,3.54,14.64.12.37.37.73.61,1.22.61-.85.85-1.59,1.1-2.44,1.22-4.15,2.56-8.17,3.66-12.32.12-.61.37-1.1.49-1.59.24-.73,3.66-14.64,5.37-20.62.49-1.59.61-2.2.98-2.44.24-.12.49-.12.73-.12.37,0,.98,0,1.71.12,2.68.12,5.12.24,7.44.49,4.88.49,10.98,0,15,1.34,1.34.73,1.46,2.81,1.46,4.88v2.56c0,5.49.12,11.47.12,17.08,0,7.44-.12,15.01-.12,22.57v33.91c0,2.07-.12,4.51-.61,6.1-.37.85-2.68.85-4.64.85h-8.91c-1.59,0-3.17,0-5-.12-.61,0-.98-.37-1.46-.61-.49-.24-.85-.73-.85-1.46-.12-2.68-.12-5.37-.24-8.17v-5.73c0-3.66,0-7.32.12-10.86.37-5.61.37-8.66.49-14.15,0-1.22.12-2.2.12-3.17,0-1.46-.12-3.05-.12-4.51-5.37,16.71-6.1,23.18-10.61,37.09-.49,1.71-.73,2.68-2.07,2.68h-.61c-.85-.24-1.1-.61-1.46-1.71-2.32-6.59-6.83-17.81-9.39-26.96-.49-1.83-.98-3.54-2.07-5.61-.49-.98-1.46-3.17-1.95-3.17-.12,0-.24.12-.24.37-.49,2.56-.61,5.12-.61,7.56,0,12.44-.12,22.57-.12,35.87,0,.73-.24,1.1-.73,1.22-8.42.98-3.78,1.34-13.3,1.34-.61,0-1.46-.12-2.2-.24-1.46-.37-1.83-.98-1.95-2.56,0-2.32-.12-4.88-.12-7.44v-.73c0-2.81-.12-5.61-.12-8.54v-2.44c0-3.05-.12-6.1-.12-9.15-.12-2.93-.12-6.1-.12-9.03s0-5.37.24-7.93c.24-2.44.37-4.76.37-7.2-.12-3.9-.12-7.93-.24-11.96,0-4.03-.12-8.42-.12-12.81,0-1.34-.12-2.56-.12-3.9s.12-2.68.49-4.27c.12-.37.49-.49.85-.49Z"/>
      <path class="cls-2" d="m229.81,90.64h-1.59c-2.32,0-4.03-.24-6.34-.24h-1.1c-2.2.12-6.47.24-8.3.24-1.46,0-2.93-.12-4.39-.37s-2.81-.61-4.27-.98c-.98-.24-1.46-.98-1.59-1.95-.12-.37-.12-.61-.12-.98,0-2.2-.12-4.39-.12-6.47v-15.25c0-4.15,0-8.3-.12-12.44-.24-4.88-.24-9.52-.24-14.03,0-6.83.12-13.42.12-20.62,0-4.76.12-10,.12-14.88.12-.98.61-1.46,1.59-1.46,3.17,0,7.32.61,10.12.61,4.39.12,8.91.12,13.3.12,5.49,0,11.47-.12,16.71-.37h1.22c1.22,0,2.2.12,3.05.98.37.24.37,1.71.37,2.2v1.22c0,2.44.12,4.51.12,6.47,0,1.71,0,3.42-.24,5.61v4.64c.12,1.22.12,2.44.12,3.78,0,1.22-1.59,1.46-2.93,1.46-.85,0-1.71-.12-2.44-.12-4.03,0-9.64-.61-14.4-.61h-3.66c-.49.12-.85.37-.98.85,0,.12,0,.24-.12.37v4.76c0,.49,0,.85.12,1.34.24,0,4.15-.24,6.1-.24h7.08c1.1,0,2.2,0,3.66.12.85,0,1.46,0,2.32.12.61,0,2.2,0,2.68.24,1.22.37,1.71,3.05,1.71,4.51v1.83c0,4.15-.12,2.32-.12,6.95v.24c0,.49,0,.61-.37.98-.12.12-.85.24-1.1.24-5.98.24-11.83.37-18.18.37-1.1,0-2.07.24-3.05.49-.73.12-.98.49-.98,1.22-.12,2.44-.24,4.88-.24,7.32,0,.73.24.98.98.98,2.2.12,4.39.24,6.59.24h1.59c4.39,0,8.05.61,12.44.98.61.12,1.34,0,1.95.12,1.22.24,1.59.98,1.59,2.2,0,1.59.12,3.17.12,4.76v7.69c.12,3.17.24,7.56.37,10.74v1.34c0,1.34-.12,1.46-1.1,1.83-.37.12-.61.24-.98.24-3.9.37-8.66.49-13.3.49-1.22,0-2.32,0-3.78.12Z"/>
      <path class="cls-2" d="m305.45,64.9c2.68,5.12,6.71,10.98,9.03,15.49.73,1.22,1.34,2.44,1.83,3.66.61,1.22,1.1,2.56,1.71,3.9.12.24.12.37.12.61,0,.37-.12.61-.37.98-.24.49-2.68,1.46-4.76,1.46h-.37c-1.46-.12-4.76-.24-6.34-.24-1.1,0-1.83-.12-2.93-.12-1.22,0-2.44.37-3.42.37-.37,0-.61-.12-.85-.24-.61-.61-1.59-3.05-3.05-5.73-.49-.98-1.1-1.95-1.46-2.81-1.46-2.93-3.54-5.86-5-8.66-1.22-2.2-2.44-4.51-3.66-6.71-.98-1.59-1.95-3.17-2.93-4.88-.61-.98-5.98-10-8.17-11.34,0,.49-.12,1.95-.12,2.2-.12,2.44-.12,3.9-.12,5,0,2.32.12,2.81.12,6.71,0,6.22.12,11.71.12,18.18v4.51c0,1.46-.12,2.81-1.46,2.81-5.12,0-8.91-.12-14.88-.12h-2.2c-1.34,0-1.83-.49-1.83-2.07v-4.03c.12-12.08.61-23.3.61-37.45,0-7.44-.12-14.64-.12-21.96v-4.88c0-2.56-.12-4.64-.12-7.56V3.29c0-.37.12-.61.12-.98.12-.73.37-.85.85-.85h1.1c.61,0,1.59-.12,2.44-.12,2.81,0,4.64-.12,6.83-.12,1.46,0,2.81.12,4.64.12,3.54.12,7.56.12,11.47.12h10.13c8.05.12,16.35.12,20.37,5,2.44,3.17,3.9,5.98,5.25,9.88.49,1.71.61,3.29.61,4.88,0,12.32-6.83,26.84-16.47,29.52-1.34.37-4.03.49-5.49.49-.12,0-.12.12-.12.24,0,1.22,6.1,8.54,8.05,11.83.37.73.49.98.85,1.59Zm-12.32-34.28c.61-.98.85-6.83.85-7.69,0-1.22-.49-2.32-1.59-3.17-3.05-2.07-7.08-2.93-10.86-2.93-2.68,0-3.78.61-4.39.98-.24.12-.24.37-.24.61v.12c0,1.34.12,3.05.12,4.76,0,1.22-.12,7.32-.12,8.54,0,.98.12,1.95.12,2.81.61.12,2.44.12,3.66.12h1.1c4.03-.37,1.59,0,6.59-.98,1.83-.37,3.54-1.34,4.76-3.17Z"/>
      <path class="cls-2" d="m338.51,30.25c-2.2,2.07-4.88,3.29-7.93,3.78-.24,0-.61.12-.98.12-2.32,0-4.76-1.59-5.73-3.42-.61-1.1-.49-2.32-.24-3.42.12-.24.37-.37.49-.49.73-.37,1.34-.73,2.07-.85,1.1-.24,1.83-.85,2.56-1.59.61-.49.61-1.1,0-1.59-.73-.73-1.46-1.34-2.2-1.95-1.34-.98-2.44-2.2-3.05-3.78-.12-.37-.24-.73-.49-1.1-.49-1.1-.73-2.2-.73-3.29,0-6.34,6.83-10.74,13.05-10.74,4.03.12,7.08,2.44,8.42,7.81.61,2.2.98,4.39.98,7.44-.24,4.64-2.07,9.39-6.22,13.05Z"/>
      <path class="cls-2" d="m380.11,31.23c-.98.85-1.46,1.83-1.46,3.05,0,.37,0,.73.12,1.1.37,1.71.98,3.17,2.56,4.27,2.07,1.34,4.15,2.56,6.34,3.78,3.78,2.07,7.56,4.27,10.98,7.08,2.93,2.2,5.73,5.61,7.44,9.64,1.1,2.56,1.71,5.37,1.71,8.42,0,.85,0,1.59-.12,2.44-.73,7.44-4.88,14.15-10.86,16.96-2.56,1.1-4.76,1.34-7.93,1.95-3.9.73-8.05.98-12.44.98-4.15,0-8.29-.12-12.08-.24-3.42-.12-8.42-.24-11.59-1.22-1.34-.37-2.44-.61-3.42-1.34-.49-.37-.73-.98-.73-1.46-.12-.49-.12-.98-.12-1.46,0-2.32-.12-4.64-.12-6.95v-6.95c0-1.1-.12-2.07-.12-3.17,0-1.71-.12-2.81-.12-3.66,0-1.46.37-1.59,2.44-1.95.49-.12,1.95-.12,2.44-.12,3.9,0,7.69.12,11.71.12h2.81c1.34,0,3.42-.37,3.42-.37.37-.12.73-.24,1.1-.49,1.46-.85,2.81-1.83,4.03-3.05.98-.98,1.46-2.2,1.46-3.42,0-2.2-1.95-4.15-4.27-5.86-2.81-1.95-6.1-3.42-8.05-4.15-1.71-.61-3.54-1.1-5.25-1.95-2.68-1.34-5.25-3.17-7.2-5.61-1.34-1.59-2.56-3.42-3.17-5.37-.61-1.71-.85-3.29-1.34-5.37-.12-.73-.12-1.34-.12-1.95,0-.85,0-1.71.24-2.68.24-1.1.49-1.83.73-2.93.12-.37.12-.49.24-.85,3.29-6.59,7.44-10.86,14.03-14.15.49-.24.85-.37,1.34-.61,5.25-1.83,11.71-2.32,18.42-2.32h6.71c4.27,0,9.64.12,13.54.73.73.12,2.32.12,2.81.85.85.85,1.1,1.59,1.34,2.81.12.73,0,1.46.12,2.32v5.12c0,1.71.12,3.54.12,5.25,0,6.59-.12,1.59-.12,8.17,0,.37,0,.85-.12,1.22-.12.85-.98.98-1.95.98h-2.44c-.98,0-2.93.12-5,.12h-1.83c-1.34-.12-2.93-.12-4.51-.12-1.71,0-3.29,0-4.76.24-3.78.49-4.39-.12-6.95,2.2Z"/>
      <path class="cls-2" d="m8.01,198.3c0-3.38.15-6.62.15-10,0-1.62-.15-3.38-.15-5-.15-2.79-.15-5.73-.15-8.53,0-3.97,0-7.79.15-11.76,0-6.62.44-13.23.59-19.85v-10.29c.15-4.41.59-7.79.59-12.05v-1.62c-.15-2.21-.29-4.56-.29-6.91v-1.18c0-1.03.29-1.76,1.18-2.35.59-.44,1.03-.44,1.62-.44h1.32c2.06,0,4.26-.15,6.32-.15s3.97.15,4.85.15c2.06.15,6.03.15,8.08.29h1.03c1.76,0,2.94,1.18,2.94,2.79,0,.29,0,.59-.15,1.03-.59,2.5-.59,5-.74,7.5-.29,4.26-.44,6.32-.44,10.73v5.88c0,1.03-.15,2.21-.15,3.38,0,.44-.29,2.35-.29,3.97v.59c0,2.94.15,3.53.15,7.94,0,.29.29.44.59.44s.73-.15,1.03-.15h1.76c5.73.59,9.26.88,14.55.88h.59v-.29c0-5.15,0-7.94-.15-13.08v-1.47c.15-3.97.44-6.91.44-10.14,0-1.03-.15-2.06-.15-3.09-.15-2.06-.15-1.62-.15-3.68-.15-2.94-.44-5.88-.44-8.67,0-.88.15-1.76.15-2.65,0-.59.15-1.03.44-1.47.15-.29.59-.59,1.03-.59h.15c.44,0,1.18-.15,1.91-.15,4.85-.15,10.14-.15,14.99-.29h1.62c1.47,0,2.79.15,2.79,2.06,0,1.18-.15,2.35-.15,3.53,0,2.5.29,4.85.29,7.2,0,1.03,0,2.06-.15,3.09-.29,3.38-.29,6.03-.29,8.08v3.67c0,5.15.29,6.17.29,12.79v41.46c0,3.82-.29,6.47-.29,9.41,0,1.03,0,2.35.15,3.53,0,.59.15,1.32.15,2.21,0,1.62-.15,3.67-.15,5.59v1.91c0,1.18-.15,2.21-.74,2.21h-16.17c-.29,0-1.62-.15-1.91-.15s-.74-.15-1.03-.29c-1.03-.44-1.62-1.91-1.76-3.53v-10.29c0-1.76-.15-3.53-.15-5.29-.15-2.21-.15-4.26-.29-6.47-.15-2.79-.15-4.7-.15-6.47v-8.67c0-.15-.44-.29-.59-.29h-1.18c-3.38,0-3.82-.44-5.73-.44-.59,0-1.32,0-2.35.15-2.21.15-3.67.29-5.59.29h-1.32c-.88,0-1.76.15-1.76.88v.74c0,2.06-.15,3.67-.15,6.17v1.62c0,1.62-.15,2.21-.15,3.09,0,.59,0,1.03.15,1.91.29,5.73.29,11.91.59,18.23v6.47c0,1.18-1.03,2.06-2.21,2.21-1.03.15-2.06.15-3.09.15-4.56,0-9.85-.74-13.96-.88h-6.91c-.59-.44-1.18-.88-1.18-1.76v-13.82Z"/>
      <path class="cls-2" d="m127.23,212.56c-3.23,1.91-9.26,3.53-14.99,3.97h-1.76c-4.7,0-8.67-1.18-12.2-3.23-6.91-4.12-10.73-11.03-12.94-19.4-.88-3.68-1.62-7.64-2.06-11.76-.59-6.03-.88-12.5-1.18-18.96-.15-2.06-.15-4.41-.15-6.47,0-3.09.15-6.17.29-9.41.15-2.5.59-5,.74-7.5,1.18-11.47,2.35-18.96,7.79-25.87,2.35-3.53,5.88-7.06,11.03-7.64,2.94-.44,6.32-.88,9.7-.88,5.88,0,12.05,1.03,16.32,3.82,1.76,1.03,3.67,2.06,5.15,3.53,9.55,8.38,12.05,20.43,12.05,41.31v3.09c.15,2.65.15,5.29.15,7.94,0,18.23-2.21,33.66-12.05,43.22-1.76,1.76-3.82,3.09-5.88,4.26Zm-7.79-72.77c-.44-.74-2.35-1.62-4.26-1.62h-.59c-2.65.29-4.85,1.47-6.03,2.94-2.79,3.53-4.41,7.64-5.14,12.2-.15,1.47-.44,3.23-.44,5v1.62c.29,5.29,2.21,18.38,9.26,18.38,9.41,0,11.03-12.79,11.03-22.93,0-1.76-.29-3.23-.29-4.85,0-1.32-.15-2.94-.59-4.56-.73-3.09-1.32-4.41-2.94-6.17Z"/>
      <path class="cls-2" d="m150.16,186.39c.59-1.47,2.5-14.7,2.79-16.32.29-1.32.59-2.5.88-3.82.74-2.35,1.03-10.44,1.76-12.64.29-.88.44-1.62.44-2.35.59-3.97,1.47-8.67,2.35-13.82.29-1.76.44-3.68.88-5.59.59-3.67,1.47-7.64,2.21-11.61,1.03-4.12,2.06-7.5,3.09-11.91.15-.59.59-.73,1.32-.73h2.21c1.03-.29,4.56-.44,8.08-.44,3.97,0,7.94.15,9.11.29.88,0,1.62.15,2.21.15,1.91,0,4.26-.15,6.62-.15,4.12,0,8.38.29,10.73,1.76.29.44.29.73.29,1.18,1.03,4.26.74,5.44,2.06,9.55.44,1.76,1.18,6.32,1.62,7.94.74,3.82,1.47,7.5,2.35,11.32.44,2.06.74,4.12,1.32,6.17,3.53,14.99,6.17,30.14,10,44.54.29,1.76.44,2.65.88,4.41v.29c.59,2.65,1.03,4.41,1.62,7.2,0,.15,1.18,6.62,1.18,6.76.15.15.88,4.85.88,5v.29c0,.73-1.32.88-2.94.88-1.47,0-3.38-.15-5-.15h-.88c-2.65.15-7.79.15-10.44.15h-11.17c-.88,0-1.47-5.59-2.21-9.41-.74-3.38-1.32-7.64-1.47-8.82-.29-2.21-.59-4.41-1.03-6.47-.15-.44-.29-.88-.29-1.32-.59-4.12-1.03-6.62-1.91-10.73-.15-1.03-.59-1.62-1.62-1.76-.44-.15-7.06-.44-7.64-.44-.74-.15-1.62-.29-2.35-.29-.88,0-1.76.15-2.79.29-1.03.15-1.03,7.64-1.18,10.58-.15,2.21-.15,4.7-.29,7.35,0,2.65-.15,5.29-.15,7.79-.15,1.91-.15,3.67-.29,5.15,0,1.76-.15,3.09-.15,4.26-.29,2.79-.59,3.38-2.5,3.53-1.62.15-7.35.15-12.2.59-1.47.29-2.94.15-4.26.29h-2.94c-.59.15-1.18.15-1.62.15-2.5,0-3.23-.59-3.23-2.21,0-.74.15-1.62.29-2.79,1.18-7.79,2.94-22.64,3.38-24.11Zm37.63-25.28c-1.47-11.03-2.21-17.2-3.67-28.22-.15-.44,0-.88-.44-1.03-.44-.29-1.32-.73-2.06-.73h-.15c-.44,0-.88.15-.88.29-.74,3.82-3.97,26.17-4.12,29.99v.15c0,.44,0,.73.15,1.03.15.29.44.59.88.59h.15c1.03-.15,3.23-.15,5.14-.15h3.09c1.62,0,2.35-.44,1.91-1.91Z"/>
      <path class="cls-2" d="m263.35,126.86c-1.62,1.18-5.15,5.15-5.73,8.09-1.47,7.2-1.76,12.05-1.76,17.2,0,3.38.15,6.91.15,11.32v1.18c0,1.32,0,2.94.15,4.26.29,4.12.29,5.88,1.03,9.85.88,5,2.21,6.91,6.17,8.97.88.44,1.91.59,2.79.88h.59c1.62,0,2.79-.73,4.12-1.18,2.35-1.03,3.67-3.97,3.67-6.17,0-1.62-.44-2.94-1.76-3.53l-1.76-.88c-.88-.44-2.06-.74-3.09-.74-.44,0-.88,0-1.32.15-.29,0-.44.15-.73.15-.88,0-1.62-.44-2.35-1.18-.15-.29-.44-.59-.44-1.03-.15-1.76-.29-3.23-.29-4.7,0-.88,0-1.76.29-2.79.29-1.03,1.03-1.62,2.06-1.62h3.67c8.08,0,16.02.44,23.37.44,1.18,0,2.06.15,2.94.44.88.29,2.21,1.91,2.21,2.94,0,4.85,0,7.06.15,9.26.29,6.47.44,15.88,1.18,23.96.15,1.76.15,3.53.15,5.44v4.12c0,.73,0,3.09-.59,3.09-1.91,0-2.94,0-4.56.29-.59.15-1.32.15-1.91.15-1.03,0-2.21-.15-3.23-.15-.44,0-.73.15-1.18.15h-.59c-1.32,0-2.21-.88-2.5-2.35,0-.59-.15-1.18-.15-2.06-.44.15-.88,0-1.18.15-2.79,1.32-5.73,2.21-8.67,2.94-1.91.44-3.82.59-5.59.88-2.06.15-3.97.29-5.88.29-1.18,0-2.35.15-3.53.15-10.58,0-19.11-5-24.4-11.17-1.91-2.35-3.09-5-4.12-7.79-1.47-3.82-2.65-7.64-3.23-11.61-1.47-6.32-1.91-14.7-1.91-22.05v-6.47c0-1.47.15-3.09.29-4.41,1.03-11.32,1.91-20.14,5.29-28.67,2.65-6.47,7.79-11.32,13.82-14.55.74-.44,1.62-.74,2.35-1.03,2.21-1.03,4.41-1.62,6.76-2.06,4.56-.74,9.7-1.32,14.85-1.32s10.14.59,14.41,2.21c1.91.59,3.67,1.47,5.44,2.35,2.06,1.03,3.82,2.65,5,4.7,1.03,1.47,1.76,3.09,2.35,4.85,1.76,4.85,2.35,10.29,2.35,16.76-.15,2.2-.15,4.56-.15,6.76,0,2.06-.29,4.26-.59,6.32-.29,1.76-.74,6.32-1.03,8.08-.29,1.32-.44,2.21-1.76,2.65-1.18.29-2.5.29-3.68.29h-4.7c-1.62,0-2.65.15-4.26.29-2.06.15-3.09.15-5.14.29h-1.03c-1.62-.15-2.5,0-3.97-.44-1.03-.29-1.47-.73-2.21-1.47-.29-.29-.29-.74-.44-1.18-.15-2.65-.29-7.94-.29-10.58,0-1.76.29-3.09.29-5.14.15-3.38.15-5.29.15-8.67,0-4.7,0-6.03-2.94-6.03-1.18,0-2.5.15-3.38.73Z"/>
      <path class="cls-2" d="m305.98,120.39c0-3.53.15-6.17.15-9.26,0-2.5.15-2.94.88-3.38,1.18-.88,3.67-.88,6.76-.88h2.65c1.76,0,3.67,0,6.03-.15h7.5c3.53,0,5,.15,6.17.44,1.18.29,1.47.74,1.47,1.18v1.18c0,2.35.15,4.56.15,6.62,0,5-.29,9.26-.29,15.14-.29,11.91-.15,18.67-.29,30.72v6.62c0,13.97.59,23.52.59,37.63v6.76c0,1.32-1.18,1.62-2.5,1.62-8.53,0-17.05.15-24.7.15-.88,0-1.76-.15-2.79-.44-.59-.15-.73-2.21-.73-2.79,0-4.7-.44-8.23-.44-13.67-.29-29.99-.44-46.89-.59-76.88v-.59Z"/>
      <path class="cls-2" d="m378.45,214.62h-1.91c-2.79,0-4.85-.29-7.64-.29h-1.32c-2.65.15-7.79.29-10,.29-1.76,0-3.53-.15-5.29-.44s-3.38-.74-5.15-1.18c-1.18-.29-1.76-1.18-1.91-2.35-.15-.44-.15-.74-.15-1.18,0-2.65-.15-5.29-.15-7.79v-18.38c0-5,0-10-.15-14.99-.29-5.88-.29-11.47-.29-16.91,0-8.23.15-16.17.15-24.84,0-5.73.15-12.05.15-17.93.15-1.18.73-1.76,1.91-1.76,3.82,0,8.82.74,12.2.74,5.29.15,10.73.15,16.02.15,6.62,0,13.82-.15,20.14-.44h1.47c1.47,0,2.65.15,3.67,1.18.44.29.44,2.06.44,2.65v1.47c0,2.94.15,5.44.15,7.79,0,2.06,0,4.12-.29,6.76v5.59c.15,1.47.15,2.94.15,4.56,0,1.47-1.91,1.76-3.53,1.76-1.03,0-2.06-.15-2.94-.15-4.85,0-11.61-.74-17.35-.74h-4.41c-.59.15-1.03.44-1.18,1.03,0,.15,0,.29-.15.44v5.73c0,.59,0,1.03.15,1.62.29,0,5-.29,7.35-.29h8.53c1.32,0,2.65,0,4.41.15,1.03,0,1.76,0,2.79.15.73,0,2.65,0,3.23.29,1.47.44,2.06,3.67,2.06,5.44v2.21c0,5-.15,2.79-.15,8.38v.29c0,.59,0,.74-.44,1.18-.15.15-1.03.29-1.32.29-7.2.29-14.26.44-21.9.44-1.32,0-2.5.29-3.67.59-.88.15-1.18.59-1.18,1.47-.15,2.94-.29,5.88-.29,8.82,0,.88.29,1.18,1.18,1.18,2.65.15,5.29.29,7.94.29h1.91c5.29,0,9.7.73,14.99,1.18.74.15,1.62,0,2.35.15,1.47.29,1.91,1.18,1.91,2.65,0,1.91.15,3.82.15,5.73v9.26c.15,3.82.29,9.11.44,12.94v1.62c0,1.62-.15,1.76-1.32,2.21-.44.15-.74.29-1.18.29-4.7.44-10.44.59-16.02.59-1.47,0-2.79,0-4.56.15Z"/>
    </g>
  </g>
</svg>