<?xml version="1.0" encoding="UTF-8"?>
<svg id="Layer_2" data-name="Layer 2" xmlns="http://www.w3.org/2000/svg" viewBox="0 0 260.73 257.27">
  <defs>
    <style>
      .cls-1, .cls-2 {
        stroke-width: 0px;
      }

      .cls-2 {
        fill: #fff;
      }
    </style>
  </defs>
  <g id="good_morning_burger_logo" data-name="good morning burger logo">
    <g>
      <path class="cls-1" d="m80.95,106.81c4.16,7.94,10.39,17.01,13.99,24,1.13,1.89,2.08,3.78,2.83,5.67.94,1.89,1.7,3.97,2.65,6.05.19.38.19.57.19.94,0,.57-.19.95-.57,1.51-.38.76-4.16,2.27-7.37,2.27h-.57c-2.27-.19-7.37-.38-9.83-.38-1.7,0-2.83-.19-4.54-.19-1.89,0-3.78.57-5.29.57-.57,0-.95-.19-1.32-.38-.94-.95-2.46-4.72-4.72-8.88-.76-1.51-1.7-3.02-2.27-4.35-2.27-4.54-5.48-9.07-7.75-13.42-1.89-3.4-3.78-6.99-5.67-10.39-1.51-2.46-3.02-4.91-4.54-7.56-.94-1.51-9.26-15.5-12.66-17.58,0,.76-.19,3.02-.19,3.4-.19,3.78-.19,6.05-.19,7.75,0,3.59.19,4.35.19,10.39,0,9.64.19,18.14.19,28.16v6.99c0,2.27-.19,4.35-2.27,4.35-7.94,0-13.8-.19-23.06-.19h-3.4c-2.08,0-2.83-.76-2.83-3.21v-6.24c.19-18.71.95-36.1.95-58.02,0-11.53-.19-22.68-.19-34.02v-7.56c0-3.97-.19-7.18-.19-11.72v-13.42c0-.57.19-.94.19-1.51.19-1.13.57-1.32,1.32-1.32h1.7c.94,0,2.46-.19,3.78-.19,4.35,0,7.18-.19,10.58-.19,2.27,0,4.35.19,7.18.19,5.48.19,11.72.19,17.77.19h15.69c12.47.19,25.33.19,31.56,7.75,3.78,4.91,6.05,9.26,8.13,15.31.76,2.65.94,5.1.94,7.56,0,19.09-10.58,41.58-25.51,45.74-2.08.57-6.24.76-8.5.76-.19,0-.19.19-.19.38,0,1.89,9.45,13.23,12.47,18.33.57,1.13.76,1.51,1.32,2.46Zm-19.09-53.11c.95-1.51,1.32-10.58,1.32-11.91,0-1.89-.76-3.59-2.46-4.91-4.73-3.21-10.96-4.54-16.82-4.54-4.16,0-5.86.94-6.8,1.51-.38.19-.38.57-.38.94v.19c0,2.08.19,4.73.19,7.37,0,1.89-.19,11.34-.19,13.23,0,1.51.19,3.02.19,4.35.94.19,3.78.19,5.67.19h1.7c6.24-.57,2.46,0,10.21-1.51,2.83-.57,5.48-2.08,7.37-4.91Z"/>
      <path class="cls-1" d="m108.92,25.54c0-4.54.19-7.94.19-11.91,0-3.21.19-3.78,1.13-4.35,1.51-1.13,4.73-1.13,8.69-1.13h3.4c2.27,0,4.73,0,7.75-.19h9.64c4.54,0,6.43.19,7.94.57,1.51.38,1.89.95,1.89,1.51v1.51c0,3.02.19,5.86.19,8.5,0,6.43-.38,11.91-.38,19.47-.38,15.31-.19,24-.38,39.5v8.5c0,17.96.76,30.24.76,48.38v8.69c0,1.7-1.51,2.08-3.21,2.08-10.96,0-21.92.19-31.75.19-1.13,0-2.27-.19-3.59-.57-.76-.19-.94-2.83-.94-3.59,0-6.05-.57-10.58-.57-17.58-.38-38.55-.57-60.29-.76-98.84v-.76Z"/>
      <path class="cls-1" d="m252.75,105.11c0,1.7,0,3.21-.19,4.54-.38,3.02-.95,5.86-1.89,8.69-.57,1.51-1.32,2.83-2.08,4.35-.57,1.13-1.32,2.08-2.08,3.21-2.08,3.4-4.16,6.8-7.18,9.45-1.13.94-2.27,2.27-3.4,3.4-1.7,1.51-3.78,2.65-6.05,3.59-3.78,1.7-7.75,2.83-11.72,3.59-3.59.57-7.37.76-11.34.76-3.59,0-7.56-.19-11.34-.19-6.8,0-10.96.19-17.01.19h-2.46c-1.32,0-2.08-.19-3.4-.38-3.21-.57-6.24-.57-9.07-1.51-2.65-.76-3.59-1.32-3.97-5.1l-.57-6.24c0-3.78-.19-7.37-.19-11.15.19-3.78.38-7.37.38-11.34,0-29.29-1.51-60.86-1.51-89.39,0-2.65,0-5.48.38-8.13.19-1.32,0-2.65.19-3.97.19-1.32.76-1.89,1.7-1.89h.38c15.69-.19,24.57-.19,40.26-.57,5.48-.19,9.45-.57,13.99-.76h1.13c4.72,0,11.34,1.13,15.5,2.46,2.65.76,5.48,2.08,7.37,4.35,1.32,1.51,2.83,2.83,4.16,4.35,1.7,1.7,2.83,3.59,3.78,5.86,2.83,6.61,3.59,12.28,3.97,18.9v2.83c0,13.23-3.59,19.28-12.47,26.84-.57.57-1.51.95-1.7,1.89.57,1.13,1.7,1.51,2.65,2.08,2.65,1.13,4.54,2.83,6.61,4.54,1.7,1.32,2.65,3.21,3.4,4.91,1.89,4.72,3.21,9.45,3.59,14.74.19,1.89.19,3.4.19,5.1Zm-58.97-41.2h3.97c1.89,0,6.99,0,8.88-.38,3.59-.57,5.29-3.02,6.43-6.05.38-1.89.57-4.16.57-6.62,0-2.27-.19-4.72-.19-6.61v-.94c-.19-2.27-3.4-3.78-5.86-3.97-1.32-.19-6.24-.38-7.75-.38-.94,0-2.08.19-3.21.19-.76,0-1.89.19-2.65.76-.19,1.51-.38,3.02-.76,4.54-.19,1.13-.19,2.27-.19,3.4v2.27c.19,3.59.19,7.18.38,10.77,0,.76.19,1.89.38,3.02Zm17.95,36.48c0-1.32,0-2.46-.19-3.78-.38-2.83-4.35-5.1-7.18-5.48h-.94c-2.27,0-4.73.76-6.99,1.13-.94.19-1.32.57-1.32,1.7,0,.95.19,3.78.19,6.24.19,4.16.19,6.05.19,10.77v3.02c.19.38.57.94,1.13.94h.19c7.56,0,14.93-.38,14.93-8.88v-5.67Z"/>
      <path class="cls-1" d="m82.41,206.11c-2.27,12.47-3.78,19.41-5.8,31.75-1.13,6.8-1.26,14.87-2.52,17.64-.13.25-1.51.5-3.53.63h-1.39c-4.41,0-11.84-1.01-12.48-1.01-1.51,0-2.77-.76-3.4-2.52-1.01-2.52-2.02-5.29-2.52-7.94-.63-2.65-1.26-5.42-1.89-8.06-.25-1.26-.38-2.39-.88-3.78-.38-1.13-.38-4.41-1.26-5.17-.13,0-1.51,4.54-1.76,5.17-1.39,4.16-1.89,6.8-3.28,10.84-1.26,3.78-1.64,7.06-4.03,9.45-.88.76-3.28.76-4.41.88-2.39.25-10.71.25-17.52.38h-1.51c-.63,0-1.01,0-1.26-.88-1.39-8.44-3.53-18.65-5.42-30.62-1.89-11.34-2.52-17.89-4.16-29.36-.88-9.2-2.02-17.01-3.4-27.22v-.63c0-1.64.63-2.14,2.02-2.27.13,0,1.51-.25,1.64-.25h.63c4.41,0,8.57.25,13.1.25,1.51,0,3.02,0,4.66-.13h1.39c1.39.13,2.77-.13,3.02,1.39,0,4.79.63,8.32,1.13,13.23.13,1.39.13,2.14.25,3.65,1.26,12.47,2.52,22.3,3.65,36.92,0,.5,1.01,8.32,1.01,8.32.5-1.51,4.79-13.1,5.42-14.74,2.65-7.56,5.42-14.49,8.57-21.55.13-.5.5-1.01.88-1.51.38-.38.76-.63,1.26-.63.38,0,.63.13,1.01.38.76.38,1.26,1.26,1.39,2.14.76,3.15,1.64,6.17,1.89,9.45.25,2.77.88,5.67,1.26,8.44.13,1.26,2.39,16.13,2.9,16.13.63-1.64,2.27-9.2,2.65-10.71.63-2.9,1.26-5.29,1.89-8.69,2.27-12.98,4.16-26.08,5.54-39.82.13-1.26.63-2.27,1.13-3.02.38-.63,1.13-.88,1.76-.88h6.43c5.8,0,12.98.13,12.98,1.51v.13c-.25,2.02-.5,3.02-.63,4.28-.5,7.06-2.52,15.88-3.65,22.3-.76,5.67-1.64,9.95-2.77,16.13Z"/>
      <path class="cls-1" d="m94.75,173.98c0-3.02.13-5.29.13-7.94,0-2.14.13-2.52.76-2.9,1.01-.76,3.15-.76,5.8-.76h2.27c1.51,0,3.15,0,5.17-.13h6.43c3.02,0,4.28.13,5.29.38,1.01.25,1.26.63,1.26,1.01v1.01c0,2.02.13,3.91.13,5.67,0,4.28-.25,7.94-.25,12.98-.25,10.21-.13,16-.25,26.34v5.67c0,11.97.5,20.16.5,32.26v5.8c0,1.13-1.01,1.39-2.14,1.39-7.31,0-14.62.13-21.17.13-.76,0-1.51-.13-2.39-.38-.5-.13-.63-1.89-.63-2.39,0-4.03-.38-7.06-.38-11.72-.25-25.71-.38-40.2-.5-65.9v-.5Z"/>
      <path class="cls-1" d="m127.51,189.98c.88-15.25,9.07-23.69,21.3-27.85,1.26-.38,2.65-.76,3.91-.88,1.39-.25,2.65-.38,4.03-.38,4.16,0,7.06,0,11.59.63,7.18,1.01,10.46.88,16.88,7.31,1.64,1.64,2.39,3.15,2.9,5.04.5,1.64.88,3.15,1.26,4.79.25,1.89.38,4.03.38,6.17,0,5.42-.13,8.32-.76,13.1-.25,1.51-.38,3.02-.63,4.54-.25,1.13-.76,1.89-1.89,2.27-1.01.25-2.14.25-3.15.25h-11.21c-.5,0-1.76.25-3.02.25-2.14,0-4.41-.38-4.41-2.39-.13-1.51-.13-2.9-.13-4.28,0-4.41.25-6.68.25-10.96,0-2.27-.25-4.28-1.13-6.17-.13-.25-.25-.5-.5-.76-.88-1.01-2.65-1.39-4.28-1.39-.63,0-1.26.13-1.89.5-2.52,1.51-3.65,3.02-4.91,5.54-1.13,2.39-1.64,4.91-1.76,7.43-.25,3.53-.5,6.3-.76,10.33v1.51c.13,2.39.25,4.03.25,6.05v5.54c0,2.65,0,5.29.25,6.43.38,1.76.38,3.91,1.76,6.05,1.13,1.64,2.65,2.52,4.03,2.52h.25c1.39,0,2.77-.63,3.91-1.76.76-.76,1.01-1.76,1.13-2.77.13-1.26.38-6.3.5-7.31s.25-4.28.76-5.17c.25-.5.88-.63,1.39-.63h.38c2.14.13,3.4.25,5.54.38,2.9.25,4.41.5,7.31.5h.63c2.27,0,3.78-.25,5.92-.25h1.01c1.13,0,1.89.38,2.77.63.76.25,1.13.88,1.13,1.76.13.5.13,1.01.13,1.51-.13,4.54-.13,10.58-.5,15.12-.63,6.8-2.9,11.47-5.8,16-1.13,1.64-2.39,3.15-4.28,4.03-1.64.63-3.15,1.39-4.79,1.89-.38.13-.63.25-.88.25-2.9.5-5.8,1.01-8.57,1.39-2.14.25-4.16.5-6.3.5s-4.28-.25-6.3-.63c-1.76-.38-3.53-.63-5.29-1.01-4.54-1.26-8.32-3.65-11.09-7.81-1.01-1.51-2.14-3.28-2.77-5.04-.5-1.26-.88-2.39-1.26-3.65-.88-3.02-1.76-6.17-2.02-9.45-.25-2.77-.63-5.54-1.01-8.32-.13-.5-.13-1.13-.13-1.64-.25-3.91-.38-7.81-.63-11.72v-1.51c0-2.52.13-5.29.13-7.94.13-2.77.25-5.8.38-8.57Z"/>
      <path class="cls-1" d="m194.67,240.76c0-2.9.13-5.67.13-8.57,0-1.39-.13-2.9-.13-4.28-.13-2.39-.13-4.91-.13-7.31,0-3.4,0-6.68.13-10.08,0-5.67.38-11.34.5-17.01v-8.82c.13-3.78.5-6.68.5-10.33v-1.39c-.13-1.89-.25-3.91-.25-5.92v-1.01c0-.88.25-1.51,1.01-2.02.5-.38.88-.38,1.39-.38h1.13c1.76,0,3.65-.13,5.42-.13s3.4.13,4.16.13c1.76.13,5.17.13,6.93.25h.88c1.51,0,2.52,1.01,2.52,2.39,0,.25,0,.5-.13.88-.5,2.14-.5,4.28-.63,6.43-.25,3.65-.38,5.42-.38,9.2v5.04c0,.88-.13,1.89-.13,2.9,0,.38-.25,2.02-.25,3.4v.5c0,2.52.13,3.02.13,6.8,0,.25.25.38.5.38s.63-.13.88-.13h1.51c4.91.5,7.94.76,12.47.76h.5v-.25c0-4.41,0-6.8-.13-11.21v-1.26c.13-3.4.38-5.92.38-8.69,0-.88-.13-1.76-.13-2.65-.13-1.76-.13-1.39-.13-3.15-.13-2.52-.38-5.04-.38-7.43,0-.76.13-1.51.13-2.27,0-.5.13-.88.38-1.26.13-.25.5-.5.88-.5h.13c.38,0,1.01-.13,1.64-.13,4.16-.13,8.69-.13,12.85-.25h1.39c1.26,0,2.39.13,2.39,1.76,0,1.01-.13,2.02-.13,3.02,0,2.14.25,4.16.25,6.17,0,.88,0,1.76-.13,2.65-.25,2.9-.25,5.17-.25,6.93v3.15c0,4.41.25,5.29.25,10.96v35.53c0,3.28-.25,5.54-.25,8.06,0,.88,0,2.02.13,3.02,0,.5.13,1.13.13,1.89,0,1.39-.13,3.15-.13,4.79v1.64c0,1.01-.13,1.89-.63,1.89h-13.86c-.25,0-1.39-.13-1.64-.13s-.63-.13-.88-.25c-.88-.38-1.39-1.64-1.51-3.02v-8.82c0-1.51-.13-3.02-.13-4.54-.13-1.89-.13-3.65-.25-5.54-.13-2.39-.13-4.03-.13-5.54v-7.43c0-.13-.38-.25-.5-.25h-1.01c-2.9,0-3.28-.38-4.91-.38-.5,0-1.13,0-2.02.13-1.89.13-3.15.25-4.79.25h-1.13c-.76,0-1.51.13-1.51.76v.63c0,1.76-.13,3.15-.13,5.29v1.39c0,1.39-.13,1.89-.13,2.65,0,.5,0,.88.13,1.64.25,4.91.25,10.21.5,15.62v5.54c0,1.01-.88,1.76-1.89,1.89-.88.13-1.76.13-2.65.13-3.91,0-8.44-.63-11.97-.76h-5.92c-.5-.38-1.01-.76-1.01-1.51v-11.84Z"/>
    </g>
    <g>
      <path class="cls-2" d="m88.8,100.54c4.16,7.94,10.39,17.01,13.99,24,1.13,1.89,2.08,3.78,2.83,5.67.94,1.89,1.7,3.97,2.65,6.05.19.38.19.57.19.94,0,.57-.19.95-.57,1.51-.38.76-4.16,2.27-7.37,2.27h-.57c-2.27-.19-7.37-.38-9.83-.38-1.7,0-2.83-.19-4.54-.19-1.89,0-3.78.57-5.29.57-.57,0-.95-.19-1.32-.38-.94-.95-2.46-4.72-4.72-8.88-.76-1.51-1.7-3.02-2.27-4.35-2.27-4.54-5.48-9.07-7.75-13.42-1.89-3.4-3.78-6.99-5.67-10.39-1.51-2.46-3.02-4.91-4.54-7.56-.94-1.51-9.26-15.5-12.66-17.58,0,.76-.19,3.02-.19,3.4-.19,3.78-.19,6.05-.19,7.75,0,3.59.19,4.35.19,10.39,0,9.64.19,18.14.19,28.16v6.99c0,2.27-.19,4.35-2.27,4.35-7.94,0-13.8-.19-23.06-.19h-3.4c-2.08,0-2.83-.76-2.83-3.21v-6.24c.19-18.71.95-36.1.95-58.02,0-11.53-.19-22.68-.19-34.02v-7.56c0-3.97-.19-7.18-.19-11.72V5.1c0-.57.19-.94.19-1.51.19-1.13.57-1.32,1.32-1.32h1.7c.94,0,2.46-.19,3.78-.19,4.35,0,7.18-.19,10.58-.19,2.27,0,4.35.19,7.18.19,5.48.19,11.72.19,17.77.19h15.69c12.47.19,25.33.19,31.56,7.75,3.78,4.91,6.05,9.26,8.13,15.31.76,2.65.94,5.1.94,7.56,0,19.09-10.58,41.58-25.51,45.74-2.08.57-6.24.76-8.5.76-.19,0-.19.19-.19.38,0,1.89,9.45,13.23,12.47,18.33.57,1.13.76,1.51,1.32,2.46Zm-19.09-53.11c.95-1.51,1.32-10.58,1.32-11.91,0-1.89-.76-3.59-2.46-4.91-4.73-3.21-10.96-4.54-16.82-4.54-4.16,0-5.86.94-6.8,1.51-.38.19-.38.57-.38.94v.19c0,2.08.19,4.73.19,7.37,0,1.89-.19,11.34-.19,13.23,0,1.51.19,3.02.19,4.35.94.19,3.78.19,5.67.19h1.7c6.24-.57,2.46,0,10.21-1.51,2.83-.57,5.48-2.08,7.37-4.91Z"/>
      <path class="cls-2" d="m116.77,19.28c0-4.54.19-7.94.19-11.91,0-3.21.19-3.78,1.13-4.35,1.51-1.13,4.73-1.13,8.69-1.13h3.4c2.27,0,4.73,0,7.75-.19h9.64c4.54,0,6.43.19,7.94.57,1.51.38,1.89.95,1.89,1.51v1.51c0,3.02.19,5.86.19,8.5,0,6.43-.38,11.91-.38,19.47-.38,15.31-.19,24-.38,39.5v8.5c0,17.96.76,30.24.76,48.38v8.69c0,1.7-1.51,2.08-3.21,2.08-10.96,0-21.92.19-31.75.19-1.13,0-2.27-.19-3.59-.57-.76-.19-.94-2.83-.94-3.59,0-6.05-.57-10.58-.57-17.58-.38-38.55-.57-60.29-.76-98.84v-.76Z"/>
      <path class="cls-2" d="m260.59,98.84c0,1.7,0,3.21-.19,4.54-.38,3.02-.95,5.86-1.89,8.69-.57,1.51-1.32,2.83-2.08,4.35-.57,1.13-1.32,2.08-2.08,3.21-2.08,3.4-4.16,6.8-7.18,9.45-1.13.94-2.27,2.27-3.4,3.4-1.7,1.51-3.78,2.65-6.05,3.59-3.78,1.7-7.75,2.83-11.72,3.59-3.59.57-7.37.76-11.34.76-3.59,0-7.56-.19-11.34-.19-6.8,0-10.96.19-17.01.19h-2.46c-1.32,0-2.08-.19-3.4-.38-3.21-.57-6.24-.57-9.07-1.51-2.65-.76-3.59-1.32-3.97-5.1l-.57-6.24c0-3.78-.19-7.37-.19-11.15.19-3.78.38-7.37.38-11.34,0-29.29-1.51-60.86-1.51-89.39,0-2.65,0-5.48.38-8.13.19-1.32,0-2.65.19-3.97.19-1.32.76-1.89,1.7-1.89h.38c15.69-.19,24.57-.19,40.26-.57,5.48-.19,9.45-.57,13.99-.76h1.13c4.72,0,11.34,1.13,15.5,2.46,2.65.76,5.48,2.08,7.37,4.35,1.32,1.51,2.83,2.83,4.16,4.35,1.7,1.7,2.83,3.59,3.78,5.86,2.83,6.61,3.59,12.28,3.97,18.9v2.83c0,13.23-3.59,19.28-12.47,26.84-.57.57-1.51.95-1.7,1.89.57,1.13,1.7,1.51,2.65,2.08,2.65,1.13,4.54,2.83,6.61,4.54,1.7,1.32,2.65,3.21,3.4,4.91,1.89,4.72,3.21,9.45,3.59,14.74.19,1.89.19,3.4.19,5.1Zm-58.97-41.2h3.97c1.89,0,6.99,0,8.88-.38,3.59-.57,5.29-3.02,6.43-6.05.38-1.89.57-4.16.57-6.62,0-2.27-.19-4.72-.19-6.61v-.94c-.19-2.27-3.4-3.78-5.86-3.97-1.32-.19-6.24-.38-7.75-.38-.94,0-2.08.19-3.21.19-.76,0-1.89.19-2.65.76-.19,1.51-.38,3.02-.76,4.54-.19,1.13-.19,2.27-.19,3.4v2.27c.19,3.59.19,7.18.38,10.77,0,.76.19,1.89.38,3.02Zm17.95,36.48c0-1.32,0-2.46-.19-3.78-.38-2.83-4.35-5.1-7.18-5.48h-.94c-2.27,0-4.73.76-6.99,1.13-.94.19-1.32.57-1.32,1.7,0,.95.19,3.78.19,6.24.19,4.16.19,6.05.19,10.77v3.02c.19.38.57.94,1.13.94h.19c7.56,0,14.93-.38,14.93-8.88v-5.67Z"/>
      <path class="cls-2" d="m90.25,199.85c-2.27,12.47-3.78,19.41-5.8,31.75-1.13,6.8-1.26,14.87-2.52,17.64-.13.25-1.51.5-3.53.63h-1.39c-4.41,0-11.84-1.01-12.48-1.01-1.51,0-2.77-.76-3.4-2.52-1.01-2.52-2.02-5.29-2.52-7.94-.63-2.65-1.26-5.42-1.89-8.06-.25-1.26-.38-2.39-.88-3.78-.38-1.13-.38-4.41-1.26-5.17-.13,0-1.51,4.54-1.76,5.17-1.39,4.16-1.89,6.8-3.28,10.84-1.26,3.78-1.64,7.06-4.03,9.45-.88.76-3.28.76-4.41.88-2.39.25-10.71.25-17.52.38h-1.51c-.63,0-1.01,0-1.26-.88-1.39-8.44-3.53-18.65-5.42-30.62-1.89-11.34-2.52-17.89-4.16-29.36-.88-9.2-2.02-17.01-3.4-27.22v-.63c0-1.64.63-2.14,2.02-2.27.13,0,1.51-.25,1.64-.25h.63c4.41,0,8.57.25,13.1.25,1.51,0,3.02,0,4.66-.13h1.39c1.39.13,2.77-.13,3.02,1.39,0,4.79.63,8.32,1.13,13.23.13,1.39.13,2.14.25,3.65,1.26,12.47,2.52,22.3,3.65,36.92,0,.5,1.01,8.32,1.01,8.32.5-1.51,4.79-13.1,5.42-14.74,2.65-7.56,5.42-14.49,8.57-21.55.13-.5.5-1.01.88-1.51.38-.38.76-.63,1.26-.63.38,0,.63.13,1.01.38.76.38,1.26,1.26,1.39,2.14.76,3.15,1.64,6.17,1.89,9.45.25,2.77.88,5.67,1.26,8.44.13,1.26,2.39,16.13,2.9,16.13.63-1.64,2.27-9.2,2.65-10.71.63-2.9,1.26-5.29,1.89-8.69,2.27-12.98,4.16-26.08,5.54-39.82.13-1.26.63-2.27,1.13-3.02.38-.63,1.13-.88,1.76-.88h6.43c5.8,0,12.98.13,12.98,1.51v.13c-.25,2.02-.5,3.02-.63,4.28-.5,7.06-2.52,15.88-3.65,22.3-.76,5.67-1.64,9.95-2.77,16.13Z"/>
      <path class="cls-2" d="m102.6,167.72c0-3.02.13-5.29.13-7.94,0-2.14.13-2.52.76-2.9,1.01-.76,3.15-.76,5.8-.76h2.27c1.51,0,3.15,0,5.17-.13h6.43c3.02,0,4.28.13,5.29.38,1.01.25,1.26.63,1.26,1.01v1.01c0,2.02.13,3.91.13,5.67,0,4.28-.25,7.94-.25,12.98-.25,10.21-.13,16-.25,26.34v5.67c0,11.97.5,20.16.5,32.26v5.8c0,1.13-1.01,1.39-2.14,1.39-7.31,0-14.62.13-21.17.13-.76,0-1.51-.13-2.39-.38-.5-.13-.63-1.89-.63-2.39,0-4.03-.38-7.06-.38-11.72-.25-25.71-.38-40.2-.5-65.9v-.5Z"/>
      <path class="cls-2" d="m135.35,183.72c.88-15.25,9.07-23.69,21.3-27.85,1.26-.38,2.65-.76,3.91-.88,1.39-.25,2.65-.38,4.03-.38,4.16,0,7.06,0,11.59.63,7.18,1.01,10.46.88,16.88,7.31,1.64,1.64,2.39,3.15,2.9,5.04.5,1.64.88,3.15,1.26,4.79.25,1.89.38,4.03.38,6.17,0,5.42-.13,8.32-.76,13.1-.25,1.51-.38,3.02-.63,4.54-.25,1.13-.76,1.89-1.89,2.27-1.01.25-2.14.25-3.15.25h-11.21c-.5,0-1.76.25-3.02.25-2.14,0-4.41-.38-4.41-2.39-.13-1.51-.13-2.9-.13-4.28,0-4.41.25-6.68.25-10.96,0-2.27-.25-4.28-1.13-6.17-.13-.25-.25-.5-.5-.76-.88-1.01-2.65-1.39-4.28-1.39-.63,0-1.26.13-1.89.5-2.52,1.51-3.65,3.02-4.91,5.54-1.13,2.39-1.64,4.91-1.76,7.43-.25,3.53-.5,6.3-.76,10.33v1.51c.13,2.39.25,4.03.25,6.05v5.54c0,2.65,0,5.29.25,6.43.38,1.76.38,3.91,1.76,6.05,1.13,1.64,2.65,2.52,4.03,2.52h.25c1.39,0,2.77-.63,3.91-1.76.76-.76,1.01-1.76,1.13-2.77.13-1.26.38-6.3.5-7.31s.25-4.28.76-5.17c.25-.5.88-.63,1.39-.63h.38c2.14.13,3.4.25,5.54.38,2.9.25,4.41.5,7.31.5h.63c2.27,0,3.78-.25,5.92-.25h1.01c1.13,0,1.89.38,2.77.63.76.25,1.13.88,1.13,1.76.13.5.13,1.01.13,1.51-.13,4.54-.13,10.58-.5,15.12-.63,6.8-2.9,11.47-5.8,16-1.13,1.64-2.39,3.15-4.28,4.03-1.64.63-3.15,1.39-4.79,1.89-.38.13-.63.25-.88.25-2.9.5-5.8,1.01-8.57,1.39-2.14.25-4.16.5-6.3.5s-4.28-.25-6.3-.63c-1.76-.38-3.53-.63-5.29-1.01-4.54-1.26-8.32-3.65-11.09-7.81-1.01-1.51-2.14-3.28-2.77-5.04-.5-1.26-.88-2.39-1.26-3.65-.88-3.02-1.76-6.17-2.02-9.45-.25-2.77-.63-5.54-1.01-8.32-.13-.5-.13-1.13-.13-1.64-.25-3.91-.38-7.81-.63-11.72v-1.51c0-2.52.13-5.29.13-7.94.13-2.77.25-5.8.38-8.57Z"/>
      <path class="cls-2" d="m202.51,234.5c0-2.9.13-5.67.13-8.57,0-1.39-.13-2.9-.13-4.28-.13-2.39-.13-4.91-.13-7.31,0-3.4,0-6.68.13-10.08,0-5.67.38-11.34.5-17.01v-8.82c.13-3.78.5-6.68.5-10.33v-1.39c-.13-1.89-.25-3.91-.25-5.92v-1.01c0-.88.25-1.51,1.01-2.02.5-.38.88-.38,1.39-.38h1.13c1.76,0,3.65-.13,5.42-.13s3.4.13,4.16.13c1.76.13,5.17.13,6.93.25h.88c1.51,0,2.52,1.01,2.52,2.39,0,.25,0,.5-.13.88-.5,2.14-.5,4.28-.63,6.43-.25,3.65-.38,5.42-.38,9.2v5.04c0,.88-.13,1.89-.13,2.9,0,.38-.25,2.02-.25,3.4v.5c0,2.52.13,3.02.13,6.8,0,.25.25.38.5.38s.63-.13.88-.13h1.51c4.91.5,7.94.76,12.47.76h.5v-.25c0-4.41,0-6.8-.13-11.21v-1.26c.13-3.4.38-5.92.38-8.69,0-.88-.13-1.76-.13-2.65-.13-1.76-.13-1.39-.13-3.15-.13-2.52-.38-5.04-.38-7.43,0-.76.13-1.51.13-2.27,0-.5.13-.88.38-1.26.13-.25.5-.5.88-.5h.13c.38,0,1.01-.13,1.64-.13,4.16-.13,8.69-.13,12.85-.25h1.39c1.26,0,2.39.13,2.39,1.76,0,1.01-.13,2.02-.13,3.02,0,2.14.25,4.16.25,6.17,0,.88,0,1.76-.13,2.65-.25,2.9-.25,5.17-.25,6.93v3.15c0,4.41.25,5.29.25,10.96v35.53c0,3.28-.25,5.54-.25,8.06,0,.88,0,2.02.13,3.02,0,.5.13,1.13.13,1.89,0,1.39-.13,3.15-.13,4.79v1.64c0,1.01-.13,1.89-.63,1.89h-13.86c-.25,0-1.39-.13-1.64-.13s-.63-.13-.88-.25c-.88-.38-1.39-1.64-1.51-3.02v-8.82c0-1.51-.13-3.02-.13-4.54-.13-1.89-.13-3.65-.25-5.54-.13-2.39-.13-4.03-.13-5.54v-7.43c0-.13-.38-.25-.5-.25h-1.01c-2.9,0-3.28-.38-4.91-.38-.5,0-1.13,0-2.02.13-1.89.13-3.15.25-4.79.25h-1.13c-.76,0-1.51.13-1.51.76v.63c0,1.76-.13,3.15-.13,5.29v1.39c0,1.39-.13,1.89-.13,2.65,0,.5,0,.88.13,1.64.25,4.91.25,10.21.5,15.62v5.54c0,1.01-.88,1.76-1.89,1.89-.88.13-1.76.13-2.65.13-3.91,0-8.44-.63-11.97-.76h-5.92c-.5-.38-1.01-.76-1.01-1.51v-11.84Z"/>
    </g>
  </g>
</svg>