<?xml version="1.0" encoding="UTF-8"?>
<svg id="Layer_1" data-name="Layer 1" xmlns="http://www.w3.org/2000/svg" viewBox="0 0 381.82 97.96">
  <defs>
    <style>
      .cls-1 {
        fill: #f0b7db;
      }

      .cls-1, .cls-2, .cls-3 {
        stroke: #fff;
        stroke-miterlimit: 10;
      }

      .cls-2 {
        fill: #fff;
      }

      .cls-3 {
        fill: none;
      }

      .cls-4 {
        isolation: isolate;
      }
    </style>
  </defs>
  <g id="Group_16" data-name="Group 16">
    <g id="Rectangle_13" data-name="Rectangle 13">
      <path class="cls-1" d="m48.98.5h283.86c26.77,0,48.48,21.7,48.48,48.48h0c0,26.77-21.7,48.48-48.48,48.48H48.98C22.2,97.46.5,75.75.5,48.98h0C.5,22.2,22.2.5,48.98.5Z"/>
      <path class="cls-3" d="m48.98,2.5h283.86c25.67,0,46.48,20.81,46.48,46.48h0c0,25.67-20.81,46.48-46.48,46.48H48.98c-25.67,0-46.48-20.81-46.48-46.48h0C2.5,23.31,23.31,2.5,48.98,2.5Z"/>
    </g>
    <g id="Try_the_recipe" data-name="Try the recipe" class="cls-4">
      <g class="cls-4">
        <path class="cls-2" d="m35.88,43.4c-.79,0-1.8.05-2.86.05-.69,0-1.43-.05-2.01-.11-.11,0-.21-.05-.37-.05-.32-.16-.53-.37-.53-.74v-3.5c.11-2.23.16-4.82.21-6.94v-.26c0-.53.05-1.27.58-1.27,5.88-.32,13.94-.32,18.6-.42h.27c.32,0,.64.05.85.42.11.16.11.37.11.64-.05,1.43-.16,2.38-.16,3.5,0,.27.05.53.05.79v2.44c0,1.01.05,1.54.11,2.54v1.17c0,.37,0,.69.05,1.06v.37c0,.21-.27.27-.48.32-.42.05-.64.11-.9.11-.37,0-.74-.11-1.64-.11h-1.22c-.53,0-1.17.11-1.8.16-.16.32-.26,1.17-.26,1.59,0,.85-.05,1.54-.05,2.12,0,5.94,0,13.14-.11,20.14,0,.21,0,.48-.05.74,0,.37-.21.64-.53.64-1.06,0-2.81.11-4.13.11-.42,0-.79,0-1.06-.05h-.16c-.21,0-.37.05-.58.05-.16,0-.27-.05-.48-.16-.16-.11-.27-.74-.27-.95v-11.66c0-3.76,0-7.15-.16-10.86,0-.26-.11-1.06-.11-1.32,0-.16,0-.32-.05-.48-.27-.05-.58-.05-.85-.05Z"/>
        <path class="cls-2" d="m75.25,57.71c1.17,2.23,2.92,4.77,3.92,6.73.32.53.58,1.06.79,1.59.26.53.48,1.11.74,1.7.05.11.05.16.05.26,0,.16-.05.27-.16.42-.11.21-1.17.64-2.07.64h-.16c-.64-.05-2.07-.11-2.76-.11-.48,0-.79-.05-1.27-.05-.53,0-1.06.16-1.48.16-.16,0-.26-.05-.37-.11-.27-.26-.69-1.33-1.33-2.49-.21-.42-.48-.85-.64-1.22-.64-1.27-1.54-2.54-2.17-3.76-.53-.95-1.06-1.96-1.59-2.92-.42-.69-.85-1.38-1.27-2.12-.27-.42-2.6-4.34-3.55-4.93,0,.21-.05.85-.05.95-.05,1.06-.05,1.7-.05,2.17,0,1.01.05,1.22.05,2.92,0,2.7.05,5.09.05,7.9v1.96c0,.64-.05,1.22-.64,1.22-2.23,0-3.87-.05-6.47-.05h-.95c-.58,0-.79-.21-.79-.9v-1.75c.05-5.25.27-10.12.27-16.27,0-3.23-.05-6.36-.05-9.54v-2.12c0-1.11-.05-2.01-.05-3.29v-3.76c0-.16.05-.27.05-.42.05-.32.16-.37.37-.37h.48c.27,0,.69-.05,1.06-.05,1.22,0,2.01-.05,2.97-.05.64,0,1.22.05,2.01.05,1.54.05,3.29.05,4.98.05h4.4c3.5.05,7.1.05,8.85,2.17,1.06,1.38,1.7,2.6,2.28,4.29.21.74.27,1.43.27,2.12,0,5.35-2.97,11.66-7.15,12.82-.58.16-1.75.21-2.38.21-.05,0-.05.05-.05.11,0,.53,2.65,3.71,3.5,5.14.16.32.21.42.37.69Zm-5.35-14.89c.26-.42.37-2.97.37-3.34,0-.53-.21-1.01-.69-1.38-1.32-.9-3.07-1.27-4.72-1.27-1.17,0-1.64.26-1.91.42-.11.05-.11.16-.11.26v.05c0,.58.05,1.32.05,2.07,0,.53-.05,3.18-.05,3.71,0,.42.05.85.05,1.22.27.05,1.06.05,1.59.05h.48c1.75-.16.69,0,2.86-.42.79-.16,1.54-.58,2.07-1.38Z"/>
        <path class="cls-2" d="m93.17,39.85c.16.58.42,1.7.85,2.07,0,0,1.38-4.35,1.59-4.77.53-1.27.95-2.54,1.54-3.82.42-.79.42-1.11.74-1.86.05-.11.11-.26.21-.37.27-.58.37-.69,1.06-.69h.27c.69,0,1.91.05,2.65.05h.27c.79-.11,1.32-.11,2.23-.11.05,0,.05-.05.11-.05.27,0,.48.05.74.16.58.21.85.53.95.95,0,.11.05.21.05.32,0,.64-.32,1.43-.64,2.28-.21.48-.42.95-.58,1.38-.21.48-.42.9-.64,1.27-.11.32-.26.58-.42.9-.37.9-.69,1.91-1.22,2.76-1.38,2.23-3.02,8.21-3.82,10.6-.21.58-.26,1.38-.26,2.23,0,3.97.26,7.63.42,11.39.05,1.11.11,2.07.11,3.23,0,.58-.32,1.27-.85,1.27h-.11c-2.97-.16-5.88-.16-8.8-.16h-1.38c-.27,0-.42-.21-.48-.48-.05-.48-.05-.9-.05-1.27,0-.79.05-1.64.05-2.54v-.21c0-2.01-.11-2.44-.11-5.14s.26-5.56.26-8.16c0-.53-.05-1.06-.21-1.43-.37-.9-1.48-4.24-1.85-5.14-1.27-3.34-2.92-8.37-4.35-12.61-.05-.16-.11-.26-.11-.42,0-.11.05-.26.16-.37.21-.26.48-.32.74-.32h.58c1.48,0,2.81-.11,3.97-.11.42,0,.85.05,1.22.05.58.05,1.17.11,1.75.11.37.11.74.26.9.79.16.53.48,1.11.74,1.91.58,1.8.9,3.18,1.38,4.66.21.64.11.95.32,1.64Z"/>
        <path class="cls-2" d="m128.94,42.29c-.69,0-1.06.21-2.07.21-.64.05-.74.05-1.33.05-.11,0-.26,0-.37-.05l-.95-.16c-.16,0-.37-.05-.48-.11-.32-.21-.48-.42-.48-.74,0-3.87.11-3.5.11-7.68v-2.12c0-.64.05-.95.16-1.59,0-.42.32-.42.58-.42h2.01c.9-.05,1.8-.11,2.65-.11.58,0,1.54.05,2.07.05.64.05,1.22.05,1.85.05,1.27.05,2.6,0,3.87.11,1.27.16,3.02.11,4.29.16.79.11,1.64.11,2.44.11.27,0,.58.05.69.21.32.37.27.74.32,1.27.05.64.11,1.22.11,1.8s-.05,1.17-.11,1.8v1.06c0,3.39.26,2.01.26,5.51,0,0,0,.11-.05.11-.11.32-.69.42-1.38.42-1.22,0-.95,0-2.07.05-.37,0-.69.05-.95.05h-.21c-.21-.05-.37-.05-.53-.05-.48,0-.69.11-.74.37-.37,1.01-.42,2.12-.42,3.23,0,.53.11.95.11,1.54.05.21.05.42.05.69,0,3.18-.11,5.14-.11,8.53v2.81c0,2.23-.05,4.5-.05,6.84,0,.53,0,1.01.05,1.54,0,.27,0,.42.05.64,0,.26-.11.37-.32.42-.48.05-.95.11-1.43.11-.69,0-1.38-.05-2.07-.05-.85-.05-1.17-.05-2.07-.16-.79-.11-2.23-.11-2.38-.48-.05-.11-.16-.53-.16-.69h.05v-5.62c0-1.96-.05-3.6-.11-5.88q-.05-.05-.05-.11s0-.05.05-.11c.05-4.08.11-5.51.11-10.44,0-.74.11-1.48.11-2.28v-.42c0-.16-.05-.32-.21-.37-.37-.05-.69-.11-.9-.11Z"/>
        <path class="cls-2" d="m146.65,63.01c0-1.22.05-2.38.05-3.6,0-.58-.05-1.22-.05-1.8-.05-1.01-.05-2.07-.05-3.07,0-1.43,0-2.81.05-4.24,0-2.38.16-4.77.21-7.15v-3.71c.05-1.59.21-2.81.21-4.35v-.58c-.05-.79-.11-1.64-.11-2.49v-.42c0-.37.11-.64.42-.85.21-.16.37-.16.58-.16h.48c.74,0,1.54-.05,2.28-.05s1.43.05,1.75.05c.74.05,2.17.05,2.91.11h.37c.64,0,1.06.42,1.06,1.01,0,.11,0,.21-.05.37-.21.9-.21,1.8-.26,2.7-.11,1.54-.16,2.28-.16,3.87v2.12c0,.37-.05.79-.05,1.22,0,.16-.11.85-.11,1.43v.21c0,1.06.05,1.27.05,2.86,0,.11.11.16.21.16s.27-.05.37-.05h.64c2.07.21,3.34.32,5.25.32h.21v-.11c0-1.85,0-2.86-.05-4.72v-.53c.05-1.43.16-2.49.16-3.66,0-.37-.05-.74-.05-1.11-.05-.74-.05-.58-.05-1.33-.05-1.06-.16-2.12-.16-3.13,0-.32.05-.64.05-.95,0-.21.05-.37.16-.53.05-.11.21-.21.37-.21h.05c.16,0,.42-.05.69-.05,1.75-.05,3.66-.05,5.41-.11h.58c.53,0,1.01.05,1.01.74,0,.42-.05.85-.05,1.27,0,.9.11,1.75.11,2.6,0,.37,0,.74-.05,1.11-.11,1.22-.11,2.17-.11,2.91v1.33c0,1.85.11,2.23.11,4.61v14.94c0,1.38-.11,2.33-.11,3.39,0,.37,0,.85.05,1.27,0,.21.05.48.05.79,0,.58-.05,1.33-.05,2.01v.69c0,.42-.05.79-.27.79h-5.83c-.11,0-.58-.05-.69-.05s-.27-.05-.37-.11c-.37-.16-.58-.69-.64-1.27v-3.71c0-.64-.05-1.27-.05-1.91-.05-.79-.05-1.54-.11-2.33-.05-1.01-.05-1.7-.05-2.33v-3.13c0-.05-.16-.11-.21-.11h-.42c-1.22,0-1.38-.16-2.07-.16-.21,0-.48,0-.85.05-.79.05-1.32.11-2.01.11h-.48c-.32,0-.64.05-.64.32v.26c0,.74-.05,1.33-.05,2.23v.58c0,.58-.05.79-.05,1.11,0,.21,0,.37.05.69.11,2.07.11,4.29.21,6.57v2.33c0,.42-.37.74-.79.79-.37.05-.74.05-1.11.05-1.64,0-3.55-.26-5.03-.32h-2.49c-.21-.16-.42-.32-.42-.64v-4.98Z"/>
        <path class="cls-2" d="m185.87,68.89h-.69c-1.01,0-1.75-.11-2.76-.11h-.48c-.95.05-2.81.11-3.6.11-.64,0-1.27-.05-1.91-.16-.64-.11-1.22-.26-1.85-.42-.42-.11-.64-.42-.69-.85-.05-.16-.05-.27-.05-.42,0-.95-.05-1.91-.05-2.81v-6.62c0-1.8,0-3.6-.05-5.41-.11-2.12-.11-4.13-.11-6.09,0-2.97.05-5.83.05-8.96,0-2.07.05-4.35.05-6.47.05-.42.26-.64.69-.64,1.38,0,3.18.26,4.4.26,1.91.05,3.87.05,5.78.05,2.38,0,4.98-.05,7.26-.16h.53c.53,0,.95.05,1.33.42.16.11.16.74.16.95v.53c0,1.06.05,1.96.05,2.81,0,.74,0,1.48-.11,2.44v2.01c.05.53.05,1.06.05,1.64,0,.53-.69.64-1.27.64-.37,0-.74-.05-1.06-.05-1.75,0-4.19-.26-6.25-.26h-1.59c-.21.05-.37.16-.42.37,0,.05,0,.11-.05.16v2.07c0,.21,0,.37.05.58.11,0,1.8-.11,2.65-.11h3.07c.48,0,.95,0,1.59.05.37,0,.64,0,1.01.05.26,0,.95,0,1.17.11.53.16.74,1.33.74,1.96v.79c0,1.8-.05,1.01-.05,3.02v.11c0,.21,0,.26-.16.42-.05.05-.37.11-.48.11-2.6.11-5.14.16-7.9.16-.48,0-.9.11-1.32.21-.32.05-.42.21-.42.53-.05,1.06-.11,2.12-.11,3.18,0,.32.11.42.42.42.95.05,1.91.11,2.86.11h.69c1.91,0,3.5.27,5.4.42.27.05.58,0,.85.05.53.11.69.42.69.95,0,.69.05,1.38.05,2.07v3.34c.05,1.38.11,3.29.16,4.66v.58c0,.58-.05.64-.48.79-.16.05-.27.11-.42.11-1.7.16-3.76.21-5.78.21-.53,0-1.01,0-1.64.05Z"/>
        <path class="cls-2" d="m235.21,57.71c1.17,2.23,2.92,4.77,3.92,6.73.32.53.58,1.06.79,1.59.26.53.48,1.11.74,1.7.05.11.05.16.05.26,0,.16-.05.27-.16.42-.11.21-1.17.64-2.07.64h-.16c-.64-.05-2.07-.11-2.76-.11-.48,0-.79-.05-1.27-.05-.53,0-1.06.16-1.48.16-.16,0-.26-.05-.37-.11-.27-.26-.69-1.33-1.33-2.49-.21-.42-.48-.85-.64-1.22-.64-1.27-1.54-2.54-2.17-3.76-.53-.95-1.06-1.96-1.59-2.92-.42-.69-.85-1.38-1.27-2.12-.27-.42-2.6-4.34-3.55-4.93,0,.21-.05.85-.05.95-.05,1.06-.05,1.7-.05,2.17,0,1.01.05,1.22.05,2.92,0,2.7.05,5.09.05,7.9v1.96c0,.64-.05,1.22-.64,1.22-2.23,0-3.87-.05-6.47-.05h-.95c-.58,0-.79-.21-.79-.9v-1.75c.05-5.25.27-10.12.27-16.27,0-3.23-.05-6.36-.05-9.54v-2.12c0-1.11-.05-2.01-.05-3.29v-3.76c0-.16.05-.27.05-.42.05-.32.16-.37.37-.37h.48c.26,0,.69-.05,1.06-.05,1.22,0,2.01-.05,2.97-.05.64,0,1.22.05,2.01.05,1.54.05,3.29.05,4.98.05h4.4c3.5.05,7.1.05,8.85,2.17,1.06,1.38,1.7,2.6,2.28,4.29.21.74.26,1.43.26,2.12,0,5.35-2.97,11.66-7.15,12.82-.58.16-1.75.21-2.38.21-.05,0-.05.05-.05.11,0,.53,2.65,3.71,3.5,5.14.16.32.21.42.37.69Zm-5.35-14.89c.26-.42.37-2.97.37-3.34,0-.53-.21-1.01-.69-1.38-1.33-.9-3.07-1.27-4.72-1.27-1.17,0-1.64.26-1.91.42-.11.05-.11.16-.11.26v.05c0,.58.05,1.32.05,2.07,0,.53-.05,3.18-.05,3.71,0,.42.05.85.05,1.22.27.05,1.06.05,1.59.05h.48c1.75-.16.69,0,2.86-.42.79-.16,1.54-.58,2.07-1.38Z"/>
        <path class="cls-2" d="m255.19,68.89h-.69c-1.01,0-1.75-.11-2.76-.11h-.48c-.95.05-2.81.11-3.6.11-.64,0-1.27-.05-1.91-.16-.64-.11-1.22-.26-1.85-.42-.42-.11-.64-.42-.69-.85-.05-.16-.05-.27-.05-.42,0-.95-.05-1.91-.05-2.81v-6.62c0-1.8,0-3.6-.05-5.41-.11-2.12-.11-4.13-.11-6.09,0-2.97.05-5.83.05-8.96,0-2.07.05-4.35.05-6.47.05-.42.26-.64.69-.64,1.38,0,3.18.26,4.4.26,1.91.05,3.87.05,5.78.05,2.38,0,4.98-.05,7.26-.16h.53c.53,0,.95.05,1.33.42.16.11.16.74.16.95v.53c0,1.06.05,1.96.05,2.81,0,.74,0,1.48-.11,2.44v2.01c.05.53.05,1.06.05,1.64,0,.53-.69.64-1.27.64-.37,0-.74-.05-1.06-.05-1.75,0-4.19-.26-6.25-.26h-1.59c-.21.05-.37.16-.42.37,0,.05,0,.11-.05.16v2.07c0,.21,0,.37.05.58.11,0,1.8-.11,2.65-.11h3.07c.48,0,.95,0,1.59.05.37,0,.64,0,1.01.05.26,0,.95,0,1.17.11.53.16.74,1.33.74,1.96v.79c0,1.8-.05,1.01-.05,3.02v.11c0,.21,0,.26-.16.42-.05.05-.37.11-.48.11-2.6.11-5.14.16-7.9.16-.48,0-.9.11-1.33.21-.32.05-.42.21-.42.53-.05,1.06-.11,2.12-.11,3.18,0,.32.11.42.42.42.95.05,1.91.11,2.86.11h.69c1.91,0,3.5.27,5.41.42.27.05.58,0,.85.05.53.11.69.42.69.95,0,.69.05,1.38.05,2.07v3.34c.05,1.38.11,3.29.16,4.66v.58c0,.58-.05.64-.48.79-.16.05-.27.11-.42.11-1.7.16-3.76.21-5.78.21-.53,0-1.01,0-1.64.05Z"/>
        <path class="cls-2" d="m265.37,41.65c.37-6.41,3.82-9.96,8.96-11.71.53-.16,1.11-.32,1.64-.37.58-.11,1.11-.16,1.7-.16,1.75,0,2.97,0,4.88.26,3.02.42,4.4.37,7.1,3.07.69.69,1.01,1.32,1.22,2.12.21.69.37,1.33.53,2.01.11.79.16,1.7.16,2.6,0,2.28-.05,3.5-.32,5.51-.11.64-.16,1.27-.26,1.91-.11.48-.32.79-.79.95-.42.11-.9.11-1.33.11h-4.72c-.21,0-.74.11-1.27.11-.9,0-1.85-.16-1.85-1.01-.05-.64-.05-1.22-.05-1.8,0-1.85.11-2.81.11-4.61,0-.95-.11-1.8-.48-2.6-.05-.11-.11-.21-.21-.32-.37-.42-1.11-.58-1.8-.58-.27,0-.53.05-.79.21-1.06.64-1.54,1.27-2.07,2.33-.48,1.01-.69,2.07-.74,3.13-.11,1.48-.21,2.65-.32,4.35v.64c.05,1.01.11,1.7.11,2.54v2.33c0,1.11,0,2.23.11,2.7.16.74.16,1.64.74,2.54.48.69,1.11,1.06,1.7,1.06h.11c.58,0,1.17-.26,1.64-.74.32-.32.42-.74.48-1.17.05-.53.16-2.65.21-3.07.05-.42.11-1.8.32-2.17.11-.21.37-.26.58-.26h.16c.9.05,1.43.11,2.33.16,1.22.11,1.85.21,3.07.21h.26c.95,0,1.59-.11,2.49-.11h.42c.48,0,.79.16,1.17.27.32.11.48.37.48.74.05.21.05.42.05.64-.05,1.91-.05,4.45-.21,6.36-.26,2.86-1.22,4.82-2.44,6.73-.48.69-1.01,1.33-1.8,1.7-.69.26-1.33.58-2.01.79-.16.05-.26.11-.37.11-1.22.21-2.44.42-3.6.58-.9.11-1.75.21-2.65.21s-1.8-.11-2.65-.26c-.74-.16-1.48-.27-2.23-.42-1.91-.53-3.5-1.54-4.66-3.29-.42-.64-.9-1.38-1.17-2.12-.21-.53-.37-1.01-.53-1.54-.37-1.27-.74-2.6-.85-3.97-.11-1.17-.26-2.33-.42-3.5-.05-.21-.05-.48-.05-.69-.11-1.64-.16-3.29-.26-4.93v-.64c0-1.06.05-2.23.05-3.34.05-1.17.11-2.44.16-3.6Z"/>
        <path class="cls-2" d="m293.72,34.92c0-1.27.05-2.23.05-3.34,0-.9.05-1.06.32-1.22.42-.32,1.32-.32,2.44-.32h.95c.64,0,1.32,0,2.17-.05h2.7c1.27,0,1.8.05,2.23.16.42.11.53.26.53.42v.42c0,.85.05,1.64.05,2.38,0,1.8-.11,3.34-.11,5.46-.11,4.29-.05,6.73-.11,11.08v2.38c0,5.03.21,8.48.21,13.57v2.44c0,.48-.42.58-.9.58-3.07,0-6.15.05-8.9.05-.32,0-.64-.05-1.01-.16-.21-.05-.26-.79-.26-1.01,0-1.7-.16-2.97-.16-4.93-.11-10.81-.16-16.9-.21-27.72v-.21Z"/>
        <path class="cls-2" d="m326.68,47.8c-1.86,2.39-5.62,2.28-9.33,2.7h-.69c-.05.21-.11.37-.11.48v.05c-.11,3.71-.16,5.83-.21,9.54v.69c0,1.22.05,2.65.05,3.92v2.65c0,.11.05.53.05.58,0,.48-.48.53-.95.53h-4.03c-.74,0-1.7-.05-2.44-.05-.26,0-.53-.05-.79-.05-.11,0-.21-.05-.26-.11-.32-.16-.53-.32-.53-.69v-.11c0-.48.05-1.01.05-1.54v-.58c.05-1.48.05-3.07.05-4.56v-.05c0-.85-.05-1.7-.05-2.54,0-.48,0-1.01.05-1.48.05-1.01.05-2.01.11-3.02.05-.79.11-1.59.11-2.44,0-1.11-.05-2.17-.05-3.29,0-.95,0-1.91-.05-2.81v-.37c0-.53.05-1.11.05-1.64v-1.33c0-3.02-.05-5.78-.05-8.8v-1.64c0-.85.05-1.85.48-1.85h.32c1.22-.05,2.97-.05,4.24-.11h.26c1.01,0,1.85-.11,2.81-.11h2.44c.85,0,1.64,0,2.49.05,1.43.05,2.81.26,4.13.9.42.21.95.37,1.38.58.74.32,1.38.79,1.86,1.43.16.16.32.37.48.53,1.22,1.27,1.7,3.29,1.7,5.41,0,.42,0,.85-.05,1.27-.21,2.44-1.01,4.88-2.07,6.15-.48.58-.9,1.17-1.43,1.7Zm-5.67-8.16c0-.74-.37-1.27-1.01-1.75-.48-.32-1.01-.42-1.59-.42-.9,0-1.75,0-2.65.05-.21,0-.37.11-.42.32-.26,1.01-.16,2.28-.21,3.29v.53c0,.32,0,.69.05,1.06.26.05.48.05.69.05.69-.11,1.32-.16,2.01-.27.48-.11,1.01-.21,1.43-.42.95-.37,1.59-1.01,1.7-2.12v-.32Z"/>
        <path class="cls-2" d="m344.28,68.89h-.69c-1.01,0-1.75-.11-2.76-.11h-.48c-.95.05-2.81.11-3.6.11-.64,0-1.27-.05-1.91-.16-.64-.11-1.22-.26-1.86-.42-.42-.11-.64-.42-.69-.85-.05-.16-.05-.27-.05-.42,0-.95-.05-1.91-.05-2.81v-6.62c0-1.8,0-3.6-.05-5.41-.11-2.12-.11-4.13-.11-6.09,0-2.97.05-5.83.05-8.96,0-2.07.05-4.35.05-6.47.05-.42.26-.64.69-.64,1.38,0,3.18.26,4.4.26,1.91.05,3.87.05,5.78.05,2.38,0,4.98-.05,7.26-.16h.53c.53,0,.95.05,1.32.42.16.11.16.74.16.95v.53c0,1.06.05,1.96.05,2.81,0,.74,0,1.48-.11,2.44v2.01c.05.53.05,1.06.05,1.64,0,.53-.69.64-1.27.64-.37,0-.74-.05-1.06-.05-1.75,0-4.19-.26-6.25-.26h-1.59c-.21.05-.37.16-.42.37,0,.05,0,.11-.05.16v2.07c0,.21,0,.37.05.58.11,0,1.8-.11,2.65-.11h3.07c.48,0,.95,0,1.59.05.37,0,.64,0,1.01.05.26,0,.95,0,1.17.11.53.16.74,1.33.74,1.96v.79c0,1.8-.05,1.01-.05,3.02v.11c0,.21,0,.26-.16.42-.05.05-.37.11-.48.11-2.6.11-5.14.16-7.9.16-.48,0-.9.11-1.32.21-.32.05-.42.21-.42.53-.05,1.06-.11,2.12-.11,3.18,0,.32.11.42.42.42.95.05,1.91.11,2.86.11h.69c1.91,0,3.5.27,5.41.42.26.05.58,0,.85.05.53.11.69.42.69.95,0,.69.05,1.38.05,2.07v3.34c.05,1.38.11,3.29.16,4.66v.58c0,.58-.05.64-.48.79-.16.05-.26.11-.42.11-1.7.16-3.76.21-5.78.21-.53,0-1.01,0-1.64.05Z"/>
      </g>
    </g>
  </g>
</svg>